STARTFONT 2.3
FONT -FontForge-Source Code Pro-Book-R-Normal--28-280-72-72-M-170-ISO10646-1
SIZE 28 72 72  2
FONTBOUNDINGBOX 31 48 -8 -13
COMMENT "Generated by fontforge, http://fontforge.sourceforge.net"
COMMENT "Copyright 2010, 2012 Adobe Systems Incorporated (http://www.adobe.com/), with Reserved Font Name `Source'."
STARTPROPERTIES 42
FOUNDRY "FontForge"
FAMILY_NAME "Source Code Pro"
WEIGHT_NAME "Book"
SLANT "R"
SETWIDTH_NAME "Normal"
ADD_STYLE_NAME ""
PIXEL_SIZE 28
POINT_SIZE 280
RESOLUTION_X 72
RESOLUTION_Y 72
SPACING "M"
AVERAGE_WIDTH 170
CHARSET_REGISTRY "ISO10646"
CHARSET_ENCODING "1"
FONTNAME_REGISTRY ""
CHARSET_COLLECTIONS "ASCII ISOLatin1Encoding ISO8859-2 ISO8859-9 ISO8859-4 ISO10646-1"
BITS_PER_PIXEL 2
FONT_NAME "SourceCodePro-It"
FACE_NAME "Source Code Pro Italic"
COPYRIGHT "Copyright 2010, 2012 Adobe Systems Incorporated (http://www.adobe.com/), with Reserved Font Name `Source'."
FONT_VERSION "1.050;PS 1.000;hotconv 16.6.51;makeotf.lib2.5.65220"
FONT_ASCENT 21
FONT_DESCENT 7
UNDERLINE_POSITION -3
UNDERLINE_THICKNESS 2
X_HEIGHT 13
CAP_HEIGHT 17
RAW_ASCENT 750
RAW_DESCENT 250
ITALIC_ANGLE 5056
NORM_SPACE 17
RELATIVE_WEIGHT 40
RELATIVE_SETWIDTH 50
SUPERSCRIPT_X 1
SUPERSCRIPT_Y 9
SUPERSCRIPT_SIZE 16
SUBSCRIPT_X 0
SUBSCRIPT_Y 2
SUBSCRIPT_SIZE 16
FIGURE_WIDTH 17
AVG_LOWERCASE_WIDTH 170
AVG_UPPERCASE_WIDTH 170
ENDPROPERTIES
CHARS 1269
STARTCHAR space
ENCODING 32
SWIDTH 600 0
DWIDTH 17 0
BBX 1 1 0 0
BITMAP
00
ENDCHAR
STARTCHAR exclam
ENCODING 33
SWIDTH 600 0
DWIDTH 17 0
BBX 7 18 5 0
BITMAP
00B4
00F4
01F0
01E0
02D0
02D0
03C0
0380
0740
0700
0B00
0000
0000
0000
2E00
BF00
BF00
7D00
ENDCHAR
STARTCHAR quotedbl
ENCODING 34
SWIDTH 600 0
DWIDTH 17 0
BBX 10 9 5 10
BITMAP
3E02F0
7E03F0
BD03E0
BC07D0
B807C0
F40780
F00B40
E00B40
D00B00
ENDCHAR
STARTCHAR numbersign
ENCODING 35
SWIDTH 600 0
DWIDTH 17 0
BBX 14 18 2 0
BITMAP
001C0380
00280740
00340B00
00700E00
00B01D00
1FFFFFD0
1FFFFFC0
01C03400
02807000
0340A000
0700D000
FFFFFE00
FFFFFD00
1D028000
2C034000
38070000
700A0000
A01D0000
ENDCHAR
STARTCHAR dollar
ENCODING 36
SWIDTH 600 0
DWIDTH 17 0
BBX 13 24 2 -3
BITMAP
0001D000
0001D000
0002C000
00028000
00AFE000
03FFFD00
0B906F40
0F400700
0F400000
0B800000
03F80000
00BF8000
001BF000
0001FC00
00003D00
00002D00
E0003D00
BD01BC00
2FFFF400
06FF9000
00E00000
00D00000
01D00000
02C00000
ENDCHAR
STARTCHAR percent
ENCODING 37
SWIDTH 600 0
DWIDTH 17 0
BBX 18 18 -1 0
BITMAP
01BD000060
0BFF4001E0
1E47800780
3C02C01D00
3802807400
740781D000
3D1F000000
2FFD000000
0BE4000000
000002F800
00041FFE00
00283D0B40
00E0740740
0780B00740
1E00B00B00
7800B42E00
60007FF800
00001BD000
ENDCHAR
STARTCHAR ampersand
ENCODING 38
SWIDTH 600 0
DWIDTH 17 0
BBX 16 18 0 0
BITMAP
0002F900
000FFF00
002E4B40
007C0740
00780B00
00742D00
0079B400
003FD000
007E000A
02FE002D
0F8F403C
2E07C0B4
7C02E1E0
7800FBC0
7C003F40
7E01BFD0
2FFFE6F8
06FE4064
ENDCHAR
STARTCHAR quotesingle
ENCODING 39
SWIDTH 600 0
DWIDTH 17 0
BBX 4 9 8 10
BITMAP
3F
3E
7E
7D
BC
B8
B4
F0
E0
ENDCHAR
STARTCHAR parenleft
ENCODING 40
SWIDTH 600 0
DWIDTH 17 0
BBX 11 25 5 -5
BITMAP
000060
0002F4
000B90
002E00
00B800
01E000
03C000
0B4000
0F0000
2D0000
3C0000
3C0000
780000
780000
740000
740000
780000
780000
3C0000
3D0000
1E0000
0F4000
078000
02E000
009000
ENDCHAR
STARTCHAR parenright
ENCODING 41
SWIDTH 600 0
DWIDTH 17 0
BBX 10 26 1 -6
BITMAP
002400
003D00
001F00
000B80
0003C0
0002D0
0001E0
0000F0
0000F0
0000F0
0000F0
0000F0
0000F0
0001E0
0001E0
0002D0
0003C0
000B40
001F00
002D00
00B800
02E000
0B8000
7E0000
B40000
100000
ENDCHAR
STARTCHAR asterisk
ENCODING 42
SWIDTH 600 0
DWIDTH 17 0
BBX 12 13 3 3
BITMAP
000800
001C00
002C00
002C00
A43819
BFBAFD
0BFFD0
02FD00
03FD00
0B9E00
2E0B00
780380
A00280
ENDCHAR
STARTCHAR plus
ENCODING 43
SWIDTH 600 0
DWIDTH 17 0
BBX 13 14 2 2
BITMAP
00180000
001D0000
001D0000
001D0000
001D0000
001D0000
BFFFFF40
BFFFFF40
001D0000
001D0000
001D0000
001D0000
001D0000
00140000
ENDCHAR
STARTCHAR comma
ENCODING 44
SWIDTH 600 0
DWIDTH 17 0
BBX 8 9 2 -5
BITMAP
00B8
02FD
02FE
01FD
003C
0078
01E0
1B40
7800
ENDCHAR
STARTCHAR hyphen
ENCODING 45
SWIDTH 600 0
DWIDTH 17 0
BBX 13 2 2 8
BITMAP
BFFFFF40
BFFFFF40
ENDCHAR
STARTCHAR period
ENCODING 46
SWIDTH 600 0
DWIDTH 17 0
BBX 4 5 5 0
BITMAP
2E
BF
FF
FE
78
ENDCHAR
STARTCHAR slash
ENCODING 47
SWIDTH 600 0
DWIDTH 17 0
BBX 16 24 0 -4
BITMAP
0000000F
0000002D
0000003C
000000B4
000001E0
000003D0
00000780
00000F00
00002D00
00007800
0000B400
0001E000
0003C000
000B4000
000F0000
002D0000
00780000
00F40000
01E00000
03C00000
0B400000
1E000000
2D000000
78000000
ENDCHAR
STARTCHAR zero
ENCODING 48
SWIDTH 600 0
DWIDTH 17 0
BBX 15 18 1 0
BITMAP
000BF900
007FFF40
01F90BD0
03D002E0
0B8001F0
1F0000F0
2E0000F4
3D0780F0
3C0FC0F0
780FC0F0
780B41E0
780002D0
780003C0
3C000B80
2D002F00
1F41BD00
0BFFF400
01BE4000
ENDCHAR
STARTCHAR one
ENCODING 49
SWIDTH 600 0
DWIDTH 17 0
BBX 13 18 1 0
BITMAP
0001BC00
007FF800
006AF400
0000F400
0000F000
0001F000
0001E000
0002D000
0003D000
0003C000
0007C000
00078000
000B4000
000F4000
000F0000
001F0000
BFFFFF40
BFFFFF40
ENDCHAR
STARTCHAR two
ENCODING 50
SWIDTH 600 0
DWIDTH 17 0
BBX 13 18 1 0
BITMAP
001BF800
00BFFF00
07E41F80
074007C0
000003C0
000007C0
00000780
00000F00
00002D00
0000B800
0002E000
000B8000
002E0000
00F80000
07D00000
1F400000
BFFFFF80
FFFFFF80
ENDCHAR
STARTCHAR three
ENCODING 51
SWIDTH 600 0
DWIDTH 17 0
BBX 14 18 1 0
BITMAP
001BF900
01BFFF80
03E41BD0
014003D0
000002D0
000007C0
00006F40
003FF800
003FE400
0001BD00
00001F00
00000B40
00000B80
00000B40
B4001F00
7E41BE00
1FFFF800
02BF9000
ENDCHAR
STARTCHAR four
ENCODING 52
SWIDTH 600 0
DWIDTH 17 0
BBX 15 18 0 0
BITMAP
000001F4
000007F0
00001EF0
00007DE0
0001F1E0
0007C2D0
001F03C0
007C03C0
01F00780
07C00780
1F000B40
3FFFFFFC
7FFFFFF8
00001E00
00001E00
00002D00
00002D00
00003C00
ENDCHAR
STARTCHAR five
ENCODING 53
SWIDTH 600 0
DWIDTH 17 0
BBX 14 18 1 0
BITMAP
00FFFFF0
00FFFFE0
01E00000
02D00000
02D00000
03C00000
07800000
07AFF800
0BFFFF00
06402F80
00000BC0
000007C0
000007C0
00000B80
E0001F40
BE41BE00
2FFFF400
06FE8000
ENDCHAR
STARTCHAR six
ENCODING 54
SWIDTH 600 0
DWIDTH 17 0
BBX 14 18 2 0
BITMAP
001BF900
00BFFF80
02F907D0
0B800040
1F000000
3D000000
78000000
B46FE000
F6FFFD00
FF907E00
FD001F00
F0000B40
F0000F00
F0000F00
B8002D00
3E41F800
1FFFE000
02FE4000
ENDCHAR
STARTCHAR seven
ENCODING 55
SWIDTH 600 0
DWIDTH 17 0
BBX 13 18 3 0
BITMAP
BFFFFFC0
BFFFFF80
00001F00
00007C00
0001F000
0003D000
000B4000
001E0000
003C0000
00B80000
00F00000
02E00000
03D00000
07C00000
0B800000
0F400000
1F000000
2E000000
ENDCHAR
STARTCHAR eight
ENCODING 56
SWIDTH 600 0
DWIDTH 17 0
BBX 14 18 1 0
BITMAP
000BF900
007FFF80
01F907E0
02E001E0
02D000E0
02D001E0
00F002D0
007D0B80
00BFFD00
07D6F800
1F006E00
3D000B40
38000780
78000780
3D000B80
2F406F00
0FFFFD00
01BF9000
ENDCHAR
STARTCHAR nine
ENCODING 57
SWIDTH 600 0
DWIDTH 17 0
BBX 14 18 1 0
BITMAP
001BF800
01FFFF40
03E41BC0
0B8002D0
0F0001E0
1E0000F0
1E0000F0
1F0007F0
0F906FF0
07FFF9E0
01BF92D0
000003D0
00000780
00001F40
10007E00
B906F800
2FFFE000
06FA0000
ENDCHAR
STARTCHAR colon
ENCODING 58
SWIDTH 600 0
DWIDTH 17 0
BBX 6 15 5 0
BITMAP
02D0
0BF0
0FF0
0FE0
0780
0000
0000
0000
0000
0000
2E00
BF00
FF00
FE00
7800
ENDCHAR
STARTCHAR semicolon
ENCODING 59
SWIDTH 600 0
DWIDTH 17 0
BBX 9 20 2 -5
BITMAP
000B40
002FC0
003FC0
003F80
001E00
000000
000000
000000
000000
000000
000000
00B800
02FD00
02FE00
01FD00
003C00
007800
01E000
1B4000
780000
ENDCHAR
STARTCHAR less
ENCODING 60
SWIDTH 600 0
DWIDTH 17 0
BBX 11 16 3 1
BITMAP
000008
000078
0002F4
001F80
00BD00
07E000
2F4000
B80000
B80000
2F4000
07E000
00BD00
001F80
0002F4
000078
000008
ENDCHAR
STARTCHAR equal
ENCODING 61
SWIDTH 600 0
DWIDTH 17 0
BBX 13 8 2 5
BITMAP
BFFFFF40
BFFFFF40
00000000
00000000
00000000
00000000
BFFFFF40
BFFFFF40
ENDCHAR
STARTCHAR greater
ENCODING 62
SWIDTH 600 0
DWIDTH 17 0
BBX 11 16 3 1
BITMAP
800000
F40000
7E0000
0BD000
01F800
002F40
000BE0
0001F4
0001F4
000BE0
006F40
01F800
0BD000
7E0000
F40000
800000
ENDCHAR
STARTCHAR question
ENCODING 63
SWIDTH 600 0
DWIDTH 17 0
BBX 11 18 4 0
BITMAP
01BF80
0BFFF0
2E41F4
1800B4
0000B4
0002D0
000B40
007800
02E000
078000
0B4000
000000
000000
000000
1F0000
7F4000
7F4000
2E0000
ENDCHAR
STARTCHAR at
ENCODING 64
SWIDTH 600 0
DWIDTH 17 0
BBX 16 22 0 -4
BITMAP
0001AFE0
000BFFFC
003F906E
00F8000E
02E0000B
0780000B
0B00000B
1E0006BE
2D007FFE
2C02F95D
380B802C
380E002C
741E0078
740F46F8
740BFF74
3802F834
3C000000
2D000000
1F400000
0BE41B00
02FFFE00
006FE400
ENDCHAR
STARTCHAR A
ENCODING 65
SWIDTH 600 0
DWIDTH 17 0
BBX 15 18 -1 0
BITMAP
00000FC0
00002FC0
00003AC0
0000B6D0
0001E1D0
0002D1E0
000781E0
000B41E0
001E00F0
003D00F0
007800F0
00FFFFF4
02FFFFF4
03D000B8
0B8000B8
1F400078
2E00007C
7C00007C
ENDCHAR
STARTCHAR B
ENCODING 66
SWIDTH 600 0
DWIDTH 17 0
BBX 15 18 1 0
BITMAP
01FFFE40
01FFFFD0
02E007F0
03D000F4
03C000F4
07C001F0
078007D0
0BAABF40
0FFFF800
0F55AF40
1F0007C0
2E0002D0
2D0002E0
3D0002D0
3C0007C0
78006F40
BFFFFD00
BFFF9000
ENDCHAR
STARTCHAR C
ENCODING 67
SWIDTH 600 0
DWIDTH 17 0
BBX 14 18 2 0
BITMAP
0006FE00
007FFFD0
01FD06F0
07E00090
0F800000
2F000000
3D000000
7C000000
B8000000
B4000000
B4000000
B4000000
B8000000
7C000000
3E000400
2F906E00
0BFFF800
01BF9000
ENDCHAR
STARTCHAR D
ENCODING 68
SWIDTH 600 0
DWIDTH 17 0
BBX 16 18 0 0
BITMAP
00BFF900
00FFFFD0
01F017F4
01E000F8
02E0007D
03D0003D
03C0002E
07C0002E
0780002D
0B80003D
0F40003C
0F00007C
1F0000F4
1E0002F0
2D000BD0
3D01BF40
3FFFF900
7FFE9000
ENDCHAR
STARTCHAR E
ENCODING 69
SWIDTH 600 0
DWIDTH 17 0
BBX 16 18 1 0
BITMAP
00BFFFFE
00FFFFFD
00F00000
01E00000
02E00000
02D00000
03C00000
03FFFF80
07FFFF40
0B800000
0B400000
0F000000
1F000000
1E000000
2E000000
2D000000
3FFFFF80
7FFFFF40
ENDCHAR
STARTCHAR F
ENCODING 70
SWIDTH 600 0
DWIDTH 17 0
BBX 15 18 2 0
BITMAP
01FFFFFC
01FFFFF8
02E00000
03D00000
03C00000
07C00000
07800000
0B800000
0FFFFE00
0FFFFE00
1F000000
1E000000
2E000000
3D000000
3C000000
7C000000
78000000
B4000000
ENDCHAR
STARTCHAR G
ENCODING 71
SWIDTH 600 0
DWIDTH 17 0
BBX 15 18 1 0
BITMAP
0001BF40
002FFFE0
00BE41B8
02F40024
07D00000
0F400000
1F000000
2E000000
3D000000
7C00BFF0
7C00FFF0
7C0001E0
7C0002D0
3D0002D0
2F0003C0
0FD01B80
07FFFF40
006FE400
ENDCHAR
STARTCHAR H
ENCODING 72
SWIDTH 600 0
DWIDTH 17 0
BBX 17 18 0 0
BITMAP
00F4000B40
00F0000F00
01E0001F00
02E0001E00
02D0002E00
03C0003D00
03C0003C00
07FFFFFC00
0BFFFFF800
0B4000B800
0F0000F400
1F0000F000
1E0001F000
2E0002E000
2D0002E000
3D0003D000
7C0003C000
780007C000
ENDCHAR
STARTCHAR I
ENCODING 73
SWIDTH 600 0
DWIDTH 17 0
BBX 15 18 1 0
BITMAP
01FFFFFC
02FFFFF8
0001F000
0001E000
0002E000
0003D000
0003C000
0007C000
000B8000
000B4000
000F4000
000F0000
001E0000
002E0000
002D0000
003D0000
BFFFFE00
FFFFFD00
ENDCHAR
STARTCHAR J
ENCODING 74
SWIDTH 600 0
DWIDTH 17 0
BBX 14 18 1 0
BITMAP
00BFFFF0
00FFFFE0
000002E0
000002D0
000003D0
000003C0
00000780
00000B80
00000B40
00000F00
00001F00
00001E00
00002D00
00003D00
A000B800
F906F400
7FFFD000
06FE0000
ENDCHAR
STARTCHAR K
ENCODING 75
SWIDTH 600 0
DWIDTH 17 0
BBX 16 18 1 0
BITMAP
01F0002E
01E000B8
02E002E0
03D00B80
03C02E00
07C0B800
0783D000
0B4FC000
0F7FD000
0FF6E000
1FD1F000
2F40B800
2D007C00
3D003D00
3C001F00
7C000F40
B8000BC0
B40003D0
ENDCHAR
STARTCHAR L
ENCODING 76
SWIDTH 600 0
DWIDTH 17 0
BBX 12 18 3 0
BITMAP
02E000
03D000
03C000
07C000
078000
0B4000
0F4000
0F0000
1F0000
2E0000
2D0000
3D0000
3C0000
780000
B80000
B40000
FFFFFD
FFFFFC
ENDCHAR
STARTCHAR M
ENCODING 77
SWIDTH 600 0
DWIDTH 17 0
BBX 17 18 0 0
BITMAP
00F8001F40
01FC003F40
01FC00BF00
02ED00EE00
02DD02DE00
03DD07AD00
079E0B2D00
078E1E3C00
0B4E3C7800
0F0B747800
0F0BB0B400
1E0BD0F000
1E07C0F000
2D0001E000
3C0001E000
3C0002D000
780003C000
780003C000
ENDCHAR
STARTCHAR N
ENCODING 78
SWIDTH 600 0
DWIDTH 17 0
BBX 17 18 0 0
BITMAP
00B8000B40
00FC000F00
00FD001F00
01EE001E00
02DB002D00
02CB403D00
03C7803C00
03C3C07800
0782D07800
0B41E0B400
0B40F0B400
0F00B4F000
1F0078E000
1E003DE000
2D002ED000
2D001FD000
3C000FC000
7C000B8000
ENDCHAR
STARTCHAR O
ENCODING 79
SWIDTH 600 0
DWIDTH 17 0
BBX 15 18 1 0
BITMAP
000AF900
007FFF80
02F907E0
07D001F4
0F4000B8
2E0000B8
3D00007C
7C000078
B8000078
B40000B8
B40000F4
F40001F0
B80002E0
B80007C0
7D001F40
2F41BE00
0BFFF400
01BE8000
ENDCHAR
STARTCHAR P
ENCODING 80
SWIDTH 600 0
DWIDTH 17 0
BBX 15 18 1 0
BITMAP
00FFFE40
01FFFFE0
01E006F8
02E0007C
02D0007C
03D0007C
07C00078
078001F4
0B801BE0
0BFFFF80
0FFFE900
1F000000
1E000000
2E000000
3D000000
3C000000
7C000000
78000000
ENDCHAR
STARTCHAR Q
ENCODING 81
SWIDTH 600 0
DWIDTH 17 0
BBX 15 23 1 -5
BITMAP
000AF900
007FFF80
02F907E0
07D001F4
0F4000B8
2E0000B8
3D00007C
7C00007C
B8000078
B40000B8
B40000F4
F40001F0
B80002E0
B80007D0
7D001F80
2F41BE00
0FFFF800
02FF9000
003C0000
002E0000
001F8040
000BFF80
0001BF80
ENDCHAR
STARTCHAR R
ENCODING 82
SWIDTH 600 0
DWIDTH 17 0
BBX 15 18 1 0
BITMAP
01FFFA40
02FFFFD0
03D006F0
03C000F4
07C000F4
078000F4
0B4002E0
0F401BD0
0FFFFF40
1FFFE400
1E03D000
2D02E000
3D01F000
3C00F400
78007C00
B8003D00
B4002E00
F4001F00
ENDCHAR
STARTCHAR S
ENCODING 83
SWIDTH 600 0
DWIDTH 17 0
BBX 14 18 1 0
BITMAP
001BF900
00BFFF80
01F807E0
03E00090
03D00000
03D00000
02F40000
00BE0000
002FE000
0006F800
00007E00
00001F40
00000B40
10000B40
B8001F40
7E40BE00
1FFFF800
01BF9000
ENDCHAR
STARTCHAR T
ENCODING 84
SWIDTH 600 0
DWIDTH 17 0
BBX 15 18 3 0
BITMAP
FFFFFFF4
FFFFFFF4
001F0000
001E0000
002D0000
003D0000
003C0000
007C0000
00780000
00B40000
00F40000
00F00000
01F00000
02E00000
02D00000
03D00000
03C00000
07C00000
ENDCHAR
STARTCHAR U
ENCODING 85
SWIDTH 600 0
DWIDTH 17 0
BBX 16 18 1 0
BITMAP
03D0002D
03C0003C
07C0007C
0B800078
0B4000B8
0F4000B4
1F0000F0
1E0001F0
2E0001E0
2D0002E0
3D0003D0
3C0003C0
7C000780
3C000F40
3E001F00
2F80BD00
0BFFF400
01BF9000
ENDCHAR
STARTCHAR V
ENCODING 86
SWIDTH 600 0
DWIDTH 17 0
BBX 15 18 3 0
BITMAP
B80000F4
780001F0
7C0003D0
7C000B80
3C000F40
3C002E00
3D003C00
2D00B800
2D00F000
2D02E000
2E03C000
1E0B4000
1E1F0000
1E2D0000
0F780000
0FB40000
0FE00000
0BC00000
ENDCHAR
STARTCHAR W
ENCODING 87
SWIDTH 600 0
DWIDTH 17 0
BBX 17 18 1 0
BITMAP
1E00000780
1E00000B40
2E00000F40
2D00000F00
2D00001E00
2D03D02D00
2D07D03C00
3C0AD07800
3C1DD0B400
3C2CE0F000
3C38E1E000
38B0E2D000
38E0A3C000
79D0B38000
7BC0B74000
7B40BB0000
7F00BE0000
7E007D0000
ENDCHAR
STARTCHAR X
ENCODING 88
SWIDTH 600 0
DWIDTH 17 0
BBX 17 18 0 0
BITMAP
00F4000F40
00B8002E00
007C00BC00
003D01F000
001E03D000
000F4B8000
000B9E0000
0007FC0000
0003F40000
000BF00000
001FB40000
003D7C0000
00B83D0000
02E02E0000
07C00F4000
1F400B8000
3D0007C000
B80003D000
ENDCHAR
STARTCHAR Y
ENCODING 89
SWIDTH 600 0
DWIDTH 17 0
BBX 15 18 3 0
BITMAP
B40000F4
780002D0
3C000B80
3D001F00
2E003D00
1F00B800
0F41F000
0B83D000
07CB8000
03DF0000
02FD0000
01F40000
01F00000
01E00000
02D00000
03D00000
03C00000
07C00000
ENDCHAR
STARTCHAR Z
ENCODING 90
SWIDTH 600 0
DWIDTH 17 0
BBX 17 18 0 0
BITMAP
01FFFFFF40
01FFFFFF00
0000007D00
000001F400
000003E000
00000B8000
00002E0000
0000BC0000
0001F40000
0007D00000
001F400000
003E000000
00B8000000
02E0000000
0BC0000000
1F40000000
7FFFFFF000
7FFFFFE000
ENDCHAR
STARTCHAR bracketleft
ENCODING 91
SWIDTH 600 0
DWIDTH 17 0
BBX 13 25 3 -5
BITMAP
002FFFC0
003FFF80
00380000
00740000
00740000
00B00000
00F00000
00E00000
01D00000
01D00000
02C00000
02C00000
03800000
07400000
07400000
0B000000
0A000000
0E000000
1D000000
1D000000
2C000000
28000000
38000000
3FFF4000
7FFF4000
ENDCHAR
STARTCHAR backslash
ENCODING 92
SWIDTH 600 0
DWIDTH 17 0
BBX 7 24 5 -4
BITMAP
B400
7400
7800
3800
3C00
2C00
1D00
1D00
0E00
0E00
0B00
0B00
0740
0780
0380
03C0
02C0
02D0
01D0
01E0
00E0
00B0
00B0
0074
ENDCHAR
STARTCHAR bracketright
ENCODING 93
SWIDTH 600 0
DWIDTH 17 0
BBX 13 25 0 -5
BITMAP
002FFF80
003FFF80
00000740
00000740
00000B00
00000A00
00000E00
00001D00
00001D00
00002C00
00002800
00003800
00007400
00007400
0000B000
0000F000
0000E000
0001D000
0001D000
0002C000
0003C000
00038000
00078000
7FFF4000
BFFF0000
ENDCHAR
STARTCHAR asciicircum
ENCODING 94
SWIDTH 600 0
DWIDTH 17 0
BBX 11 11 3 7
BITMAP
00B800
00FC00
02ED00
038E00
074B00
0B0740
0E03C0
1D02D0
3C01E0
7800B0
B40074
ENDCHAR
STARTCHAR underscore
ENCODING 95
SWIDTH 600 0
DWIDTH 17 0
BBX 14 2 -1 -4
BITMAP
BFFFFFF0
BFFFFFE0
ENDCHAR
STARTCHAR grave
ENCODING 96
SWIDTH 600 0
DWIDTH 17 0
BBX 5 6 7 16
BITMAP
2400
BC00
3E00
0F40
07C0
0280
ENDCHAR
STARTCHAR a
ENCODING 97
SWIDTH 600 0
DWIDTH 17 0
BBX 15 14 1 0
BITMAP
001BE474
01FFFEB4
07F41BF0
0F8002E0
2F0001E0
3D0002D0
7C0003D0
780003C0
B80007C0
B8000B80
7C002F40
3F41BF40
1FFFDF00
06F90F00
ENDCHAR
STARTCHAR b
ENCODING 98
SWIDTH 600 0
DWIDTH 17 0
BBX 14 20 1 0
BITMAP
00F00000
01E00000
02E00000
02D00000
03D00000
03C00000
0786FE00
0BAFFF80
0BF90BD0
0FC002E0
0F0001F0
1E0001F0
1E0001F0
2D0001E0
3C0002D0
3C0007C0
7D001F80
7F40BE00
B7FFF800
F0BF9000
ENDCHAR
STARTCHAR c
ENCODING 99
SWIDTH 600 0
DWIDTH 17 0
BBX 13 14 2 0
BITMAP
002BE400
02FFFF40
0BE41BC0
2F400240
7D000000
B8000000
F4000000
F0000000
F0000000
F4000000
BC000800
7F407D00
1FFFF400
02BF8000
ENDCHAR
STARTCHAR d
ENCODING 100
SWIDTH 600 0
DWIDTH 17 0
BBX 16 20 1 0
BITMAP
0000001E
0000002D
0000003D
0000003C
0000007C
00000078
001BE4B4
01FFFEB4
07F41BF0
0F8002F0
2F0001E0
3D0002D0
7C0003D0
780003C0
B80007C0
B8000B80
7C002F40
3F41BF40
1FFFDF00
06F90F00
ENDCHAR
STARTCHAR e
ENCODING 101
SWIDTH 600 0
DWIDTH 17 0
BBX 14 14 1 0
BITMAP
001BF900
00BFFF40
03F41BC0
0BC002D0
1F0001E0
2E0001E0
3FFFFFE0
7FFFFFD0
7C000000
3C000000
3D000200
1F906F40
0BFFFD00
01BF9000
ENDCHAR
STARTCHAR f
ENCODING 102
SWIDTH 600 0
DWIDTH 17 0
BBX 15 20 3 0
BITMAP
0001BF90
000BFFF4
001F9060
003E0000
007C0000
00780000
7FFFFF40
BFFFFF00
00F00000
00F00000
01E00000
02E00000
02D00000
03D00000
03C00000
07800000
0B800000
0B400000
0F400000
0F000000
ENDCHAR
STARTCHAR g
ENCODING 103
SWIDTH 600 0
DWIDTH 17 0
BBX 16 20 0 -6
BITMAP
0006F91D
007FFFAD
01FD06FC
03E000B8
07C00078
0F4000B4
1F0000F4
1E0000F0
1E0001E0
1F0002E0
1F400BD0
0FD57FD0
07FFE7C0
00AA4780
00000780
00000B40
10001F00
7901BD00
2FFFF400
06FE8000
ENDCHAR
STARTCHAR h
ENCODING 104
SWIDTH 600 0
DWIDTH 17 0
BBX 14 20 1 0
BITMAP
00F00000
01F00000
02E00000
02D00000
03D00000
03C00000
0781BE40
0B8BFFD0
0BBD07E0
0FE001E0
0F8001E0
1E0002E0
1E0002D0
2D0003D0
3D0003C0
3C000780
78000B80
78000B40
B4000F40
F4000F00
ENDCHAR
STARTCHAR i
ENCODING 105
SWIDTH 600 0
DWIDTH 17 0
BBX 11 20 3 0
BITMAP
001F40
003F40
002E00
000000
000000
000000
BFFD00
FFFC00
007800
007800
00B400
00F000
00F000
01E000
02D000
02D000
03D000
03E060
01FFF4
006F90
ENDCHAR
STARTCHAR j
ENCODING 106
SWIDTH 600 0
DWIDTH 17 0
BBX 15 26 -1 -6
BITMAP
000001F4
000003F8
000002E0
00000000
00000000
00000000
003FFFD0
007FFFC0
000003C0
00000780
00000B80
00000B40
00000F00
00001F00
00001E00
00002E00
00002D00
00003C00
00007C00
00007800
0000B800
0000F400
0002F000
240BD000
7FFF8000
1BF90000
ENDCHAR
STARTCHAR k
ENCODING 107
SWIDTH 600 0
DWIDTH 17 0
BBX 15 20 1 0
BITMAP
00B40000
00F40000
00F00000
01E00000
02E00000
02D00000
03D000B8
03C003E0
07801F80
0B807E00
0B41F400
0F4BD000
0F2FD000
1FF9F000
2FE0B400
2F407C00
3D002D00
3C001F00
78000B40
B80007C0
ENDCHAR
STARTCHAR l
ENCODING 108
SWIDTH 600 0
DWIDTH 17 0
BBX 9 20 4 0
BITMAP
BFFC00
FFF800
00B400
00F400
00F000
01E000
01E000
02D000
03C000
03C000
078000
0B4000
0B4000
0F0000
1E0000
1E0000
2E0000
1F4140
0FFF80
02FA00
ENDCHAR
STARTCHAR m
ENCODING 109
SWIDTH 600 0
DWIDTH 17 0
BBX 16 14 0 0
BITMAP
074BD1BD
0B7FF7FE
0BE1FD2F
0F80F41E
0F01F01E
1E01E02D
2E02D03D
2D02D03C
3D03C078
3C0780B8
780780B4
B80B40F4
B40F40F0
F40F01E0
ENDCHAR
STARTCHAR n
ENCODING 110
SWIDTH 600 0
DWIDTH 17 0
BBX 14 14 1 0
BITMAP
0741BE40
0B4BFFD0
0B7D07E0
0FE001E0
0F8001E0
1F0002E0
2E0002D0
2D0003D0
3D0003C0
3C000780
7C000B80
B8000B40
B4000F40
F4000F00
ENDCHAR
STARTCHAR o
ENCODING 111
SWIDTH 600 0
DWIDTH 17 0
BBX 14 14 1 0
BITMAP
001BF800
01FFFF40
07E41FC0
1F4003D0
3E0002E0
7C0001E0
B80001E0
B80002E0
B80003D0
B80007C0
7D001F40
2F41BE00
0FFFF400
02BE8000
ENDCHAR
STARTCHAR p
ENCODING 112
SWIDTH 600 0
DWIDTH 17 0
BBX 15 20 0 -6
BITMAP
01D1BF80
02DBFFE0
02FE42F4
03F400B8
03C0007C
0780007C
0B80007C
0B400078
0F4000B8
0F0001F0
1F4007E0
2FD01F80
2EFFFE00
3C2FE400
3C000000
78000000
78000000
B4000000
F4000000
F0000000
ENDCHAR
STARTCHAR q
ENCODING 113
SWIDTH 600 0
DWIDTH 17 0
BBX 15 20 1 -6
BITMAP
001BE474
01FFFEB4
07F41BF0
0F8002E0
2F0001E0
3D0002D0
7C0003D0
780003C0
B80007C0
B8000B80
7C002F40
3F41BF40
1FFFDF00
06F91F00
00001E00
00002D00
00003D00
00003C00
00007C00
00007800
ENDCHAR
STARTCHAR r
ENCODING 114
SWIDTH 600 0
DWIDTH 17 0
BBX 14 14 2 0
BITMAP
02C06F90
03C2FFD0
03CB4040
07A80000
07E00000
0BC00000
0B400000
0F000000
1F000000
1E000000
2D000000
2D000000
3C000000
7C000000
ENDCHAR
STARTCHAR s
ENCODING 115
SWIDTH 600 0
DWIDTH 17 0
BBX 13 14 1 0
BITMAP
006FE400
02FFFF40
03D01BC0
07800140
07C00000
02F40000
00BF9000
001BF800
00006F00
00000F40
28000F40
7F406F00
1BFFFD00
01BFA000
ENDCHAR
STARTCHAR t
ENCODING 116
SWIDTH 600 0
DWIDTH 17 0
BBX 13 18 2 0
BITMAP
002D0000
002C0000
003C0000
00780000
BFFFFFC0
FFFFFFC0
00F00000
01E00000
02E00000
02D00000
03D00000
03C00000
07800000
07800000
07800000
07E01800
02FFFD00
00BFA000
ENDCHAR
STARTCHAR u
ENCODING 117
SWIDTH 600 0
DWIDTH 17 0
BBX 15 14 1 0
BITMAP
0B8000F4
0B4000F0
0F0001F0
1F0001E0
1E0002E0
2E0003D0
2D0003C0
3C0007C0
7C000780
78001F80
7C007F40
7D06DB00
3FFF4F00
0BE40E00
ENDCHAR
STARTCHAR v
ENCODING 118
SWIDTH 600 0
DWIDTH 17 0
BBX 14 14 2 0
BITMAP
780001F0
7C0002D0
3C000780
2D000F40
2E001E00
1E003C00
0F00B400
0F01F000
0B42D000
07878000
078F0000
03DE0000
02FC0000
02F40000
ENDCHAR
STARTCHAR w
ENCODING 119
SWIDTH 600 0
DWIDTH 17 0
BBX 17 14 1 0
BITMAP
B401400F40
B407D01E00
B40BD02D00
B40ED03C00
B41DD07800
B43DD0B400
B478E1E000
B4B0E2D000
B4E0E3C000
76D0E78000
77C0EB0000
7B40EE0000
7F00FD0000
7E00FC0000
ENDCHAR
STARTCHAR x
ENCODING 120
SWIDTH 600 0
DWIDTH 17 0
BBX 15 14 0 0
BITMAP
01E0007C
00F401F4
007C07D0
003D0F40
001E2D00
000BB800
0007E000
000BE000
002EF000
00B8B800
02E03D00
07C01E00
1F000F40
7D0007C0
ENDCHAR
STARTCHAR y
ENCODING 121
SWIDTH 600 0
DWIDTH 17 0
BBX 17 20 -1 -6
BITMAP
01E00007C0
01F0000B40
00F0001E00
00B4003D00
007800B800
007800F000
003C02D000
002D078000
002D0F4000
001E1E0000
000E3C0000
000B740000
000BE00000
0007D00000
0007800000
001F000000
003D000000
41F8000000
FFE0000000
BE40000000
ENDCHAR
STARTCHAR z
ENCODING 122
SWIDTH 600 0
DWIDTH 17 0
BBX 14 14 1 0
BITMAP
0BFFFFF0
0BFFFFE0
00000B80
00002E00
0000B800
0002E000
000B8000
002E0000
00B80000
02E00000
0B800000
2E000000
BFFFFF40
FFFFFF00
ENDCHAR
STARTCHAR braceleft
ENCODING 123
SWIDTH 600 0
DWIDTH 17 0
BBX 14 25 3 -5
BITMAP
0001BFD0
0007FFC0
000B9000
000F0000
001E0000
002D0000
002C0000
003C0000
00380000
00780000
06F00000
BFD00000
BF800000
07D00000
01D00000
01D00000
01C00000
02C00000
03800000
07400000
07000000
0B000000
0B800000
07FF8000
01FF8000
ENDCHAR
STARTCHAR bar
ENCODING 124
SWIDTH 600 0
DWIDTH 17 0
BBX 3 28 7 -7
BITMAP
B4
B4
B4
B4
B4
B4
B4
B4
B4
B4
B4
B4
B4
B4
B4
B4
B4
B4
B4
B4
B4
B4
B4
B4
B4
B4
B4
B4
ENDCHAR
STARTCHAR braceright
ENCODING 125
SWIDTH 600 0
DWIDTH 17 0
BBX 14 25 0 -5
BITMAP
003FE400
003FFC00
00007D00
00002C00
00002C00
00003800
00003400
00007000
0000B000
0000E000
0000B800
00006FD0
0000BFD0
0001F400
0003C000
00038000
00074000
00074000
000B4000
000B0000
000F0000
001E0000
007D0000
BFF80000
BF900000
ENDCHAR
STARTCHAR asciitilde
ENCODING 126
SWIDTH 600 0
DWIDTH 17 0
BBX 13 4 2 7
BITMAP
0BE00340
2FFD0B40
782FFE00
6006F400
ENDCHAR
STARTCHAR uni00A0
ENCODING 160
SWIDTH 600 0
DWIDTH 17 0
BBX 1 1 0 0
BITMAP
00
ENDCHAR
STARTCHAR exclamdown
ENCODING 161
SWIDTH 600 0
DWIDTH 17 0
BBX 7 20 4 -6
BITMAP
00B4
02FC
03F8
01E0
0000
0000
0000
0280
0380
0740
0740
0B00
0F00
0E00
1E00
2E00
2D00
3D00
7C00
7C00
ENDCHAR
STARTCHAR cent
ENCODING 162
SWIDTH 600 0
DWIDTH 17 0
BBX 13 19 2 -1
BITMAP
0000A000
0000D000
0000D000
001BF800
01FFFF40
07E68B40
0F834000
2E034000
3D070000
3C0A0000
7C0A0000
7C0D0000
3D1C0000
2F5C7800
0FFFF400
02FF8000
00340000
00700000
00700000
ENDCHAR
STARTCHAR sterling
ENCODING 163
SWIDTH 600 0
DWIDTH 17 0
BBX 16 18 0 0
BITMAP
0001BF90
0007FFF4
001F907D
002E0018
003D0000
003C0000
003C0000
002D0000
0BFFFF40
0BFFFF40
002D0000
002D0000
003C0000
00780000
00F00000
07800000
2FFFFFC0
7FFFFFC0
ENDCHAR
STARTCHAR currency
ENCODING 164
SWIDTH 600 0
DWIDTH 17 0
BBX 15 14 1 2
BITMAP
0B00002C
0B8BF9B8
02FFFFD0
02F41F80
07C00780
0B4003C0
0F0003C0
0F000780
0F401F40
0BD07E00
1FFFFE00
BDBF9B40
E00003C0
00000100
ENDCHAR
STARTCHAR yen
ENCODING 165
SWIDTH 600 0
DWIDTH 17 0
BBX 16 18 1 0
BITMAP
0780002E
03C0007C
02D000F4
01E002D0
00F00780
00741E00
00382C00
002CB400
001ED000
3FFFFFE0
000F4000
000F0000
7FFFFFC0
002E0000
002D0000
003D0000
003C0000
007C0000
ENDCHAR
STARTCHAR brokenbar
ENCODING 166
SWIDTH 600 0
DWIDTH 17 0
BBX 3 28 7 -7
BITMAP
B4
B4
B4
B4
B4
B4
B4
B4
B4
B4
B4
B4
50
00
00
50
B4
B4
B4
B4
B4
B4
B4
B4
B4
B4
B4
B4
ENDCHAR
STARTCHAR section
ENCODING 167
SWIDTH 600 0
DWIDTH 17 0
BBX 12 21 2 -2
BITMAP
001BE0
00BFFD
01F42E
01E004
00E000
02F400
0FFD00
2F4B80
3D01F4
3C007C
2D001E
1F001E
07D01E
00B97D
001FFC
0007E0
0003C0
5003C0
F91BC0
7FFF40
0BF900
ENDCHAR
STARTCHAR dieresis
ENCODING 168
SWIDTH 600 0
DWIDTH 17 0
BBX 9 3 6 16
BITMAP
780F00
BC1F40
781E00
ENDCHAR
STARTCHAR copyright
ENCODING 169
SWIDTH 600 0
DWIDTH 17 0
BBX 17 18 0 0
BITMAP
0006BF8000
002FFFF400
00BD41BC00
02E0001E00
0B40000B00
0E01BD0700
2C1FFF4340
283E424340
3474000300
70B0000700
70B8180A00
707FFC0D00
741BE02C00
3800007400
2D0002E000
0F406F8000
07FFFE0000
00BF900000
ENDCHAR
STARTCHAR ordfeminine
ENCODING 170
SWIDTH 600 0
DWIDTH 17 0
BBX 10 9 5 11
BITMAP
06F8D0
1FFEC0
7D0780
B40380
E00740
E00700
F41F00
BFEA00
2F8000
ENDCHAR
STARTCHAR guillemotleft
ENCODING 171
SWIDTH 600 0
DWIDTH 17 0
BBX 13 11 2 2
BITMAP
00600240
01E00B40
07C03D00
2F01F400
BC07D000
F4078000
B807C000
7C02E000
1E00F000
0B007800
02002400
ENDCHAR
STARTCHAR logicalnot
ENCODING 172
SWIDTH 600 0
DWIDTH 17 0
BBX 13 7 2 3
BITMAP
BFFFFF40
BFFFFF40
00000740
00000740
00000740
00000740
00000740
ENDCHAR
STARTCHAR uni00AD
ENCODING 173
SWIDTH 600 0
DWIDTH 17 0
BBX 13 2 2 8
BITMAP
BFFFFF40
BFFFFF40
ENDCHAR
STARTCHAR registered
ENCODING 174
SWIDTH 600 0
DWIDTH 17 0
BBX 11 11 4 9
BITMAP
00BF90
074070
180018
20BE0C
60C74C
51FD0C
A2892C
700074
7906F0
2FFF80
07F900
ENDCHAR
STARTCHAR macron
ENCODING 175
SWIDTH 600 0
DWIDTH 17 0
BBX 8 2 6 17
BITMAP
7FFE
7FFE
ENDCHAR
STARTCHAR degree
ENCODING 176
SWIDTH 600 0
DWIDTH 17 0
BBX 8 8 6 12
BITMAP
07E0
2FF8
782C
A00D
A01C
B478
7FF4
1F90
ENDCHAR
STARTCHAR plusminus
ENCODING 177
SWIDTH 600 0
DWIDTH 17 0
BBX 13 15 2 0
BITMAP
001D0000
001D0000
001D0000
001D0000
001D0000
BFFFFF40
BFFFFF40
001D0000
001D0000
001D0000
001D0000
00000000
00000000
BFFFFF40
BFFFFF40
ENDCHAR
STARTCHAR two.sups
ENCODING 178
SWIDTH 600 0
DWIDTH 17 0
BBX 9 12 5 11
BITMAP
01F900
07FF00
0E0B40
000740
000700
000E00
002C00
00B000
078000
1E0000
BFFD00
FFFD00
ENDCHAR
STARTCHAR three.sups
ENCODING 179
SWIDTH 600 0
DWIDTH 17 0
BBX 9 13 5 10
BITMAP
02F900
0BFF00
050B40
000740
001F00
02F900
02F400
006D00
000E00
500E00
B42E00
3FFC00
0BE000
ENDCHAR
STARTCHAR acute
ENCODING 180
SWIDTH 600 0
DWIDTH 17 0
BBX 6 6 8 16
BITMAP
0090
02F0
0BD0
2F40
BC00
6000
ENDCHAR
STARTCHAR uni00B5
ENCODING 181
SWIDTH 600 0
DWIDTH 17 0
BBX 17 19 -1 -5
BITMAP
00B8000F40
00B4000F00
00F0001E00
01F0001E00
01E0002D00
02D0003C00
02D0003C00
03C0007800
07C0007800
078001F400
0BC007F000
0BD06EB000
0FFFF4BC00
1E7F807C00
1E00000000
2D00000000
2D00000000
3C00000000
7C00000000
ENDCHAR
STARTCHAR paragraph
ENCODING 182
SWIDTH 600 0
DWIDTH 17 0
BBX 13 21 2 -3
BITMAP
006BE3C0
02FFD7C0
0BFFC780
2FFFCB80
3FFF8B40
7FFF8F00
7FFF5F00
7FFF1E00
7FFF2E00
2FFE2D00
0BFE3D00
01BD3C00
00007800
0000B800
0000B400
0000F400
0000F000
0001E000
0002E000
0002D000
0003D000
ENDCHAR
STARTCHAR periodcentered
ENCODING 183
SWIDTH 600 0
DWIDTH 17 0
BBX 4 5 6 8
BITMAP
2E
BF
FF
FF
78
ENDCHAR
STARTCHAR cedilla
ENCODING 184
SWIDTH 600 0
DWIDTH 17 0
BBX 5 7 3 -7
BITMAP
0740
0A00
1F40
07C0
03C0
1B40
E900
ENDCHAR
STARTCHAR one.sups
ENCODING 185
SWIDTH 600 0
DWIDTH 17 0
BBX 9 11 5 11
BITMAP
007C00
0BFC00
003800
007400
007400
00B000
00E000
00E000
01D000
FFFF40
FFFF40
ENDCHAR
STARTCHAR ordmasculine
ENCODING 186
SWIDTH 600 0
DWIDTH 17 0
BBX 9 9 5 11
BITMAP
02FD00
1FFF80
3E07C0
B402C0
B002C0
F00780
B41F40
7FFE00
1BE400
ENDCHAR
STARTCHAR guillemotright
ENCODING 187
SWIDTH 600 0
DWIDTH 17 0
BBX 13 11 1 2
BITMAP
09006000
0B407800
07802D00
02E01F00
01F40B80
00F40B80
02F01F40
0B807D00
2E01F400
7803C000
90060000
ENDCHAR
STARTCHAR onequarter
ENCODING 188
SWIDTH 600 0
DWIDTH 17 0
BBX 18 18 -1 0
BITMAP
01B8000060
07F80001E0
0074000780
00B0001D00
00B0007400
00E001D000
00E0000000
01D0000000
01D0000000
0000006000
000401D000
0028074400
00E00D2800
0780283800
1E00BFFE00
7800BFFE00
6000007000
000000B000
ENDCHAR
STARTCHAR onehalf
ENCODING 189
SWIDTH 600 0
DWIDTH 17 0
BBX 18 18 -1 0
BITMAP
01B8000060
07F80001E0
0074000780
00B0001D00
00B0007400
00E001D000
00E0000000
01D0000000
01D0000000
000002F800
00040BFE00
00281D1E00
00E0001D00
0780002800
1E0001D000
78000A4000
60007FFE00
00007FFD00
ENDCHAR
STARTCHAR threequarters
ENCODING 190
SWIDTH 600 0
DWIDTH 17 0
BBX 18 18 -1 0
BITMAP
01BD000060
07FF0001E0
061B000780
01F8001D00
01F8007400
001E01D000
381E000000
1FFD000000
07E4000000
0000006000
000401D000
0028074400
00E00D2800
0780283800
1E00BFFE00
7800BFFE00
6000007000
000000B000
ENDCHAR
STARTCHAR questiondown
ENCODING 191
SWIDTH 600 0
DWIDTH 17 0
BBX 11 20 1 -6
BITMAP
0001F0
0007F4
0007F4
0002E0
000000
000000
000000
000380
000740
000F00
007D00
01F400
07D000
1E0000
3C0000
780000
7C0060
7E06E0
2FFF80
06F900
ENDCHAR
STARTCHAR Agrave
ENCODING 192
SWIDTH 600 0
DWIDTH 17 0
BBX 15 24 -1 0
BITMAP
00002400
00007D00
00001F40
000007C0
00000180
00000000
00000FC0
00002FC0
00003AC0
0000B6D0
0001E1D0
0002D1E0
000781E0
000B41E0
001E00F0
003D00F0
007800F0
00FFFFF4
02FFFFF4
03D000B8
0B8000B8
1F400078
2E00007C
7C00007C
ENDCHAR
STARTCHAR Aacute
ENCODING 193
SWIDTH 600 0
DWIDTH 17 0
BBX 16 24 -1 0
BITMAP
00000018
000000BD
000007E4
00000640
00000000
00000000
00000FC0
00002FC0
00003AC0
0000B6D0
0001E1D0
0002D1E0
000781E0
000B41E0
001E00F0
003D00F0
007800F0
00FFFFF4
02FFFFF4
03D000B8
0B8000B8
1F400078
2E00007C
7C00007C
ENDCHAR
STARTCHAR Acircumflex
ENCODING 194
SWIDTH 600 0
DWIDTH 17 0
BBX 16 24 -1 0
BITMAP
00000BE0
00002EB8
0000B42D
0001900A
00000000
00000000
00000FC0
00002FC0
00003AC0
0000B6D0
0001E1D0
0002D1E0
000781E0
000B41E0
001E00F0
003D00F0
007800F0
00FFFFF4
02FFFFF4
03D000B8
0B8000B8
1F400078
2E00007C
7C00007C
ENDCHAR
STARTCHAR Atilde
ENCODING 195
SWIDTH 600 0
DWIDTH 17 0
BBX 17 25 -1 0
BITMAP
0000140000
0000BF02C0
0001FBC780
0002C2FF40
000240BD00
0000000000
0000000000
00000FC000
00002FC000
00003AC000
0000B6D000
0001E1D000
0002D1E000
000781E000
000B41E000
001E00F000
003D00F000
007800F000
00FFFFF400
02FFFFF400
03D000B800
0B8000B800
1F40007800
2E00007C00
7C00007C00
ENDCHAR
STARTCHAR Adieresis
ENCODING 196
SWIDTH 600 0
DWIDTH 17 0
BBX 16 23 -1 0
BITMAP
0000741E
0000F82E
0000B41D
00000000
00000000
00000FC0
00002FC0
00003AC0
0000B6D0
0001E1D0
0002D1E0
000781E0
000B41E0
001E00F0
003D00F0
007800F0
00FFFFF4
02FFFFF4
03D000B8
0B8000B8
1F400078
2E00007C
7C00007C
ENDCHAR
STARTCHAR Aring
ENCODING 197
SWIDTH 600 0
DWIDTH 17 0
BBX 15 25 -1 0
BITMAP
000006E0
00001D28
00002828
00001C74
00000BD0
00000000
00000000
00000FC0
00002FC0
00003AC0
0000B6D0
0001E1D0
0002D1E0
000781E0
000B41E0
001E00F0
003D00F0
007800F0
00FFFFF4
02FFFFF4
03D000B8
0B8000B8
1F400078
2E00007C
7C00007C
ENDCHAR
STARTCHAR AE
ENCODING 198
SWIDTH 600 0
DWIDTH 17 0
BBX 20 18 -2 0
BITMAP
000003FFFF
000007FFFF
00000FB400
00002DF000
000078F000
0000F1E000
0002D1D000
0007C2FFD0
000B43FFD0
001E038000
003C078000
00BFFF4000
01FFFF4000
03D00B0000
0B800E0000
1F401E0000
2E001FFFC0
78002FFFC0
ENDCHAR
STARTCHAR Ccedilla
ENCODING 199
SWIDTH 600 0
DWIDTH 17 0
BBX 14 25 2 -7
BITMAP
0006FE00
007FFFD0
01FD06F0
07E00090
0F800000
2F000000
3D000000
7C000000
B8000000
B4000000
B4000000
B4000000
B8000000
7C000000
3E000400
2F906E00
0BFFF800
01BF9000
00280000
00700000
00F80000
002D0000
001D0000
00780000
0B900000
ENDCHAR
STARTCHAR Egrave
ENCODING 200
SWIDTH 600 0
DWIDTH 17 0
BBX 16 24 1 0
BITMAP
00009000
0001F400
00007D00
00001F00
00000600
00000000
00BFFFFE
00FFFFFD
00F00000
01E00000
02E00000
02D00000
03C00000
03FFFF80
07FFFF40
0B800000
0B400000
0F000000
1F000000
1E000000
2E000000
2D000000
3FFFFF80
7FFFFF40
ENDCHAR
STARTCHAR Eacute
ENCODING 201
SWIDTH 600 0
DWIDTH 17 0
BBX 16 24 1 0
BITMAP
00000060
000002F4
00001F80
00001900
00000000
00000000
00BFFFFE
00FFFFFD
00F00000
01E00000
02E00000
02D00000
03C00000
03FFFF80
07FFFF40
0B800000
0B400000
0F000000
1F000000
1E000000
2E000000
2D000000
3FFFFF80
7FFFFF40
ENDCHAR
STARTCHAR Ecircumflex
ENCODING 202
SWIDTH 600 0
DWIDTH 17 0
BBX 16 24 1 0
BITMAP
00002F80
0000BAE0
0002D0B4
00060024
00000000
00000000
00BFFFFE
00FFFFFD
00F00000
01E00000
02E00000
02D00000
03C00000
03FFFF80
07FFFF40
0B800000
0B400000
0F000000
1F000000
1E000000
2E000000
2D000000
3FFFFF80
7FFFFF40
ENDCHAR
STARTCHAR Edieresis
ENCODING 203
SWIDTH 600 0
DWIDTH 17 0
BBX 16 23 1 0
BITMAP
0001D074
0003E0B8
0002C074
00000000
00000000
00BFFFFE
00FFFFFD
00F00000
01E00000
02E00000
02D00000
03C00000
03FFFF80
07FFFF40
0B800000
0B400000
0F000000
1F000000
1E000000
2E000000
2D000000
3FFFFF80
7FFFFF40
ENDCHAR
STARTCHAR Igrave
ENCODING 204
SWIDTH 600 0
DWIDTH 17 0
BBX 15 24 1 0
BITMAP
00024000
0007D000
0001F400
00007C00
00001800
00000000
01FFFFFC
02FFFFF8
0001F000
0001E000
0002E000
0003D000
0003C000
0007C000
000B8000
000B4000
000F4000
000F0000
001E0000
002E0000
002D0000
003D0000
BFFFFE00
FFFFFD00
ENDCHAR
STARTCHAR Iacute
ENCODING 205
SWIDTH 600 0
DWIDTH 17 0
BBX 15 24 1 0
BITMAP
00000180
00000BD0
00007E40
00006400
00000000
00000000
01FFFFFC
02FFFFF8
0001F000
0001E000
0002E000
0003D000
0003C000
0007C000
000B8000
000B4000
000F4000
000F0000
001E0000
002E0000
002D0000
003D0000
BFFFFE00
FFFFFD00
ENDCHAR
STARTCHAR Icircumflex
ENCODING 206
SWIDTH 600 0
DWIDTH 17 0
BBX 15 24 1 0
BITMAP
0000BE00
0002EB80
000B42D0
001900A0
00000000
00000000
01FFFFFC
02FFFFF8
0001F000
0001E000
0002E000
0003D000
0003C000
0007C000
000B8000
000B4000
000F4000
000F0000
001E0000
002E0000
002D0000
003D0000
BFFFFE00
FFFFFD00
ENDCHAR
STARTCHAR Idieresis
ENCODING 207
SWIDTH 600 0
DWIDTH 17 0
BBX 15 23 1 0
BITMAP
000741E0
000F82E0
000B41D0
00000000
00000000
01FFFFFC
02FFFFF8
0001F000
0001E000
0002E000
0003D000
0003C000
0007C000
000B8000
000B4000
000F4000
000F0000
001E0000
002E0000
002D0000
003D0000
BFFFFE00
FFFFFD00
ENDCHAR
STARTCHAR Eth
ENCODING 208
SWIDTH 600 0
DWIDTH 17 0
BBX 16 18 0 0
BITMAP
007FFA40
00BFFFE0
00F406F8
00F000BD
01F0002E
02E0001F
02D0001F
3FFFD01F
7FFFC01F
07C0001E
0780002E
0B40003D
0F4000BC
0F0001F4
1F0007E0
1E006F80
2FFFFD00
3FFF9000
ENDCHAR
STARTCHAR Ntilde
ENCODING 209
SWIDTH 600 0
DWIDTH 17 0
BBX 17 25 0 0
BITMAP
0000500000
0002FC0B00
0007EF1E00
000B0BFD00
000902F400
0000000000
0000000000
00B8000B40
00FC000F00
00FD001F00
01EE001E00
02DB002D00
02CB403D00
03C7803C00
03C3C07800
0782D07800
0B41E0B400
0B40F0B400
0F00B4F000
1F0078E000
1E003DE000
2D002ED000
2D001FD000
3C000FC000
7C000B8000
ENDCHAR
STARTCHAR Ograve
ENCODING 210
SWIDTH 600 0
DWIDTH 17 0
BBX 15 24 1 0
BITMAP
00024000
0007D000
0001F400
00007C00
00001800
00000000
000AF900
007FFF80
02F907E0
07D001F4
0F4000B8
2E0000B8
3D00007C
7C000078
B8000078
B40000B8
B40000F4
F40001F0
B80002E0
B80007C0
7D001F40
2F41BE00
0BFFF400
01BE8000
ENDCHAR
STARTCHAR Oacute
ENCODING 211
SWIDTH 600 0
DWIDTH 17 0
BBX 15 24 1 0
BITMAP
00000180
00000BD0
00007E40
00006400
00000000
00000000
000AF900
007FFF80
02F907E0
07D001F4
0F4000B8
2E0000B8
3D00007C
7C000078
B8000078
B40000B8
B40000F4
F40001F0
B80002E0
B80007C0
7D001F40
2F41BE00
0BFFF400
01BE8000
ENDCHAR
STARTCHAR Ocircumflex
ENCODING 212
SWIDTH 600 0
DWIDTH 17 0
BBX 15 24 1 0
BITMAP
0000BE00
0002EB80
000B42D0
001900A0
00000000
00000000
000AF900
007FFF80
02F907E0
07D001F4
0F4000B8
2E0000B8
3D00007C
7C000078
B8000078
B40000B8
B40000F4
F40001F0
B80002E0
B80007C0
7D001F40
2F41BE00
0BFFF400
01BE8000
ENDCHAR
STARTCHAR Otilde
ENCODING 213
SWIDTH 600 0
DWIDTH 17 0
BBX 15 25 1 0
BITMAP
00014000
000BF02C
001FBC78
002C2FF4
00240BD0
00000000
00000000
000AF900
007FFF80
02F907E0
07D001F4
0F4000B8
2E0000B8
3D00007C
7C000078
B8000078
B40000B8
B40000F4
F40001F0
B80002E0
B80007C0
7D001F40
2F41BE00
0BFFF400
01BE8000
ENDCHAR
STARTCHAR Odieresis
ENCODING 214
SWIDTH 600 0
DWIDTH 17 0
BBX 15 23 1 0
BITMAP
000741E0
000F82E0
000B41D0
00000000
00000000
000AF900
007FFF80
02F907E0
07D001F4
0F4000B8
2E0000B8
3D00007C
7C000078
B8000078
B40000B8
B40000F4
F40001F0
B80002E0
B80007C0
7D001F40
2F41BE00
0BFFF400
01BE8000
ENDCHAR
STARTCHAR multiply
ENCODING 215
SWIDTH 600 0
DWIDTH 17 0
BBX 11 11 3 4
BITMAP
A00024
B800B8
2E02E0
0B8B80
02FE00
00F800
02FE00
0B8B80
2E02E0
B800B8
A00024
ENDCHAR
STARTCHAR Oslash
ENCODING 216
SWIDTH 600 0
DWIDTH 17 0
BBX 18 20 0 -1
BITMAP
0000000040
0002BE43D0
001FFFEB80
00BE41FE00
01F400BD00
03D002FE00
0B8007DE00
0F401F1F00
1F007C1E00
2E01F41E00
2D03D02E00
2D0F403D00
2D3D007C00
2DB800B800
2FE001F000
1F8007D000
2FD06F8000
7AFFFD0000
F06FA00000
5000000000
ENDCHAR
STARTCHAR Ugrave
ENCODING 217
SWIDTH 600 0
DWIDTH 17 0
BBX 16 24 1 0
BITMAP
00024000
0007D000
0001F400
00007C00
00001800
00000000
03D0002D
03C0003C
07C0007C
0B800078
0B4000B8
0F4000B4
1F0000F0
1E0001F0
2E0001E0
2D0002E0
3D0003D0
3C0003C0
7C000780
3C000F40
3E001F00
2F80BD00
0BFFF400
01BF9000
ENDCHAR
STARTCHAR Uacute
ENCODING 218
SWIDTH 600 0
DWIDTH 17 0
BBX 16 24 1 0
BITMAP
00000180
00000BD0
00007E40
00006400
00000000
00000000
03D0002D
03C0003C
07C0007C
0B800078
0B4000B8
0F4000B4
1F0000F0
1E0001F0
2E0001E0
2D0002E0
3D0003D0
3C0003C0
7C000780
3C000F40
3E001F00
2F80BD00
0BFFF400
01BF9000
ENDCHAR
STARTCHAR Ucircumflex
ENCODING 219
SWIDTH 600 0
DWIDTH 17 0
BBX 16 24 1 0
BITMAP
0000BE00
0002EB80
000B42D0
001900A0
00000000
00000000
03D0002D
03C0003C
07C0007C
0B800078
0B4000B8
0F4000B4
1F0000F0
1E0001F0
2E0001E0
2D0002E0
3D0003D0
3C0003C0
7C000780
3C000F40
3E001F00
2F80BD00
0BFFF400
01BF9000
ENDCHAR
STARTCHAR Udieresis
ENCODING 220
SWIDTH 600 0
DWIDTH 17 0
BBX 16 23 1 0
BITMAP
000741E0
000F82E0
000B41D0
00000000
00000000
03D0002D
03C0003C
07C0007C
0B800078
0B4000B8
0F4000B4
1F0000F0
1E0001F0
2E0001E0
2D0002E0
3D0003D0
3C0003C0
7C000780
3C000F40
3E001F00
2F80BD00
0BFFF400
01BF9000
ENDCHAR
STARTCHAR Yacute
ENCODING 221
SWIDTH 600 0
DWIDTH 17 0
BBX 15 24 3 0
BITMAP
00001800
0001BD00
000BE000
000A0000
00000000
00000000
B40000F4
780002D0
3C000B80
3D001F00
2E003D00
1F00B800
0F41F000
0B83D000
07CB8000
03DF0000
02FD0000
01F40000
01F00000
01E00000
02D00000
03D00000
03C00000
07C00000
ENDCHAR
STARTCHAR Thorn
ENCODING 222
SWIDTH 600 0
DWIDTH 17 0
BBX 15 18 1 0
BITMAP
01F00000
01E00000
02E00000
02FFFA40
03FFFFD0
07C007F0
078000F4
0B8000B4
0B4000B4
0F0000F0
1F0002E0
1E005FD0
2FFFFE40
3FFFA400
3C000000
7C000000
78000000
B8000000
ENDCHAR
STARTCHAR germandbls
ENCODING 223
SWIDTH 600 0
DWIDTH 17 0
BBX 14 20 1 0
BITMAP
0006F900
003FFF80
00BD07D0
01F003D0
03D003D0
03C00780
07801F00
0B803C00
0B40F000
0F41E000
1F02E000
1E00F800
2E007E00
2D000BC0
3D0002E0
7C0001F0
780001E0
B82907D0
B42FFF80
F006F900
ENDCHAR
STARTCHAR agrave
ENCODING 224
SWIDTH 600 0
DWIDTH 17 0
BBX 15 22 1 0
BITMAP
00018000
0003D000
0001F000
0000B800
00003D00
00000800
00000000
00000000
001BE474
01FFFEB4
07F41BF0
0F8002E0
2F0001E0
3D0002D0
7C0003D0
780003C0
B80007C0
B8000B80
7C002F40
3F41BF40
1FFFDF00
06F90F00
ENDCHAR
STARTCHAR aacute
ENCODING 225
SWIDTH 600 0
DWIDTH 17 0
BBX 15 22 1 0
BITMAP
00000180
000007D0
00001F80
00007E00
0000F400
00009000
00000000
00000000
001BE474
01FFFEB4
07F41BF0
0F8002E0
2F0001E0
3D0002D0
7C0003D0
780003C0
B80007C0
B8000B80
7C002F40
3F41BF40
1FFFDF00
06F90F00
ENDCHAR
STARTCHAR acircumflex
ENCODING 226
SWIDTH 600 0
DWIDTH 17 0
BBX 15 21 1 0
BITMAP
0000BE00
0002FF40
000B8780
001E02D0
00280090
00000000
00000000
001BE474
01FFFEB4
07F41BF0
0F8002E0
2F0001E0
3D0002D0
7C0003D0
780003C0
B80007C0
B8000B80
7C002F40
3F41BF40
1FFFDF00
06F90F00
ENDCHAR
STARTCHAR atilde
ENCODING 227
SWIDTH 600 0
DWIDTH 17 0
BBX 15 21 1 0
BITMAP
00014000
000BE038
001D7874
00382FF0
00240B90
00000000
00000000
001BE474
01FFFEB4
07F41BF0
0F8002E0
2F0001E0
3D0002D0
7C0003D0
780003C0
B80007C0
B8000B80
7C002F40
3F41BF40
1FFFDF00
06F90F00
ENDCHAR
STARTCHAR adieresis
ENCODING 228
SWIDTH 600 0
DWIDTH 17 0
BBX 15 19 1 0
BITMAP
000B42D0
001F43E0
000E02D0
00000000
00000000
001BE474
01FFFEB4
07F41BF0
0F8002E0
2F0001E0
3D0002D0
7C0003D0
780003C0
B80007C0
B8000B80
7C002F40
3F41BF40
1FFFDF00
06F90F00
ENDCHAR
STARTCHAR aring
ENCODING 229
SWIDTH 600 0
DWIDTH 17 0
BBX 15 21 1 0
BITMAP
0000BE00
00028380
00034280
00038740
0001F900
00000000
00000000
001BE474
01FFFEB4
07F41BF0
0F8002E0
2F0001E0
3D0002D0
7C0003D0
780003C0
B80007C0
B8000B80
7C002F40
3F41BF40
1FFFDF00
06F90F00
ENDCHAR
STARTCHAR ae
ENCODING 230
SWIDTH 600 0
DWIDTH 17 0
BBX 18 14 -1 0
BITMAP
006F807F40
07FFE3FFC0
0781FB42E0
00007D00E0
00007800E0
0006F956E0
01BFFFFFD0
0BF9FAAA80
2E40E00000
7800E00000
B401F00000
B81BF80A00
7FFD7FFE00
1FE01BE400
ENDCHAR
STARTCHAR ccedilla
ENCODING 231
SWIDTH 600 0
DWIDTH 17 0
BBX 13 21 2 -7
BITMAP
002BE400
02FFFF40
0BE41BC0
2F400240
7D000000
B8000000
F4000000
F0000000
F0000000
F4000000
BC000800
7F407D00
1FFFF400
02BF8000
00740000
00E00000
01F40000
007C0000
003C0000
01B40000
0E900000
ENDCHAR
STARTCHAR egrave
ENCODING 232
SWIDTH 600 0
DWIDTH 17 0
BBX 14 22 1 0
BITMAP
00018000
0007D000
0002F000
0000F800
00003C00
00001800
00000000
00000000
001BF900
00BFFF40
03F41BC0
0BC002D0
1F0001E0
2E0001E0
3FFFFFE0
7FFFFFD0
7C000000
3C000000
3D000200
1F906F40
0BFFFD00
01BF9000
ENDCHAR
STARTCHAR eacute
ENCODING 233
SWIDTH 600 0
DWIDTH 17 0
BBX 14 22 1 0
BITMAP
00000140
000007D0
00001F80
00007D00
0001F400
00008000
00000000
00000000
001BF900
00BFFF40
03F41BC0
0BC002D0
1F0001E0
2E0001E0
3FFFFFE0
7FFFFFD0
7C000000
3C000000
3D000200
1F906F40
0BFFFD00
01BF9000
ENDCHAR
STARTCHAR ecircumflex
ENCODING 234
SWIDTH 600 0
DWIDTH 17 0
BBX 14 21 1 0
BITMAP
0000BD00
0002EF00
000B8B80
002D02D0
00240080
00000000
00000000
001BF900
00BFFF40
03F41BC0
0BC002D0
1F0001E0
2E0001E0
3FFFFFE0
7FFFFFD0
7C000000
3C000000
3D000200
1F906F40
0BFFFD00
01BF9000
ENDCHAR
STARTCHAR edieresis
ENCODING 235
SWIDTH 600 0
DWIDTH 17 0
BBX 14 19 1 0
BITMAP
000B02D0
001F47D0
001E0380
00000000
00000000
001BF900
00BFFF40
03F41BC0
0BC002D0
1F0001E0
2E0001E0
3FFFFFE0
7FFFFFD0
7C000000
3C000000
3D000200
1F906F40
0BFFFD00
01BF9000
ENDCHAR
STARTCHAR igrave
ENCODING 236
SWIDTH 600 0
DWIDTH 17 0
BBX 11 22 3 0
BITMAP
006000
00F800
007C00
002E00
000B40
000240
000000
000000
BFFD00
FFFC00
007800
007800
00B400
00F000
00F000
01E000
02D000
02D000
03D000
03E060
01FFF4
006F90
ENDCHAR
STARTCHAR iacute
ENCODING 237
SWIDTH 600 0
DWIDTH 17 0
BBX 11 22 3 0
BITMAP
000060
0001F4
0007E0
001F80
003D00
002400
000000
000000
BFFD00
FFFC00
007800
007800
00B400
00F000
00F000
01E000
02D000
02D000
03D000
03E060
01FFF4
006F90
ENDCHAR
STARTCHAR icircumflex
ENCODING 238
SWIDTH 600 0
DWIDTH 17 0
BBX 11 21 3 0
BITMAP
001F80
007FD0
01E1E0
078074
060024
000000
000000
BFFD00
FFFC00
007800
007800
00B400
00F000
00F000
01E000
02D000
02D000
03D000
03E060
01FFF4
006F90
ENDCHAR
STARTCHAR idieresis
ENCODING 239
SWIDTH 600 0
DWIDTH 17 0
BBX 11 19 3 0
BITMAP
02D074
07D0F8
03C0B4
000000
000000
BFFD00
FFFC00
007800
007800
00B400
00F000
00F000
01E000
02D000
02D000
03D000
03E060
01FFF4
006F90
ENDCHAR
STARTCHAR eth
ENCODING 240
SWIDTH 600 0
DWIDTH 17 0
BBX 16 20 1 0
BITMAP
00064004
000BD07D
0001FBE4
0001BF40
001BEF40
002D07C0
000002D0
006FE1E0
07FFFDF0
0FD01FF0
2E0002F0
7C0001F0
B80000F0
B40001E0
F40002D0
B40007C0
B8001F80
3E41BE00
1FFFF800
02FE9000
ENDCHAR
STARTCHAR ntilde
ENCODING 241
SWIDTH 600 0
DWIDTH 17 0
BBX 15 21 1 0
BITMAP
00014000
000BE038
002DB874
00382FF0
00240B90
00000000
00000000
0741BE40
0B4BFFD0
0B7D07E0
0FE001E0
0F8001E0
1F0002E0
2E0002D0
2D0003D0
3D0003C0
3C000780
7C000B80
B8000B40
B4000F40
F4000F00
ENDCHAR
STARTCHAR ograve
ENCODING 242
SWIDTH 600 0
DWIDTH 17 0
BBX 14 22 1 0
BITMAP
00024000
000BC000
0003E000
0000F400
00007C00
00002800
00000000
00000000
001BF800
01FFFF40
07E41FC0
1F4003D0
3E0002E0
7C0001E0
B80001E0
B80002E0
B80003D0
B80007C0
7D001F40
2F41BE00
0FFFF400
02BE8000
ENDCHAR
STARTCHAR oacute
ENCODING 243
SWIDTH 600 0
DWIDTH 17 0
BBX 14 22 1 0
BITMAP
00000240
00000BC0
00002F40
0000BD00
0002F000
00018000
00000000
00000000
001BF800
01FFFF40
07E41FC0
1F4003D0
3E0002E0
7C0001E0
B80001E0
B80002E0
B80003D0
B80007C0
7D001F40
2F41BE00
0FFFF400
02BE8000
ENDCHAR
STARTCHAR ocircumflex
ENCODING 244
SWIDTH 600 0
DWIDTH 17 0
BBX 14 21 1 0
BITMAP
0000FC00
0003EE00
000F4B40
002D03C0
00240180
00000000
00000000
001BF800
01FFFF40
07E41FC0
1F4003D0
3E0002E0
7C0001E0
B80001E0
B80002E0
B80003D0
B80007C0
7D001F40
2F41BE00
0FFFF400
02BE8000
ENDCHAR
STARTCHAR otilde
ENCODING 245
SWIDTH 600 0
DWIDTH 17 0
BBX 15 21 1 0
BITMAP
00014010
001FD074
003DB4B0
00743FE0
00600F80
00000000
00000000
001BF800
01FFFF40
07E41FC0
1F4003D0
3E0002E0
7C0001E0
B80001E0
B80002E0
B80003D0
B80007C0
7D001F40
2F41BE00
0FFFF400
02BE8000
ENDCHAR
STARTCHAR odieresis
ENCODING 246
SWIDTH 600 0
DWIDTH 17 0
BBX 14 19 1 0
BITMAP
001E03C0
002F07D0
001E0780
00000000
00000000
001BF800
01FFFF40
07E41FC0
1F4003D0
3E0002E0
7C0001E0
B80001E0
B80002E0
B80003D0
B80007C0
7D001F40
2F41BE00
0FFFF400
02BE8000
ENDCHAR
STARTCHAR divide
ENCODING 247
SWIDTH 600 0
DWIDTH 17 0
BBX 13 14 2 2
BITMAP
002D0000
003E0000
002D0000
00000000
00000000
00000000
BFFFFF40
BFFFFF40
00000000
00000000
00000000
002D0000
003E0000
002D0000
ENDCHAR
STARTCHAR oslash
ENCODING 248
SWIDTH 600 0
DWIDTH 17 0
BBX 16 16 0 -1
BITMAP
00000004
0006FE1E
007FFFFD
01F906F4
07D007F4
0F802FB8
1F00B878
2E02E078
2D0B80B8
2D2E00F4
2EB801F0
1FD007D0
1FD06F80
7FFFFD00
B4AFA000
10000000
ENDCHAR
STARTCHAR ugrave
ENCODING 249
SWIDTH 600 0
DWIDTH 17 0
BBX 15 22 1 0
BITMAP
00024000
000BC000
0003E000
0001F400
00007C00
00002800
00000000
00000000
0B8000F4
0B4000F0
0F0001F0
1F0001E0
1E0002E0
2E0003D0
2D0003C0
3C0007C0
7C000780
78001F80
7C007F40
7D06DB00
3FFF4F00
0BE40E00
ENDCHAR
STARTCHAR uacute
ENCODING 250
SWIDTH 600 0
DWIDTH 17 0
BBX 15 22 1 0
BITMAP
00000240
00000BC0
00002F40
0000BD00
0002E000
00018000
00000000
00000000
0B8000F4
0B4000F0
0F0001F0
1F0001E0
1E0002E0
2E0003D0
2D0003C0
3C0007C0
7C000780
78001F80
7C007F40
7D06DB00
3FFF4F00
0BE40E00
ENDCHAR
STARTCHAR ucircumflex
ENCODING 251
SWIDTH 600 0
DWIDTH 17 0
BBX 15 21 1 0
BITMAP
0000FC00
0003EE00
000F4B40
003D03C0
00240180
00000000
00000000
0B8000F4
0B4000F0
0F0001F0
1F0001E0
1E0002E0
2E0003D0
2D0003C0
3C0007C0
7C000780
78001F80
7C007F40
7D06DB00
3FFF4F00
0BE40E00
ENDCHAR
STARTCHAR udieresis
ENCODING 252
SWIDTH 600 0
DWIDTH 17 0
BBX 15 19 1 0
BITMAP
001E03C0
002F07C0
001D0780
00000000
00000000
0B8000F4
0B4000F0
0F0001F0
1F0001E0
1E0002E0
2E0003D0
2D0003C0
3C0007C0
7C000780
78001F80
7C007F40
7D06DB00
3FFF4F00
0BE40E00
ENDCHAR
STARTCHAR yacute
ENCODING 253
SWIDTH 600 0
DWIDTH 17 0
BBX 17 28 -1 -6
BITMAP
0000002000
000000B800
000002F400
00000BC000
00002E0000
0000180000
0000000000
0000000000
01E00007C0
01F0000B40
00F0001E00
00B4003D00
007800B800
007800F000
003C02D000
002D078000
002D0F4000
001E1E0000
000E3C0000
000B740000
000BE00000
0007D00000
0007800000
001F000000
003D000000
41F8000000
FFE0000000
BE40000000
ENDCHAR
STARTCHAR thorn
ENCODING 254
SWIDTH 600 0
DWIDTH 17 0
BBX 15 26 0 -6
BITMAP
003C0000
00780000
00B80000
00B40000
00F40000
00F00000
01E1BF80
01EBFFE0
02FE42F4
03F000B8
03C0007C
0780007C
0780007C
0B400078
0F4000B8
0F0001F0
1F4007E0
1FD01F80
2EFFFE00
3C2FE400
3C000000
78000000
78000000
B4000000
F4000000
F0000000
ENDCHAR
STARTCHAR ydieresis
ENCODING 255
SWIDTH 600 0
DWIDTH 17 0
BBX 17 25 -1 -6
BITMAP
0001E07800
0003E0BC00
0002D07400
0000000000
0000000000
01E00007C0
01F0000B40
00F0001E00
00B4003D00
007800B800
007800F000
003C02D000
002D078000
002D0F4000
001E1E0000
000E3C0000
000B740000
000BE00000
0007D00000
0007800000
001F000000
003D000000
41F8000000
FFE0000000
BE40000000
ENDCHAR
STARTCHAR Amacron
ENCODING 256
SWIDTH 600 0
DWIDTH 17 0
BBX 16 22 -1 0
BITMAP
0000BFFE
0000BFFD
00000000
00000000
00000FC0
00002FC0
00003AC0
0000B6D0
0001E1D0
0002D1E0
000781E0
000B41E0
001E00F0
003D00F0
007800F0
00FFFFF4
02FFFFF4
03D000B8
0B8000B8
1F400078
2E00007C
7C00007C
ENDCHAR
STARTCHAR amacron
ENCODING 257
SWIDTH 600 0
DWIDTH 17 0
BBX 15 19 1 0
BITMAP
000FFFD0
000FFFC0
00000000
00000000
00000000
001BE474
01FFFEB4
07F41BF0
0F8002E0
2F0001E0
3D0002D0
7C0003D0
780003C0
B80007C0
B8000B80
7C002F40
3F41BF40
1FFFDF00
06F90F00
ENDCHAR
STARTCHAR Abreve
ENCODING 258
SWIDTH 600 0
DWIDTH 17 0
BBX 16 23 -1 0
BITMAP
0000A007
0000B41D
00002FE4
00000000
00000000
00000FC0
00002FC0
00003AC0
0000B6D0
0001E1D0
0002D1E0
000781E0
000B41E0
001E00F0
003D00F0
007800F0
00FFFFF4
02FFFFF4
03D000B8
0B8000B8
1F400078
2E00007C
7C00007C
ENDCHAR
STARTCHAR abreve
ENCODING 259
SWIDTH 600 0
DWIDTH 17 0
BBX 15 21 1 0
BITMAP
001D0074
001E00B0
000F42D0
000BFF80
0002FD00
00000000
00000000
001BE474
01FFFEB4
07F41BF0
0F8002E0
2F0001E0
3D0002D0
7C0003D0
780003C0
B80007C0
B8000B80
7C002F40
3F41BF40
1FFFDF00
06F90F00
ENDCHAR
STARTCHAR Aogonek
ENCODING 260
SWIDTH 600 0
DWIDTH 17 0
BBX 15 25 -1 -7
BITMAP
00000FC0
00002FC0
00003AC0
0000B6D0
0001E1D0
0002D1E0
000781E0
000B41E0
001E00F0
003D00F0
007800F0
00FFFFF4
02FFFFF4
03D000B8
0B8000B8
1F400078
2E00007C
7C00007C
00000074
000001C0
00000740
00000B00
00000F44
00000BFC
000002F4
ENDCHAR
STARTCHAR aogonek
ENCODING 261
SWIDTH 600 0
DWIDTH 17 0
BBX 15 21 1 -7
BITMAP
001BE474
01FFFEB4
07F41BF0
0F8002E0
2F0001E0
3D0002D0
7C0003D0
780003C0
B80007C0
B8000B80
7C002F40
3F41BF40
1FFFDF00
06F90F00
00002900
0000A000
00028000
00034000
00078000
0003FE00
0001F800
ENDCHAR
STARTCHAR Cacute
ENCODING 262
SWIDTH 600 0
DWIDTH 17 0
BBX 14 24 2 0
BITMAP
00000180
00000BD0
00007E40
00006400
00000000
00000000
0006FE00
007FFFD0
01FD06F0
07E00090
0F800000
2F000000
3D000000
7C000000
B8000000
B4000000
B4000000
B4000000
B8000000
7C000000
3E000400
2F906E00
0BFFF800
01BF9000
ENDCHAR
STARTCHAR cacute
ENCODING 263
SWIDTH 600 0
DWIDTH 17 0
BBX 13 22 2 0
BITMAP
00000200
00000B80
00003F40
0000F800
0002E000
00014000
00000000
00000000
002BE400
02FFFF40
0BE41BC0
2F400240
7D000000
B8000000
F4000000
F0000000
F0000000
F4000000
BC000800
7F407D00
1FFFF400
02BF8000
ENDCHAR
STARTCHAR Ccircumflex
ENCODING 264
SWIDTH 600 0
DWIDTH 17 0
BBX 14 24 2 0
BITMAP
0000BE00
0002EB80
000B42D0
00190090
00000000
00000000
0006FE00
007FFFD0
01FD06F0
07E00090
0F800000
2F000000
3D000000
7C000000
B8000000
B4000000
B4000000
B4000000
B8000000
7C000000
3E000400
2F906E00
0BFFF800
01BF9000
ENDCHAR
STARTCHAR ccircumflex
ENCODING 265
SWIDTH 600 0
DWIDTH 17 0
BBX 13 21 2 0
BITMAP
0001F800
0007FD00
001F4F00
007C0780
00600180
00000000
00000000
002BE400
02FFFF40
0BE41BC0
2F400240
7D000000
B8000000
F4000000
F0000000
F0000000
F4000000
BC000800
7F407D00
1FFFF400
02BF8000
ENDCHAR
STARTCHAR Cdotaccent
ENCODING 266
SWIDTH 600 0
DWIDTH 17 0
BBX 14 23 2 0
BITMAP
00002C00
00007D00
00007800
00000000
00000000
0006FE00
007FFFD0
01FD06F0
07E00090
0F800000
2F000000
3D000000
7C000000
B8000000
B4000000
B4000000
B4000000
B8000000
7C000000
3E000400
2F906E00
0BFFF800
01BF9000
ENDCHAR
STARTCHAR cdotaccent
ENCODING 267
SWIDTH 600 0
DWIDTH 17 0
BBX 13 20 2 0
BITMAP
0001F400
0002F800
0001F400
00000000
00000000
00000000
002BE400
02FFFF40
0BE41BC0
2F400240
7D000000
B8000000
F4000000
F0000000
F0000000
F4000000
BC000800
7F407D00
1FFFF400
02BF8000
ENDCHAR
STARTCHAR Ccaron
ENCODING 268
SWIDTH 600 0
DWIDTH 17 0
BBX 15 24 2 0
BITMAP
000A0064
000781E0
0002EB80
0000BE00
00000000
00000000
0006FE00
007FFFD0
01FD06F0
07E00090
0F800000
2F000000
3D000000
7C000000
B8000000
B4000000
B4000000
B4000000
B8000000
7C000000
3E000400
2F906E00
0BFFF800
01BF9000
ENDCHAR
STARTCHAR ccaron
ENCODING 269
SWIDTH 600 0
DWIDTH 17 0
BBX 14 21 2 0
BITMAP
00180090
002D02D0
000F1F40
0007FD00
0002F400
00000000
00000000
002BE400
02FFFF40
0BE41BC0
2F400240
7D000000
B8000000
F4000000
F0000000
F0000000
F4000000
BC000800
7F407D00
1FFFF400
02BF8000
ENDCHAR
STARTCHAR Dcaron
ENCODING 270
SWIDTH 600 0
DWIDTH 17 0
BBX 16 24 0 0
BITMAP
0002401C
0002D0B8
0000BBD0
00003F40
00000000
00000000
00BFF900
00FFFFD0
01F017F4
01E000F8
02E0007D
03D0003D
03C0002E
07C0002E
0780002D
0B80003D
0F40003C
0F00007C
1F0000F4
1E0002F0
2D000BD0
3D01BF40
3FFFF900
7FFE9000
ENDCHAR
STARTCHAR dcaron
ENCODING 271
SWIDTH 600 0
DWIDTH 17 0
BBX 20 23 1 0
BITMAP
000000002D
000000003C
000000003C
0000007878
000000B874
000000B4B0
000000F4A0
000001F0E0
000001E000
006FE2E000
02FFFAD000
0BE42FD000
1F4007C000
2E00078000
7C000B8000
B8000B4000
B4000F4000
B4001F0000
B4001E0000
B8007E0000
7E06FD0000
2FFF6D0000
0BF83C0000
ENDCHAR
STARTCHAR Dcroat
ENCODING 272
SWIDTH 600 0
DWIDTH 17 0
BBX 16 18 0 0
BITMAP
007FFA40
00BFFFE0
00F406F8
00F000BD
01F0002E
02E0001F
02D0001F
3FFFD01F
7FFFC01F
07C0001E
0780002E
0B40003D
0F4000BC
0F0001F4
1F0007E0
1E006F80
2FFFFD00
3FFF9000
ENDCHAR
STARTCHAR dcroat
ENCODING 273
SWIDTH 600 0
DWIDTH 17 0
BBX 17 20 1 0
BITMAP
0000002E00
0000002D00
0000AABFC0
0000FFFF80
0000007800
000000B800
002FE4B400
01FFFDF000
07E41FF000
1F8003E000
2E0002E000
3C0003D000
780003C000
B80007C000
B800078000
B8000B8000
7C002F4000
3E41FF0000
1FFF8F0000
06F90E0000
ENDCHAR
STARTCHAR Emacron
ENCODING 274
SWIDTH 600 0
DWIDTH 17 0
BBX 16 22 1 0
BITMAP
0002FFF8
0002FFF4
00000000
00000000
00BFFFFE
00FFFFFD
00F00000
01E00000
02E00000
02D00000
03C00000
03FFFF80
07FFFF40
0B800000
0B400000
0F000000
1F000000
1E000000
2E000000
2D000000
3FFFFF80
7FFFFF40
ENDCHAR
STARTCHAR emacron
ENCODING 275
SWIDTH 600 0
DWIDTH 17 0
BBX 14 19 1 0
BITMAP
000FFFC0
001FFFC0
00000000
00000000
00000000
001BF900
00BFFF40
03F41BC0
0BC002D0
1F0001E0
2E0001E0
3FFFFFE0
7FFFFFD0
7C000000
3C000000
3D000200
1F906F40
0BFFFD00
01BF9000
ENDCHAR
STARTCHAR Ebreve
ENCODING 276
SWIDTH 600 0
DWIDTH 17 0
BBX 16 23 1 0
BITMAP
0002801C
0002D074
0000BF90
00000000
00000000
00BFFFFE
00FFFFFD
00F00000
01E00000
02E00000
02D00000
03C00000
03FFFF80
07FFFF40
0B800000
0B400000
0F000000
1F000000
1E000000
2E000000
2D000000
3FFFFF80
7FFFFF40
ENDCHAR
STARTCHAR ebreve
ENCODING 277
SWIDTH 600 0
DWIDTH 17 0
BBX 14 21 1 0
BITMAP
001C0070
001D00E0
001F47D0
000BFF80
0002F900
00000000
00000000
001BF900
00BFFF40
03F41BC0
0BC002D0
1F0001E0
2E0001E0
3FFFFFE0
7FFFFFD0
7C000000
3C000000
3D000200
1F906F40
0BFFFD00
01BF9000
ENDCHAR
STARTCHAR Edotaccent
ENCODING 278
SWIDTH 600 0
DWIDTH 17 0
BBX 16 23 1 0
BITMAP
00000F00
00002F40
00001E00
00000000
00000000
00BFFFFE
00FFFFFD
00F00000
01E00000
02E00000
02D00000
03C00000
03FFFF80
07FFFF40
0B800000
0B400000
0F000000
1F000000
1E000000
2E000000
2D000000
3FFFFF80
7FFFFF40
ENDCHAR
STARTCHAR edotaccent
ENCODING 279
SWIDTH 600 0
DWIDTH 17 0
BBX 14 20 1 0
BITMAP
0000B800
0001FD00
0000B800
00000000
00000000
00000000
001BF900
00BFFF40
03F41BC0
0BC002D0
1F0001E0
2E0001E0
3FFFFFE0
7FFFFFD0
7C000000
3C000000
3D000200
1F906F40
0BFFFD00
01BF9000
ENDCHAR
STARTCHAR Eogonek
ENCODING 280
SWIDTH 600 0
DWIDTH 17 0
BBX 16 25 1 -7
BITMAP
00BFFFFE
00FFFFFD
00F00000
01E00000
02E00000
02D00000
03C00000
03FFFF80
07FFFF40
0B800000
0B400000
0F000000
1F000000
1E000000
2E000000
2D000000
3FFFFF80
7FFFFF40
00002800
0000E000
00028000
00038000
00078000
0003FE00
0001F800
ENDCHAR
STARTCHAR eogonek
ENCODING 281
SWIDTH 600 0
DWIDTH 17 0
BBX 14 21 1 -7
BITMAP
001BF900
00BFFF40
03F41BC0
0BC002D0
1F0001E0
2E0001E0
3FFFFFE0
7FFFFFD0
7C000000
3C000000
3D000200
1F906F40
0BFFFD00
01BFF400
0001D000
00074000
000A0000
000E0000
000F0400
000FFC00
0006E400
ENDCHAR
STARTCHAR Ecaron
ENCODING 282
SWIDTH 600 0
DWIDTH 17 0
BBX 16 24 1 0
BITMAP
00028019
0001E0B8
0000BAE0
00003F40
00000000
00000000
00BFFFFE
00FFFFFD
00F00000
01E00000
02E00000
02D00000
03C00000
03FFFF80
07FFFF40
0B800000
0B400000
0F000000
1F000000
1E000000
2E000000
2D000000
3FFFFF80
7FFFFF40
ENDCHAR
STARTCHAR ecaron
ENCODING 283
SWIDTH 600 0
DWIDTH 17 0
BBX 14 21 1 0
BITMAP
00080060
000E01E0
00078B80
0003EE00
0001F800
00000000
00000000
001BF900
00BFFF40
03F41BC0
0BC002D0
1F0001E0
2E0001E0
3FFFFFE0
7FFFFFD0
7C000000
3C000000
3D000200
1F906F40
0BFFFD00
01BF9000
ENDCHAR
STARTCHAR Gcircumflex
ENCODING 284
SWIDTH 600 0
DWIDTH 17 0
BBX 15 24 1 0
BITMAP
00002F40
0000FBD0
0007D0F0
000A0024
00000000
00000000
0001BF40
002FFFE0
00BE41B8
02F40024
07D00000
0F400000
1F000000
2E000000
3D000000
7C00BFF0
7C00FFF0
7C0001E0
7C0002D0
3D0002D0
2F0003C0
0FD01B80
07FFFF40
006FE400
ENDCHAR
STARTCHAR gcircumflex
ENCODING 285
SWIDTH 600 0
DWIDTH 17 0
BBX 16 27 0 -6
BITMAP
00002F80
0000BFD0
0002E1E0
000780B4
000A0024
00000000
00000000
0006F91D
007FFFAD
01FD06FC
03E000B8
07C00078
0F4000B4
1F0000F4
1E0000F0
1E0001E0
1F0002E0
1F400BD0
0FD57FD0
07FFE7C0
00AA4780
00000780
00000B40
10001F00
7901BD00
2FFFF400
06FE8000
ENDCHAR
STARTCHAR Gbreve
ENCODING 286
SWIDTH 600 0
DWIDTH 17 0
BBX 15 23 1 0
BITMAP
00074028
000390B4
0001BF80
00000000
00000000
0001BF40
002FFFE0
00BE41B8
02F40024
07D00000
0F400000
1F000000
2E000000
3D000000
7C00BFF0
7C00FFF0
7C0001E0
7C0002D0
3D0002D0
2F0003C0
0FD01B80
07FFFF40
006FE400
ENDCHAR
STARTCHAR gbreve
ENCODING 287
SWIDTH 600 0
DWIDTH 17 0
BBX 16 27 0 -6
BITMAP
0007401D
0007802C
0003D0B4
0002FFE0
0000BF40
00000000
00000000
0006F91D
007FFFAD
01FD06FC
03E000B8
07C00078
0F4000B4
1F0000F4
1E0000F0
1E0001E0
1F0002E0
1F400BD0
0FD57FD0
07FFE7C0
00AA4780
00000780
00000B40
10001F00
7901BD00
2FFFF400
06FE8000
ENDCHAR
STARTCHAR Gdotaccent
ENCODING 288
SWIDTH 600 0
DWIDTH 17 0
BBX 15 23 1 0
BITMAP
00001E00
00003F00
00002E00
00000000
00000000
0001BF40
002FFFE0
00BE41B8
02F40024
07D00000
0F400000
1F000000
2E000000
3D000000
7C00BFF0
7C00FFF0
7C0001E0
7C0002D0
3D0002D0
2F0003C0
0FD01B80
07FFFF40
006FE400
ENDCHAR
STARTCHAR gdotaccent
ENCODING 289
SWIDTH 600 0
DWIDTH 17 0
BBX 16 26 0 -6
BITMAP
00001F40
00003F40
00002E00
00000000
00000000
00000000
0006F91D
007FFFAD
01FD06FC
03E000B8
07C00078
0F4000B4
1F0000F4
1E0000F0
1E0001E0
1F0002E0
1F400BD0
0FD57FD0
07FFE7C0
00AA4780
00000780
00000B40
10001F00
7901BD00
2FFFF400
06FE8000
ENDCHAR
STARTCHAR uni0122
ENCODING 290
SWIDTH 600 0
DWIDTH 17 0
BBX 15 25 1 -7
BITMAP
0001BF40
002FFFE0
00BE41B8
02F40024
07D00000
0F400000
1F000000
2E000000
3D000000
7C00BFF0
7C00FFF0
7C0001E0
7C0002D0
3D0002D0
2F0003C0
0FD01B80
07FFFF40
006FE400
00000000
001E0000
002F8000
0007C000
001B8000
01FF0000
01E80000
ENDCHAR
STARTCHAR uni0123
ENCODING 291
SWIDTH 600 0
DWIDTH 17 0
BBX 16 26 0 -6
BITMAP
00000190
00001FD0
00003D00
00007400
00003D00
00000400
0006F91D
007FFFAD
01FD06FC
03E000B8
07C00078
0F4000B4
1F0000F4
1E0000F0
1E0001E0
1F0002E0
1F400BD0
0FD57FD0
07FFE7C0
00AA4780
00000780
00000B40
10001F00
7901BD00
2FFFF400
06FE8000
ENDCHAR
STARTCHAR Hcircumflex
ENCODING 292
SWIDTH 600 0
DWIDTH 17 0
BBX 17 24 0 0
BITMAP
00002F8000
0000BAE000
0002D0B400
0006402800
0000000000
0000000000
00F4000B40
00F0000F00
01E0001F00
02E0001E00
02D0002E00
03C0003D00
03C0003C00
07FFFFFC00
0BFFFFF800
0B4000B800
0F0000F400
1F0000F000
1E0001F000
2E0002E000
2D0002E000
3D0003D000
7C0003C000
780007C000
ENDCHAR
STARTCHAR hcircumflex
ENCODING 293
SWIDTH 600 0
DWIDTH 17 0
BBX 14 26 1 0
BITMAP
00BE0000
03EF4000
1F43C000
28009000
00000000
00000000
00F00000
01F00000
02E00000
02D00000
03D00000
03C00000
0781BE40
0B8BFFD0
0BBD07E0
0FE001E0
0F8001E0
1E0002E0
1E0002D0
2D0003D0
3D0003C0
3C000780
78000B80
78000B40
B4000F40
F4000F00
ENDCHAR
STARTCHAR Hbar
ENCODING 294
SWIDTH 600 0
DWIDTH 17 0
BBX 18 18 0 0
BITMAP
00F4000B40
00F0000F00
01E0001F00
1FFFFFFFE0
2FFFFFFFE0
03D0002D00
03C0003D00
07FFFFFC00
0BFFFFF800
0B4000B800
0F0000F400
0F0000F000
1E0001F000
2E0002E000
2D0002E000
3D0003D000
7C0003C000
780007C000
ENDCHAR
STARTCHAR hbar
ENCODING 295
SWIDTH 600 0
DWIDTH 17 0
BBX 14 20 1 0
BITMAP
00F00000
01E00000
2FFFFE00
2FFFFD00
03D00000
03C00000
0781BE40
078BFFD0
0B7D07E0
0FE002E0
0F8001E0
1E0002E0
1E0002D0
2D0003C0
3D0003C0
3C000780
78000B80
78000B40
B4000F40
F4000F00
ENDCHAR
STARTCHAR Itilde
ENCODING 296
SWIDTH 600 0
DWIDTH 17 0
BBX 15 25 1 0
BITMAP
00014000
000BF02C
001FBC78
002C2FF4
00240BD0
00000000
00000000
01FFFFFC
02FFFFF8
0001F000
0001E000
0002E000
0003D000
0003C000
0007C000
000B8000
000B4000
000F4000
000F0000
001E0000
002E0000
002D0000
003D0000
BFFFFE00
FFFFFD00
ENDCHAR
STARTCHAR itilde
ENCODING 297
SWIDTH 600 0
DWIDTH 17 0
BBX 12 21 3 0
BITMAP
005000
02F80B
079E1E
0A07FC
0902F4
000000
000000
BFFD00
FFFC00
007800
007800
00B400
00F000
00F000
01E000
02D000
02D000
03D000
03E060
01FFF4
006F90
ENDCHAR
STARTCHAR Imacron
ENCODING 298
SWIDTH 600 0
DWIDTH 17 0
BBX 15 22 1 0
BITMAP
000BFFE0
000BFFD0
00000000
00000000
01FFFFFC
02FFFFF8
0001F000
0001E000
0002E000
0003D000
0003C000
0007C000
000B8000
000B4000
000F4000
000F0000
001E0000
002E0000
002D0000
003D0000
BFFFFE00
FFFFFD00
ENDCHAR
STARTCHAR imacron
ENCODING 299
SWIDTH 600 0
DWIDTH 17 0
BBX 11 19 3 0
BITMAP
02FFF4
03FFF4
000000
000000
000000
BFFD00
FFFC00
007800
007800
00B400
00F000
00F000
01E000
02D000
02D000
03D000
03E060
01FFF4
006F90
ENDCHAR
STARTCHAR Ibreve
ENCODING 300
SWIDTH 600 0
DWIDTH 17 0
BBX 15 23 1 0
BITMAP
000A0070
000B41D0
0002FE40
00000000
00000000
01FFFFFC
02FFFFF8
0001F000
0001E000
0002E000
0003D000
0003C000
0007C000
000B8000
000B4000
000F4000
000F0000
001E0000
002E0000
002D0000
003D0000
BFFFFE00
FFFFFD00
ENDCHAR
STARTCHAR ibreve
ENCODING 301
SWIDTH 600 0
DWIDTH 17 0
BBX 12 21 3 0
BITMAP
03400D
03802C
03D0B8
01FFE0
007F80
000000
000000
BFFD00
FFFC00
007800
007800
00B400
00F000
00F000
01E000
02D000
02D000
03D000
03E060
01FFF4
006F90
ENDCHAR
STARTCHAR Iogonek
ENCODING 302
SWIDTH 600 0
DWIDTH 17 0
BBX 15 25 1 -7
BITMAP
01FFFFFC
02FFFFF8
0001F000
0001E000
0002E000
0003D000
0003C000
0007C000
000B8000
000B4000
000F4000
000F0000
001E0000
002E0000
002D0000
003D0000
BFFFFE00
FFFFFD00
00740000
01D00000
03400000
07400000
0B840000
07FD0000
02F80000
ENDCHAR
STARTCHAR iogonek
ENCODING 303
SWIDTH 600 0
DWIDTH 17 0
BBX 11 27 3 -7
BITMAP
001F40
003F40
002E00
000000
000000
000000
BFFD00
FFFC00
007800
007800
00B400
00F000
00F000
01E000
02D000
02D000
03D000
02E060
01FFF4
006FD0
000A00
002800
007000
00B000
00B440
00BFD0
002F40
ENDCHAR
STARTCHAR Idotaccent
ENCODING 304
SWIDTH 600 0
DWIDTH 17 0
BBX 15 23 1 0
BITMAP
00002C00
00007D00
00007800
00000000
00000000
01FFFFFC
02FFFFF8
0001F000
0001E000
0002E000
0003D000
0003C000
0007C000
000B8000
000B4000
000F4000
000F0000
001E0000
002E0000
002D0000
003D0000
BFFFFE00
FFFFFD00
ENDCHAR
STARTCHAR dotlessi
ENCODING 305
SWIDTH 600 0
DWIDTH 17 0
BBX 11 14 3 0
BITMAP
BFFD00
FFFC00
007800
007800
00B400
00F000
00F000
01E000
02D000
02D000
03D000
03E060
01FFF4
006F90
ENDCHAR
STARTCHAR IJ
ENCODING 306
SWIDTH 600 0
DWIDTH 17 0
BBX 15 23 1 -5
BITMAP
01F00078
01E000B8
02E000F4
03D000F0
03C001F0
07C001E0
078002E0
0B8003D0
0F4003C0
0F0007C0
1F000780
1E000B80
2E000F40
3D000F00
3C001F00
7C001E00
78002E00
B4003D00
00003C00
00007C00
0001F800
002FF000
002F8000
ENDCHAR
STARTCHAR ij
ENCODING 307
SWIDTH 600 0
DWIDTH 17 0
BBX 14 26 2 -6
BITMAP
02E007D0
03F40FE0
02E00B80
00000000
00000000
00000000
0B801F00
0B401E00
0F402E00
0F002D00
1F003C00
2E007C00
2D007800
3D00B800
3C00B400
7C00F000
7801F000
B401E000
F402E000
F002D000
0003C000
0007C000
000B8000
001F4000
02FE0000
02F80000
ENDCHAR
STARTCHAR Jcircumflex
ENCODING 308
SWIDTH 600 0
DWIDTH 17 0
BBX 14 24 1 0
BITMAP
0000BE00
0002EB80
000B42D0
001900A0
00000000
00000000
00BFFFF0
00FFFFE0
000002E0
000002D0
000003D0
000003C0
00000780
00000B80
00000B40
00000F00
00001F00
00001E00
00002D00
00003D00
A000B800
F906F400
7FFFD000
06FE0000
ENDCHAR
STARTCHAR jcircumflex
ENCODING 309
SWIDTH 600 0
DWIDTH 17 0
BBX 17 27 -1 -6
BITMAP
000001F800
000007FD00
00001E1E00
0000780740
0000600240
0000000000
0000000000
003FFFD000
007FFFC000
000003C000
0000078000
00000B8000
00000B4000
00000F0000
00001F0000
00001E0000
00002E0000
00002D0000
00003C0000
00007C0000
0000780000
0000B80000
0000F40000
0002F00000
240BD00000
7FFF800000
1BF9000000
ENDCHAR
STARTCHAR uni0136
ENCODING 310
SWIDTH 600 0
DWIDTH 17 0
BBX 16 25 1 -7
BITMAP
01F0002E
01E000B8
02E002E0
03D00B80
03C02E00
07C0B800
0783D000
0B4FC000
0F7FD000
0FF6E000
1FD1F000
2F40B800
2D007C00
3D003D00
3C001F00
7C000F40
B8000BC0
B40003D0
00000000
002E0000
003F4000
000B8000
001B4000
02FE0000
01E40000
ENDCHAR
STARTCHAR uni0137
ENCODING 311
SWIDTH 600 0
DWIDTH 17 0
BBX 15 27 1 -7
BITMAP
00B40000
00F40000
00F00000
01E00000
02E00000
02D00000
03D000B8
03C003E0
07801F80
0B807E00
0B41F400
0F4BD000
0F2FD000
1FF9F000
2FE0B400
2F407C00
3D002D00
3C001F00
78000B40
B80007C0
00000000
00290000
003F4000
000B4000
001F0000
02FE0000
02E40000
ENDCHAR
STARTCHAR kgreenlandic
ENCODING 312
SWIDTH 600 0
DWIDTH 17 0
BBX 15 14 1 0
BITMAP
03C000B8
07C003E0
07801F80
0B807D00
0B42F400
0F0BD000
1F3FD000
1FF9F000
2FD0B400
2F407C00
3D002D00
3C001F00
78000B40
B80007C0
ENDCHAR
STARTCHAR Lacute
ENCODING 313
SWIDTH 600 0
DWIDTH 17 0
BBX 12 24 3 0
BITMAP
000240
001F80
00BD00
009000
000000
000000
02E000
03D000
03C000
07C000
078000
0B4000
0F4000
0F0000
1F0000
2E0000
2D0000
3D0000
3C0000
780000
B80000
B40000
FFFFFD
FFFFFC
ENDCHAR
STARTCHAR lacute
ENCODING 314
SWIDTH 600 0
DWIDTH 17 0
BBX 10 26 4 0
BITMAP
0000A0
0007F0
002F40
002400
000000
000000
BFFC00
FFF800
00B400
00F400
00F000
01E000
01E000
02D000
03C000
03C000
078000
0B4000
0B4000
0F0000
1E0000
1E0000
2E0000
1F4140
0FFF80
02FA00
ENDCHAR
STARTCHAR uni013B
ENCODING 315
SWIDTH 600 0
DWIDTH 17 0
BBX 12 25 3 -7
BITMAP
02E000
03D000
03C000
07C000
078000
0B4000
0F4000
0F0000
1F0000
2E0000
2D0000
3D0000
3C0000
780000
B80000
B40000
FFFFFD
FFFFFC
000000
00E400
01FC00
007C00
007C00
0FF400
0E8000
ENDCHAR
STARTCHAR uni013C
ENCODING 316
SWIDTH 600 0
DWIDTH 17 0
BBX 9 27 4 -7
BITMAP
BFFC00
FFF800
00B400
00F400
00F000
01E000
01E000
02D000
03C000
03C000
078000
0B4000
0B4000
0F0000
1E0000
1E0000
2E0000
1F4140
0FFF80
02FA00
000000
02E000
03F400
00B800
01B400
2FE000
1E4000
ENDCHAR
STARTCHAR Lcaron
ENCODING 317
SWIDTH 600 0
DWIDTH 17 0
BBX 12 23 3 0
BITMAP
00000F
00000F
00001E
00001D
00002D
02E02C
03D038
03C034
07C000
078000
0B4000
0F4000
0F0000
1F0000
2E0000
2D0000
3D0000
3C0000
780000
B80000
B40000
FFFFFD
FFFFFC
ENDCHAR
STARTCHAR lcaron
ENCODING 318
SWIDTH 600 0
DWIDTH 17 0
BBX 12 23 4 0
BITMAP
00000F
00001E
00001E
BFFC2D
FFF82C
00B438
00F434
00F074
01E000
01E000
02D000
03C000
03C000
078000
0B4000
0B4000
0F0000
1E0000
1E0000
2E0000
1F4140
0FFF80
02FA00
ENDCHAR
STARTCHAR Ldot
ENCODING 319
SWIDTH 600 0
DWIDTH 17 0
BBX 13 18 3 0
BITMAP
02E00000
03D00000
03C00000
07C00000
07800000
0B400000
0F401F40
0F003F80
1F002E00
2E000000
2D000000
3D000000
3C000000
78000000
B8000000
B4000000
FFFFFD00
FFFFFC00
ENDCHAR
STARTCHAR ldot
ENCODING 320
SWIDTH 600 0
DWIDTH 17 0
BBX 15 20 3 0
BITMAP
BFF80000
FFF80000
00B40000
00F40000
00F00000
01E00000
02E00000
02D00000
03C002E0
03C007F4
078002E0
0B400000
0B400000
0F000000
1E000000
1E000000
2E000000
1F414000
0FFF8000
02FA0000
ENDCHAR
STARTCHAR Lslash
ENCODING 321
SWIDTH 600 0
DWIDTH 17 0
BBX 14 18 1 0
BITMAP
002E0000
003D0000
003C0000
007C0000
00780000
00B40100
00F41B40
00F1BD00
01FBD000
02F90000
1FE00000
BBD00000
53C00000
07800000
0B800000
0B400000
0FFFFFD0
0FFFFFC0
ENDCHAR
STARTCHAR lslash
ENCODING 322
SWIDTH 600 0
DWIDTH 17 0
BBX 12 20 3 0
BITMAP
2FFF00
3FFE00
002D00
003D00
003C00
007808
0078BD
00BFD0
00FD00
07F000
BEE000
E2D000
02D000
03C000
078000
078000
0B8000
07D050
03FFE0
00BE80
ENDCHAR
STARTCHAR Nacute
ENCODING 323
SWIDTH 600 0
DWIDTH 17 0
BBX 17 24 0 0
BITMAP
0000006000
000002F400
00001F9000
0000190000
0000000000
0000000000
00B8000B40
00FC000F00
00FD001F00
01EE001E00
02DB002D00
02CB403D00
03C7803C00
03C3C07800
0782D07800
0B41E0B400
0B40F0B400
0F00B4F000
1F0078E000
1E003DE000
2D002ED000
2D001FD000
3C000FC000
7C000B8000
ENDCHAR
STARTCHAR nacute
ENCODING 324
SWIDTH 600 0
DWIDTH 17 0
BBX 14 22 1 0
BITMAP
00000180
000007D0
00001F80
00007E00
0001F400
00009000
00000000
00000000
0741BE40
0B4BFFD0
0B7D07E0
0FE001E0
0F8001E0
1F0002E0
2E0002D0
2D0003D0
3D0003C0
3C000780
7C000B80
B8000B40
B4000F40
F4000F00
ENDCHAR
STARTCHAR uni0145
ENCODING 325
SWIDTH 600 0
DWIDTH 17 0
BBX 17 25 0 -7
BITMAP
00B8000B40
00FC000F00
00FD001F00
01EE001E00
02DB002D00
02CB403D00
03C7803C00
03C3C07800
0782D07800
0B41E0B400
0B40F0B400
0F00B4F000
1F0078E000
1E003DE000
2D002ED000
2D001FD000
3C000FC000
7C000B8000
0000000000
0029000000
003F400000
000B400000
001B400000
02FE000000
02E4000000
ENDCHAR
STARTCHAR uni0146
ENCODING 326
SWIDTH 600 0
DWIDTH 17 0
BBX 14 21 1 -7
BITMAP
0741BE40
0B4BFFD0
0B7D07E0
0FE001E0
0F8001E0
1F0002E0
2E0002D0
2D0003D0
3D0003C0
3C000780
7C000B80
B8000B40
B4000F40
F4000F00
00000000
00780000
00BE0000
001E0000
006D0000
07F80000
07900000
ENDCHAR
STARTCHAR Ncaron
ENCODING 327
SWIDTH 600 0
DWIDTH 17 0
BBX 17 24 0 0
BITMAP
0002801900
0001E07800
0000BAE000
00002F8000
0000000000
0000000000
00B8000B40
00FC000F00
00FD001F00
01EE001E00
02DB002D00
02CB403D00
03C7803C00
03C3C07800
0782D07800
0B41E0B400
0B40F0B400
0F00B4F000
1F0078E000
1E003DE000
2D002ED000
2D001FD000
3C000FC000
7C000B8000
ENDCHAR
STARTCHAR ncaron
ENCODING 328
SWIDTH 600 0
DWIDTH 17 0
BBX 14 21 1 0
BITMAP
00090060
000F01E0
00078780
0002EF00
0000FC00
00000000
00000000
0741BE40
0B4BFFD0
0B7D07E0
0FE001E0
0F8001E0
1F0002E0
2E0002D0
2D0003D0
3D0003C0
3C000780
7C000B80
B8000B40
B4000F40
F4000F00
ENDCHAR
STARTCHAR napostrophe
ENCODING 329
SWIDTH 600 0
DWIDTH 17 0
BBX 17 19 0 0
BITMAP
07D0000000
1FF0000000
1FF0000000
0BF0000000
01E0000000
03D741BE00
0B4B5FFF80
7D0B790BC0
E00FE007C0
001F4007C0
001E000780
002E000B80
002D000B40
003D000F40
007C000F00
0078001E00
00B8002E00
00B4002D00
00F4003D00
ENDCHAR
STARTCHAR Eng
ENCODING 330
SWIDTH 600 0
DWIDTH 17 0
BBX 16 18 0 0
BITMAP
00F46F90
00F7FFF4
01FE41FC
02F4007D
02E0002D
03D0002E
03C0002E
07C0002E
0B80002D
0B40003D
0F40007C
0F000078
1F0000B8
2E0001F0
2D0003E0
3D001BC0
3C03FF40
7802F800
ENDCHAR
STARTCHAR eng
ENCODING 331
SWIDTH 600 0
DWIDTH 17 0
BBX 14 20 1 -6
BITMAP
0741BE40
0B4BFFD0
0B7D07E0
0FE001E0
0F8001E0
1F0002E0
2E0002D0
2D0003D0
3D0003C0
3C0007C0
7C000780
B8000B80
B4000F40
F4000F00
00001F00
00001E00
00002D00
00007C00
000FF800
001BE000
ENDCHAR
STARTCHAR Omacron
ENCODING 332
SWIDTH 600 0
DWIDTH 17 0
BBX 15 22 1 0
BITMAP
000BFFE0
000BFFD0
00000000
00000000
000AF900
007FFF80
02F907E0
07D001F4
0F4000B8
2E0000B8
3D00007C
7C000078
B8000078
B40000B8
B40000F4
F40001F0
B80002E0
B80007C0
7D001F40
2F41BE00
0BFFF400
01BE8000
ENDCHAR
STARTCHAR omacron
ENCODING 333
SWIDTH 600 0
DWIDTH 17 0
BBX 14 19 1 0
BITMAP
001FFF80
001FFF80
00000000
00000000
00000000
001BF800
01FFFF40
07E41FC0
1F4003D0
3E0002E0
7C0001E0
B80001E0
B80002E0
B80003D0
B80007C0
7D001F40
2F41BE00
0FFFF400
02BE8000
ENDCHAR
STARTCHAR Obreve
ENCODING 334
SWIDTH 600 0
DWIDTH 17 0
BBX 15 23 1 0
BITMAP
000A0070
000B41D0
0002FE40
00000000
00000000
000AF900
007FFF80
02F907E0
07D001F4
0F4000B8
2E0000B8
3D00007C
7C000078
B8000078
B40000B8
B40000F4
F40001F0
B80002E0
B80007C0
7D001F40
2F41BE00
0BFFF400
01BE8000
ENDCHAR
STARTCHAR obreve
ENCODING 335
SWIDTH 600 0
DWIDTH 17 0
BBX 14 21 1 0
BITMAP
002C00B0
002C01E0
001E07C0
000FFF40
0006F900
00000000
00000000
001BF800
01FFFF40
07E41FC0
1F4003D0
3E0002E0
7C0001E0
B80001E0
B80002E0
B80003D0
B80007C0
7D001F40
2F41BE00
0FFFF400
02BE8000
ENDCHAR
STARTCHAR Ohungarumlaut
ENCODING 336
SWIDTH 600 0
DWIDTH 17 0
BBX 16 25 1 0
BITMAP
00001809
00003D2E
0000B478
0002D0E0
00024180
00000000
00000000
000AF900
007FFF80
02F907E0
07D001F4
0F4000B8
2E0000B8
3D00007C
7C000078
B8000078
B40000B8
B40000F4
F40001F0
B80002E0
B80007C0
7D001F40
2F41BE00
0BFFF400
01BE8000
ENDCHAR
STARTCHAR ohungarumlaut
ENCODING 337
SWIDTH 600 0
DWIDTH 17 0
BBX 15 21 1 0
BITMAP
00002428
0000B878
0001E0F0
000382C0
00060240
00000000
00000000
001BF800
01FFFF40
07E41FC0
1F4003D0
3E0002E0
7C0001E0
B80001E0
B80002E0
B80003D0
B80007C0
7D001F40
2F41BE00
0FFFF400
02BE8000
ENDCHAR
STARTCHAR OE
ENCODING 338
SWIDTH 600 0
DWIDTH 17 0
BBX 18 18 0 0
BITMAP
0001BFFFF0
002FFFFFF0
00BE4B4000
02F40F0000
07C00E0000
0F401D0000
1F002D0000
2E002FFD00
3D003FFC00
3C00780000
7C00740000
7C00B40000
7C00B00000
3D00F00000
2E01E00000
1F91E00000
07FFFFFC00
01BFFFFC00
ENDCHAR
STARTCHAR oe
ENCODING 339
SWIDTH 600 0
DWIDTH 17 0
BBX 18 14 -1 0
BITMAP
006F806F40
01FFE2FFC0
07D0F782E0
0F407E00E0
1E003D00E0
2D003800E0
3C003FFFE0
3C007FFFD0
7800B40000
7800F00000
3C02F40000
3E0BBD0600
1FFE2FFF00
07F40BF800
ENDCHAR
STARTCHAR Racute
ENCODING 340
SWIDTH 600 0
DWIDTH 17 0
BBX 15 24 1 0
BITMAP
00000180
00000BD0
00007E00
00006400
00000000
00000000
01FFFA40
02FFFFD0
03D006F0
03C000F4
07C000F4
078000F4
0B4002E0
0F401BD0
0FFFFF40
1FFFE400
1E03D000
2D02E000
3D01F000
3C00F400
78007C00
B8003D00
B4002E00
F4001F00
ENDCHAR
STARTCHAR racute
ENCODING 341
SWIDTH 600 0
DWIDTH 17 0
BBX 14 22 2 0
BITMAP
00000240
00000BC0
00002F40
0000BD00
0002F000
00018000
00000000
00000000
02C06F90
03C2FFD0
03CB4040
07A80000
07E00000
0BC00000
0B400000
0F000000
1F000000
1E000000
2D000000
2D000000
3C000000
7C000000
ENDCHAR
STARTCHAR uni0156
ENCODING 342
SWIDTH 600 0
DWIDTH 17 0
BBX 15 25 1 -7
BITMAP
01FFFA40
02FFFFD0
03D006F0
03C000F4
07C000F4
078000F4
0B4002E0
0F401BD0
0FFFFF40
1FFFE400
1E03D000
2D02E000
3D01F000
3C00F400
78007C00
B8003D00
B4002E00
F4001F00
00000000
00780000
00BE0000
001E0000
006E0000
07FC0000
07900000
ENDCHAR
STARTCHAR uni0157
ENCODING 343
SWIDTH 600 0
DWIDTH 17 0
BBX 16 21 0 -7
BITMAP
002C06F9
003C2FFD
003CB404
007A8000
007E0000
00BC0000
00B40000
00F00000
01F00000
01E00000
02D00000
02D00000
03C00000
07C00000
00000000
0A400000
0FD00000
02D00000
06D00000
BF800000
B9000000
ENDCHAR
STARTCHAR Rcaron
ENCODING 344
SWIDTH 600 0
DWIDTH 17 0
BBX 15 24 1 0
BITMAP
000A0064
000782E0
0002EB80
0000FD00
00000000
00000000
01FFFA40
02FFFFD0
03D006F0
03C000F4
07C000F4
078000F4
0B4002E0
0F401BD0
0FFFFF40
1FFFE400
1E03D000
2D02E000
3D01F000
3C00F400
78007C00
B8003D00
B4002E00
F4001F00
ENDCHAR
STARTCHAR rcaron
ENCODING 345
SWIDTH 600 0
DWIDTH 17 0
BBX 14 21 2 0
BITMAP
00180060
001E02E0
000B4B80
0003FE00
0001F800
00000000
00000000
02C06F90
03C2FFD0
03CB4040
07A80000
07E00000
0BC00000
0B400000
0F000000
1F000000
1E000000
2D000000
2D000000
3C000000
7C000000
ENDCHAR
STARTCHAR Sacute
ENCODING 346
SWIDTH 600 0
DWIDTH 17 0
BBX 14 24 1 0
BITMAP
00000180
00001BD0
0000BD00
0000A000
00000000
00000000
001BF900
00BFFF80
01F807E0
03E00090
03D00000
03D00000
02F40000
00BE0000
002FE000
0006F800
00007E00
00001F40
00000B40
10000B40
B8001F40
7E40BE00
1FFFF800
01BF9000
ENDCHAR
STARTCHAR sacute
ENCODING 347
SWIDTH 600 0
DWIDTH 17 0
BBX 13 22 1 0
BITMAP
00000240
00000BC0
00002F40
0000BD00
0002F000
00018000
00000000
00000000
006FE400
02FFFF40
03D01BC0
07800140
07C00000
02F40000
00BF9000
001BF800
00006F00
00000F40
28000F40
7F406F00
1BFFFD00
01BFA000
ENDCHAR
STARTCHAR Scircumflex
ENCODING 348
SWIDTH 600 0
DWIDTH 17 0
BBX 14 24 1 0
BITMAP
0000BD00
0003EF40
001F43C0
00280090
00000000
00000000
001BF900
00BFFF80
01F807E0
03E00090
03D00000
03D00000
02F40000
00BE0000
002FE000
0006F800
00007E00
00001F40
00000B40
10000B40
B8001F40
7E40BE00
1FFFF800
01BF9000
ENDCHAR
STARTCHAR scircumflex
ENCODING 349
SWIDTH 600 0
DWIDTH 17 0
BBX 13 21 1 0
BITMAP
0000FC00
0003EE00
000F4B40
002D03C0
00240180
00000000
00000000
006FE400
02FFFF40
03D01BC0
07800140
07C00000
02F40000
00BF9000
001BF800
00006F00
00000F40
28000F40
7F406F00
1BFFFD00
01BFA000
ENDCHAR
STARTCHAR uni015E
ENCODING 350
SWIDTH 600 0
DWIDTH 17 0
BBX 14 25 1 -7
BITMAP
001BF900
00BFFF80
01F807E0
03E00090
03D00000
03D00000
02F40000
00BE0000
002FE000
0006F800
00007E00
00001F40
00000B40
10000B40
B8001F40
7E40BE00
1FFFF800
01BF9000
00280000
00740000
00F80000
002E0000
001D0000
007C0000
0B900000
ENDCHAR
STARTCHAR uni015F
ENCODING 351
SWIDTH 600 0
DWIDTH 17 0
BBX 13 21 1 -7
BITMAP
006FE400
02FFFF40
03D01BC0
07800140
07C00000
02F40000
00BF9000
001BF800
00006F00
00000F40
28000F40
7F406F00
1BFFFD00
01BFA000
002C0000
00740000
00B80000
002E0000
001D0000
007C0000
07900000
ENDCHAR
STARTCHAR Scaron
ENCODING 352
SWIDTH 600 0
DWIDTH 17 0
BBX 14 24 1 0
BITMAP
00090060
000B42D0
0003EF40
0001FD00
00000000
00000000
001BF900
00BFFF80
01F807E0
03E00090
03D00000
03D00000
02F40000
00BE0000
002FE000
0006F800
00007E00
00001F40
00000B40
10000B40
B8001F40
7E40BE00
1FFFF800
01BF9000
ENDCHAR
STARTCHAR scaron
ENCODING 353
SWIDTH 600 0
DWIDTH 17 0
BBX 14 21 1 0
BITMAP
00180060
001E02E0
000B4B80
0003FE00
0001F800
00000000
00000000
006FE400
02FFFF40
03D01BC0
07800140
07C00000
02F40000
00BF9000
001BF800
00006F00
00000F40
28000F40
7F406F00
1BFFFD00
01BFA000
ENDCHAR
STARTCHAR uni0162
ENCODING 354
SWIDTH 600 0
DWIDTH 17 0
BBX 15 25 3 -7
BITMAP
FFFFFFF4
FFFFFFF4
001F0000
001E0000
002D0000
003D0000
003C0000
007C0000
00780000
00B40000
00F40000
00F00000
01F00000
02E00000
02D00000
03D00000
03C00000
07C00000
07400000
0A000000
1F400000
07C00000
03C00000
1B400000
E9000000
ENDCHAR
STARTCHAR uni0163
ENCODING 355
SWIDTH 600 0
DWIDTH 17 0
BBX 13 25 2 -7
BITMAP
002D0000
002C0000
003C0000
00780000
BFFFFFC0
FFFFFFC0
00F00000
01E00000
02E00000
02D00000
03D00000
03C00000
07800000
07800000
07800000
07E01800
02FFFD00
00BFA000
001D0000
00380000
00BD0000
001F0000
000E0000
006D0000
07A00000
ENDCHAR
STARTCHAR Tcaron
ENCODING 356
SWIDTH 600 0
DWIDTH 17 0
BBX 15 24 3 0
BITMAP
00A00640
00781E00
002EB800
000BE000
00000000
00000000
FFFFFFF4
FFFFFFF4
001F0000
001E0000
002D0000
003D0000
003C0000
007C0000
00780000
00B40000
00F40000
00F00000
01F00000
02E00000
02D00000
03D00000
03C00000
07C00000
ENDCHAR
STARTCHAR tcaron
ENCODING 357
SWIDTH 600 0
DWIDTH 17 0
BBX 14 23 2 0
BITMAP
000002D0
000003C0
00000380
00000740
00000740
002D0B00
002C0E00
003C0D00
00780000
BFFFFFC0
FFFFFFC0
00F00000
01E00000
02E00000
02D00000
03D00000
03C00000
07800000
07800000
07800000
07E01800
02FFFD00
00BFA000
ENDCHAR
STARTCHAR Tbar
ENCODING 358
SWIDTH 600 0
DWIDTH 17 0
BBX 15 18 3 0
BITMAP
FFFFFFF4
FFFFFFF4
001F0000
002E0000
002D0000
003D0000
007C0000
3FFFF800
7FFFF400
00B40000
00F40000
00F00000
01F00000
02E00000
02D00000
03D00000
03C00000
07C00000
ENDCHAR
STARTCHAR tbar
ENCODING 359
SWIDTH 600 0
DWIDTH 17 0
BBX 14 18 1 0
BITMAP
000B4000
000B0000
000F0000
001E0000
2FFFFFF0
3FFFFFF0
003C0000
00780000
00B40000
BFFFFF80
FFFFFF40
01F00000
01E00000
02E00000
01F00000
01F80600
00BFFF40
002FE800
ENDCHAR
STARTCHAR Utilde
ENCODING 360
SWIDTH 600 0
DWIDTH 17 0
BBX 16 25 1 0
BITMAP
00014000
000BF02C
001FBC78
002C2FF4
00240BD0
00000000
00000000
03D0002D
03C0003C
07C0007C
0B800078
0B4000B8
0F4000B4
1F0000F0
1E0001F0
2E0001E0
2D0002E0
3D0003D0
3C0003C0
7C000780
3C000F40
3E001F00
2F80BD00
0BFFF400
01BF9000
ENDCHAR
STARTCHAR utilde
ENCODING 361
SWIDTH 600 0
DWIDTH 17 0
BBX 15 21 1 0
BITMAP
00014010
001FD074
0039B4B0
00743FE0
00601F80
00000000
00000000
0B8000F4
0B4000F0
0F0001F0
1F0001E0
1E0002E0
2E0003D0
2D0003C0
3C0007C0
7C000780
78001F80
7C007F40
7D06DB00
3FFF4F00
0BE40E00
ENDCHAR
STARTCHAR Umacron
ENCODING 362
SWIDTH 600 0
DWIDTH 17 0
BBX 16 22 1 0
BITMAP
000BFFE0
000BFFD0
00000000
00000000
03D0002D
03C0003C
07C0007C
0B800078
0B4000B8
0F4000B4
1F0000F0
1E0001F0
2E0001E0
2D0002E0
3D0003D0
3C0003C0
7C000780
3C000F40
3E001F00
2F80BD00
0BFFF400
01BF9000
ENDCHAR
STARTCHAR umacron
ENCODING 363
SWIDTH 600 0
DWIDTH 17 0
BBX 15 19 1 0
BITMAP
001FFF80
001FFF80
00000000
00000000
00000000
0B8000F4
0B4000F0
0F0001F0
1F0001E0
1E0002E0
2E0003D0
2D0003C0
3C0007C0
7C000780
78001F80
7C007F40
7D06DB00
3FFF4F00
0BE40E00
ENDCHAR
STARTCHAR Ubreve
ENCODING 364
SWIDTH 600 0
DWIDTH 17 0
BBX 16 23 1 0
BITMAP
000A0070
000B41D0
0002FE40
00000000
00000000
03D0002D
03C0003C
07C0007C
0B800078
0B4000B8
0F4000B4
1F0000F0
1E0001F0
2E0001E0
2D0002E0
3D0003D0
3C0003C0
7C000780
3C000F40
3E001F00
2F80BD00
0BFFF400
01BF9000
ENDCHAR
STARTCHAR ubreve
ENCODING 365
SWIDTH 600 0
DWIDTH 17 0
BBX 15 21 1 0
BITMAP
002800B0
002C01E0
001E07C0
000FFF40
0006F900
00000000
00000000
0B8000F4
0B4000F0
0F0001F0
1F0001E0
1E0002E0
2E0003D0
2D0003C0
3C0007C0
7C000780
78001F80
7C007F40
7D06DB00
3FFF4F00
0BE40E00
ENDCHAR
STARTCHAR Uring
ENCODING 366
SWIDTH 600 0
DWIDTH 17 0
BBX 16 25 1 0
BITMAP
00006E00
0001D280
00028280
0001C740
0000BD00
00000000
00000000
03D0002D
03C0003C
07C0007C
0B800078
0B4000B8
0F4000B4
1F0000F0
1E0001F0
2E0001E0
2D0002E0
3D0003D0
3C0003C0
7C000780
3C000F40
3E001F00
2F80BD00
0BFFF400
01BF9000
ENDCHAR
STARTCHAR uring
ENCODING 367
SWIDTH 600 0
DWIDTH 17 0
BBX 15 21 1 0
BITMAP
0001BD00
00074700
000A0740
000B0A00
0002F800
00000000
00000000
0B8000F4
0B4000F0
0F0001F0
1F0001E0
1E0002E0
2E0003D0
2D0003C0
3C0007C0
7C000780
78001F80
7C007F40
7D06DB00
3FFF4F00
0BE40E00
ENDCHAR
STARTCHAR Uhungarumlaut
ENCODING 368
SWIDTH 600 0
DWIDTH 17 0
BBX 16 25 1 0
BITMAP
00001809
00003D2E
0000B478
0002D0E0
00024180
00000000
00000000
03D0002D
03C0003C
07C0007C
0B800078
0B4000B8
0F4000B4
1F0000F0
1E0001F0
2E0001E0
2D0002E0
3D0003D0
3C0003C0
7C000780
3C000F40
3E001F00
2F80BD00
0BFFF400
01BF9000
ENDCHAR
STARTCHAR uhungarumlaut
ENCODING 369
SWIDTH 600 0
DWIDTH 17 0
BBX 15 21 1 0
BITMAP
00002428
0000B878
0001E0F0
000382C0
00060640
00000000
00000000
0B8000F4
0B4000F0
0F0001F0
1F0001E0
1E0002E0
2E0003D0
2D0003C0
3C0007C0
7C000780
78001F80
7C007F40
7D06DB00
3FFF4F00
0BE40E00
ENDCHAR
STARTCHAR Uogonek
ENCODING 370
SWIDTH 600 0
DWIDTH 17 0
BBX 16 25 1 -7
BITMAP
03D0002D
03C0003C
07C0003C
0B800078
0B4000B8
0F4000B4
0F0000F0
1F0000F0
2E0001E0
2D0002E0
3D0002D0
3C0003C0
7C000780
3C000B40
3D000F00
2E002D00
0B95B800
01FF9000
00B80000
01D00000
03400000
07400000
0B840000
07FD0000
02F80000
ENDCHAR
STARTCHAR uogonek
ENCODING 371
SWIDTH 600 0
DWIDTH 17 0
BBX 15 21 1 -7
BITMAP
0B8000F4
0B4000F0
0F0001F0
1F0001E0
1E0002E0
2E0003D0
2D0003C0
3C0007C0
7C000780
78001F80
7C007F40
7D06DB00
3FFF4F00
0BE40E00
00002900
0000D000
00028000
00074000
00078000
0007FE00
0002F800
ENDCHAR
STARTCHAR Wcircumflex
ENCODING 372
SWIDTH 600 0
DWIDTH 17 0
BBX 17 24 1 0
BITMAP
0000BE0000
0002EB4000
000B42D000
0018009000
0000000000
0000000000
1E00000780
1E00000B40
2E00000F40
2D00000F00
2D00001E00
2D03D02D00
2D07D03C00
3C0AD07800
3C1DD0B400
3C2CE0F000
3C38E1E000
38B0E2D000
38E0A3C000
79D0B38000
7BC0B74000
7B40BB0000
7F00BE0000
7E007D0000
ENDCHAR
STARTCHAR wcircumflex
ENCODING 373
SWIDTH 600 0
DWIDTH 17 0
BBX 17 21 1 0
BITMAP
0001FC0000
0007FE0000
001F4F0000
007D078000
0060018000
0000000000
0000000000
B401400F40
B407D01E00
B40BD02D00
B40ED03C00
B41DD07800
B43DD0B400
B478E1E000
B4B0E2D000
B4E0E3C000
76D0E78000
77C0EB0000
7B40EE0000
7F00FD0000
7E00FC0000
ENDCHAR
STARTCHAR Ycircumflex
ENCODING 374
SWIDTH 600 0
DWIDTH 17 0
BBX 15 24 3 0
BITMAP
000BD000
003EF400
01F43C00
02800900
00000000
00000000
B40000F4
780002D0
3C000B80
3D001F00
2E003D00
1F00B800
0F41F000
0B83D000
07CB8000
03DF0000
02FD0000
01F40000
01F00000
01E00000
02D00000
03D00000
03C00000
07C00000
ENDCHAR
STARTCHAR ycircumflex
ENCODING 375
SWIDTH 600 0
DWIDTH 17 0
BBX 17 27 -1 -6
BITMAP
00001FC000
00007FE000
0001F4F000
0007D07800
0006001800
0000000000
0000000000
01E00007C0
01F0000B40
00F0001E00
00B4003D00
007800B800
007800F000
003C02D000
002D078000
002D0F4000
001E1E0000
000E3C0000
000B740000
000BE00000
0007D00000
0007800000
001F000000
003D000000
41F8000000
FFE0000000
BE40000000
ENDCHAR
STARTCHAR Ydieresis
ENCODING 376
SWIDTH 600 0
DWIDTH 17 0
BBX 15 23 3 0
BITMAP
00B02D00
01F43D00
00E02C00
00000000
00000000
B40000F4
780002D0
3C000B80
3D001F00
2E003D00
1F00B800
0F41F000
0B83D000
07CB8000
03DF0000
02FD0000
01F40000
01F00000
01E00000
02D00000
03D00000
03C00000
07C00000
ENDCHAR
STARTCHAR Zacute
ENCODING 377
SWIDTH 600 0
DWIDTH 17 0
BBX 17 24 0 0
BITMAP
0000006000
000006F400
00002F8000
0000280000
0000000000
0000000000
01FFFFFF40
01FFFFFF00
0000007D00
000001F400
000003E000
00000B8000
00002E0000
0000BC0000
0001F40000
0007D00000
001F400000
003E000000
00B8000000
02E0000000
0BC0000000
1F40000000
7FFFFFF000
7FFFFFE000
ENDCHAR
STARTCHAR zacute
ENCODING 378
SWIDTH 600 0
DWIDTH 17 0
BBX 14 22 1 0
BITMAP
00000240
00000BC0
00002F40
0000BD00
0002E000
00018000
00000000
00000000
0BFFFFF0
0BFFFFE0
00000B80
00002E00
0000B800
0002E000
000B8000
002E0000
00B80000
02E00000
0B800000
2E000000
BFFFFF40
FFFFFF00
ENDCHAR
STARTCHAR Zdotaccent
ENCODING 379
SWIDTH 600 0
DWIDTH 17 0
BBX 17 23 0 0
BITMAP
00001E0000
00002F0000
00002E0000
0000000000
0000000000
01FFFFFF40
01FFFFFF00
0000007D00
000001F400
000003E000
00000B8000
00002E0000
0000BC0000
0001F40000
0007D00000
001F400000
003E000000
00B8000000
02E0000000
0BC0000000
1F40000000
7FFFFFF000
7FFFFFE000
ENDCHAR
STARTCHAR zdotaccent
ENCODING 380
SWIDTH 600 0
DWIDTH 17 0
BBX 14 20 1 0
BITMAP
0000B800
0002FC00
0001F400
00000000
00000000
00000000
0BFFFFF0
0BFFFFE0
00000B80
00002E00
0000B800
0002E000
000B8000
002E0000
00B80000
02E00000
0B800000
2E000000
BFFFFF40
FFFFFF00
ENDCHAR
STARTCHAR Zcaron
ENCODING 381
SWIDTH 600 0
DWIDTH 17 0
BBX 17 24 0 0
BITMAP
0002401800
0002D0B400
0000FBD000
00007F4000
0000000000
0000000000
01FFFFFF40
01FFFFFF00
0000007D00
000001F400
000003E000
00000B8000
00002E0000
0000BC0000
0001F40000
0007D00000
001F400000
003E000000
00B8000000
02E0000000
0BC0000000
1F40000000
7FFFFFF000
7FFFFFE000
ENDCHAR
STARTCHAR zcaron
ENCODING 382
SWIDTH 600 0
DWIDTH 17 0
BBX 14 21 1 0
BITMAP
00180090
001D02D0
000B4B40
0007FD00
0002F800
00000000
00000000
0BFFFFF0
0BFFFFE0
00000B80
00002E00
0000B800
0002E000
000B8000
002E0000
00B80000
02E00000
0B800000
2E000000
BFFFFF40
FFFFFF00
ENDCHAR
STARTCHAR longs
ENCODING 383
SWIDTH 600 0
DWIDTH 17 0
BBX 15 20 3 0
BITMAP
0001BF90
000BFFF4
001F9060
003E0000
007D0000
007C0000
7FF80000
BFF40000
00F40000
00F00000
01F00000
02E00000
02D00000
03D00000
03C00000
07800000
0B800000
0B400000
0F400000
0F000000
ENDCHAR
STARTCHAR uni0180
ENCODING 384
SWIDTH 600 0
DWIDTH 17 0
BBX 14 20 1 0
BITMAP
00F00000
01E00000
2FFFFE00
2FFFFD00
03D00000
03C00000
0786FE00
0B6FFF80
0BF90BD0
0F8002E0
0F0001F0
1E0001F0
2E0001F0
2D0001E0
3C0002E0
3C0007C0
7D001F80
7F41BE00
B7FFF800
F0BF9000
ENDCHAR
STARTCHAR uni018A
ENCODING 394
SWIDTH 600 0
DWIDTH 17 0
BBX 16 18 1 0
BITMAP
002BF900
02FFFFD0
0B9B47F0
2E0F40F8
3C0F007C
B41E003D
B02E003D
F02D003D
F03C003D
B87C003C
3C78007C
04B400B8
00F401F0
00F003E0
01E01F80
01E1BE00
02FFF800
03FE4000
ENDCHAR
STARTCHAR uni018F
ENCODING 399
SWIDTH 600 0
DWIDTH 17 0
BBX 15 18 1 0
BITMAP
0006FE00
007FFFD0
01F907F0
008001F4
000000B8
000000B8
00000078
00000078
00000078
3FFFFFF4
7FFFFFF4
780000F0
780001E0
780003C0
3C001F40
2E41BD00
1FFFF400
02FE4000
ENDCHAR
STARTCHAR uni0192
ENCODING 402
SWIDTH 600 0
DWIDTH 17 0
BBX 18 21 -1 -3
BITMAP
0000006F80
000002FFE0
000007D050
00000F4000
00001F0000
00002D0000
000FFFFC00
001FFFFC00
0000B80000
0000F40000
0000F00000
0001E00000
0002D00000
0003C00000
0007800000
000B400000
000F000000
002E000000
107D000000
BFF4000000
6F90000000
ENDCHAR
STARTCHAR uni0193
ENCODING 403
SWIDTH 600 0
DWIDTH 17 0
BBX 18 23 1 0
BITMAP
0000000B90
0000002FC0
0000007800
0000007400
000000B400
0001BFB400
002FFFF800
00BE41BC00
02F4002400
07D0000000
0F40000000
1F00000000
2E00000000
3D00BFF000
7C00FFF000
7C0001E000
7C0001E000
7C0002D000
3D0003C000
2F0003C000
0FD01F8000
07FFFF4000
006FE40000
ENDCHAR
STARTCHAR Ohorn
ENCODING 416
SWIDTH 600 0
DWIDTH 17 0
BBX 17 22 1 0
BITMAP
0000000280
0000000380
0000000380
0000000B40
000AF96E00
007FFFE400
02F907E000
07D001F400
0F4000B800
2E0000B800
3D00007C00
7C00007C00
B800007800
B40000B800
B40000F400
F40001F000
B80002E000
B80007D000
7D001F8000
2F41BE0000
0BFFF80000
01BF800000
ENDCHAR
STARTCHAR ohorn
ENCODING 417
SWIDTH 600 0
DWIDTH 17 0
BBX 16 18 1 0
BITMAP
00000009
0000001E
0000001E
0000002D
001BFAF4
01FFFF90
07E41F80
1F4003D0
3E0002E0
7C0001E0
B80001E0
B80002E0
B80003D0
B80007C0
7D001F40
2F41BE00
0FFFF400
02BE8000
ENDCHAR
STARTCHAR Uhorn
ENCODING 431
SWIDTH 600 0
DWIDTH 17 0
BBX 19 23 1 0
BITMAP
0000000028
000000003C
000000003C
0000000078
00000001F0
03D0002F80
03C0003C00
07C0007C00
0B80007800
0B4000B800
0F4000B400
1F0000F400
1E0001F000
2E0001E000
2D0002E000
3D0003D000
3C0003D000
7C0007C000
3C000F8000
3E001F4000
2F80BE0000
0BFFF80000
01BF900000
ENDCHAR
STARTCHAR uhorn
ENCODING 432
SWIDTH 600 0
DWIDTH 17 0
BBX 18 19 1 0
BITMAP
0000000190
00000001D0
00000002D0
00000002C0
0000000B40
0B8000FD00
0B4000F000
0F0001F000
1F0001E000
1E0002D000
2E0003D000
2D0003C000
3C0007C000
7C00078000
78001F8000
7C007F4000
7D06DB0000
3FFF4F0000
0BE40E0000
ENDCHAR
STARTCHAR uni01C2
ENCODING 450
SWIDTH 600 0
DWIDTH 17 0
BBX 14 26 1 -6
BITMAP
00007800
0000B800
0000B400
0000F000
0001F000
0001E000
0002D000
0003D000
0003C000
0FFFFFE0
1FFFFFD0
000B8000
000F4000
000F0000
3FFFFF80
7FFFFF40
002D0000
002D0000
003C0000
007C0000
00780000
00B40000
00F40000
00F00000
01E00000
02E00000
ENDCHAR
STARTCHAR uni01CD
ENCODING 461
SWIDTH 600 0
DWIDTH 17 0
BBX 17 24 -1 0
BITMAP
0000A00640
0000781E00
00002EB800
00000BE000
0000000000
0000000000
00000FC000
00002FC000
00003AC000
0000B6D000
0001E1D000
0002D1E000
000781E000
000B41E000
001E00F000
003D00F000
007800F000
00FFFFF400
02FFFFF400
03D000B800
0B8000B800
1F40007800
2E00007C00
7C00007C00
ENDCHAR
STARTCHAR uni01CE
ENCODING 462
SWIDTH 600 0
DWIDTH 17 0
BBX 15 21 1 0
BITMAP
00090020
000F01F0
000787C0
0002EF00
0000FC00
00000000
00000000
001BE474
01FFFEB4
07F41BF0
0F8002E0
2F0001E0
3D0002D0
7C0003D0
780003C0
B80007C0
B8000B80
7C002F40
3F41BF40
1FFFDF00
06F90F00
ENDCHAR
STARTCHAR uni01CF
ENCODING 463
SWIDTH 600 0
DWIDTH 17 0
BBX 15 24 1 0
BITMAP
000A0064
000781E0
0002EB80
0000BE00
00000000
00000000
01FFFFFC
02FFFFF8
0001F000
0001E000
0002E000
0003D000
0003C000
0007C000
000B8000
000B4000
000F4000
000F0000
001E0000
002E0000
002D0000
003D0000
BFFFFE00
FFFFFD00
ENDCHAR
STARTCHAR uni01D0
ENCODING 464
SWIDTH 600 0
DWIDTH 17 0
BBX 11 21 3 0
BITMAP
024008
02C07C
01E1F0
00BBD0
003F40
000000
000000
BFFD00
FFFC00
007800
007800
00B400
00F000
00F000
01E000
02D000
02D000
03D000
03E060
01FFF4
006F90
ENDCHAR
STARTCHAR uni01D1
ENCODING 465
SWIDTH 600 0
DWIDTH 17 0
BBX 15 24 1 0
BITMAP
000A0064
000781E0
0002EB80
0000BE00
00000000
00000000
000AF900
007FFF80
02F907E0
07D001F4
0F4000B8
2E0000B8
3D00007C
7C000078
B8000078
B40000B8
B40000F4
F40001F0
B80002E0
B80007C0
7D001F40
2F41BE00
0BFFF400
01BE8000
ENDCHAR
STARTCHAR uni01D2
ENCODING 466
SWIDTH 600 0
DWIDTH 17 0
BBX 14 21 1 0
BITMAP
00180060
001E02E0
000B4B80
0003FE00
0001F800
00000000
00000000
001BF800
01FFFF40
07E41FC0
1F4003D0
3E0002E0
7C0001E0
B80001E0
B80002E0
B80003D0
B80007C0
7D001F40
2F41BE00
0FFFF400
02BE8000
ENDCHAR
STARTCHAR uni01D3
ENCODING 467
SWIDTH 600 0
DWIDTH 17 0
BBX 16 24 1 0
BITMAP
000A0064
000781E0
0002EB80
0000BE00
00000000
00000000
03D0002D
03C0003C
07C0007C
0B800078
0B4000B8
0F4000B4
1F0000F0
1E0001F0
2E0001E0
2D0002E0
3D0003D0
3C0003C0
7C000780
3C000F40
3E001F00
2F80BD00
0BFFF400
01BF9000
ENDCHAR
STARTCHAR uni01D4
ENCODING 468
SWIDTH 600 0
DWIDTH 17 0
BBX 15 21 1 0
BITMAP
00180060
001E02D0
000B4B80
0003FE00
0002F800
00000000
00000000
0B8000F4
0B4000F0
0F0001F0
1F0001E0
1E0002E0
2E0003D0
2D0003C0
3C0007C0
7C000780
78001F80
7C007F40
7D06DB00
3FFF4F00
0BE40E00
ENDCHAR
STARTCHAR uni01D5
ENCODING 469
SWIDTH 600 0
DWIDTH 17 0
BBX 16 25 1 0
BITMAP
0003FFF0
00000000
00000000
000B41D0
000B02D0
00000000
00000000
03D0002D
03C0003C
07C0007C
0B800078
0B4000B8
0F4000B4
1F0000F0
1E0001F0
2E0001E0
2D0002E0
3D0003D0
3C0003C0
7C000780
3C000F40
3E001F00
2F80BD00
0BFFF400
01BF9000
ENDCHAR
STARTCHAR uni01D6
ENCODING 470
SWIDTH 600 0
DWIDTH 17 0
BBX 15 22 1 0
BITMAP
000BFFE0
00000000
00000000
001E0380
001D0780
00000000
00000000
00000000
0B8000F4
0B4000F0
0F0001F0
1F0001E0
1E0002E0
2E0003D0
2D0003C0
3C0007C0
7C000780
78001F80
7C007F40
7D06DB00
3FFF4F00
0BE40E00
ENDCHAR
STARTCHAR uni01D7
ENCODING 471
SWIDTH 600 0
DWIDTH 17 0
BBX 16 27 1 0
BITMAP
00000180
000007D0
00001F40
00001800
00000000
000B41D0
000B02D0
00000000
00000000
03D0002D
03C0003C
07C0007C
0B800078
0B4000B8
0F4000B4
1F0000F0
1E0001F0
2E0001E0
2D0002E0
3D0003D0
3C0003C0
7C000780
3C000F40
3E001F00
2F80BD00
0BFFF400
01BF9000
ENDCHAR
STARTCHAR uni01D8
ENCODING 472
SWIDTH 600 0
DWIDTH 17 0
BBX 15 24 1 0
BITMAP
00000240
00000B40
00002D00
00002400
00000000
001E0380
001D0780
00000000
00000000
00000000
0B8000F4
0B4000F0
0F0001F0
1F0001E0
1E0002E0
2E0003D0
2D0003C0
3C0007C0
7C000780
78001F80
7C007F40
7D06DB00
3FFF4F00
0BE40E00
ENDCHAR
STARTCHAR uni01D9
ENCODING 473
SWIDTH 600 0
DWIDTH 17 0
BBX 16 27 1 0
BITMAP
00028060
0001E6D0
00007E00
00000000
00000000
000B41D0
000B02D0
00000000
00000000
03D0002D
03C0003C
07C0007C
0B800078
0B4000B8
0F4000B4
1F0000F0
1E0001F0
2E0001E0
2D0002E0
3D0003D0
3C0003C0
7C000780
3C000F40
3E001F00
2F80BD00
0BFFF400
01BF9000
ENDCHAR
STARTCHAR uni01DA
ENCODING 474
SWIDTH 600 0
DWIDTH 17 0
BBX 15 23 1 0
BITMAP
000600A0
0002DB80
0000BD00
00000000
001E0380
001D0780
00000000
00000000
00000000
0B8000F4
0B4000F0
0F0001F0
1F0001E0
1E0002E0
2E0003D0
2D0003C0
3C0007C0
7C000780
78001F80
7C007F40
7D06DB00
3FFF4F00
0BE40E00
ENDCHAR
STARTCHAR uni01DB
ENCODING 475
SWIDTH 600 0
DWIDTH 17 0
BBX 16 27 1 0
BITMAP
0000A000
0000B000
00003800
00001800
00000000
000B41D0
000B02D0
00000000
00000000
03D0002D
03C0003C
07C0007C
0B800078
0B4000B8
0F4000B4
1F0000F0
1E0001F0
2E0001E0
2D0002E0
3D0003D0
3C0003C0
7C000780
3C000F40
3E001F00
2F80BD00
0BFFF400
01BF9000
ENDCHAR
STARTCHAR uni01DC
ENCODING 476
SWIDTH 600 0
DWIDTH 17 0
BBX 15 24 1 0
BITMAP
00009000
0000E000
00007400
00002400
00000000
001E0380
001D0780
00000000
00000000
00000000
0B8000F4
0B4000F0
0F0001F0
1F0001E0
1E0002E0
2E0003D0
2D0003C0
3C0007C0
7C000780
78001F80
7C007F40
7D06DB00
3FFF4F00
0BE40E00
ENDCHAR
STARTCHAR uni01E2
ENCODING 482
SWIDTH 600 0
DWIDTH 17 0
BBX 20 22 -2 0
BITMAP
0000007FFE
000000BFFE
0000000000
0000000000
000003FFFF
000007FFFF
00000FB400
00002DF000
000078F000
0000F1E000
0002D1D000
0007C2FFD0
000B43FFD0
001E038000
003C078000
00BFFF4000
01FFFF4000
03D00B0000
0B800E0000
1F401E0000
2E001FFFC0
78002FFFC0
ENDCHAR
STARTCHAR uni01E3
ENCODING 483
SWIDTH 600 0
DWIDTH 17 0
BBX 18 19 -1 0
BITMAP
0001FFFC00
0001FFF800
0000000000
0000000000
0000000000
006F807F40
07FFE3FFC0
0781FB42E0
00007D00E0
00007800E0
0006F956E0
01BFFFFFD0
0BF9FAAA80
2E40E00000
7800E00000
B401F00000
B81BF80A00
7FFD7FFE00
1FE01BE400
ENDCHAR
STARTCHAR Gcaron
ENCODING 486
SWIDTH 600 0
DWIDTH 17 0
BBX 15 24 1 0
BITMAP
00024018
0002D0B4
0000FBD0
00007F40
00000000
00000000
0001BF40
002FFFE0
00BE41B8
02F40024
07D00000
0F400000
1F000000
2E000000
3D000000
7C00BFF0
7C00FFF0
7C0001E0
7C0002D0
3D0002D0
2F0003C0
0FD01B80
07FFFF40
006FE400
ENDCHAR
STARTCHAR gcaron
ENCODING 487
SWIDTH 600 0
DWIDTH 17 0
BBX 16 27 0 -6
BITMAP
00024008
0003C07C
0001E1F0
0000BBC0
00003F00
00000000
00000000
0006F91D
007FFFAD
01FD06FC
03E000B8
07C00078
0F4000B4
1F0000F4
1E0000F0
1E0001E0
1F0002E0
1F400BD0
0FD57FD0
07FFE7C0
00AA4780
00000780
00000B40
10001F00
7901BD00
2FFFF400
06FE8000
ENDCHAR
STARTCHAR uni01EA
ENCODING 490
SWIDTH 600 0
DWIDTH 17 0
BBX 15 25 1 -7
BITMAP
000AF900
007FFF80
02F907E0
07D001F4
0F4000B8
2E0000B8
3D00007C
7C000078
B8000078
B40000B8
B40000F4
F40001F0
B80002E0
B80007D0
7D001F80
2F41BE00
0FFFF800
02FF9000
00740000
01C00000
03400000
07400000
0B840000
07FD0000
02F80000
ENDCHAR
STARTCHAR uni01EB
ENCODING 491
SWIDTH 600 0
DWIDTH 17 0
BBX 14 21 1 -7
BITMAP
001BF800
01FFFF40
07E41FC0
1F4003D0
2E0002E0
7C0001E0
B80001E0
B80002E0
B80003D0
B80007C0
7D001F40
3F41BE00
1FFFF800
02FF9000
00B40000
01C00000
03400000
07000000
0B440000
07FD0000
02F80000
ENDCHAR
STARTCHAR uni01F4
ENCODING 500
SWIDTH 600 0
DWIDTH 17 0
BBX 15 24 1 0
BITMAP
00000060
000006F4
00002F80
00002800
00000000
00000000
0001BF40
002FFFE0
00BE41B8
02F40024
07D00000
0F400000
1F000000
2E000000
3D000000
7C00BFF0
7C00FFF0
7C0001E0
7C0002D0
3D0002D0
2F0003C0
0FD01B80
07FFFF40
006FE400
ENDCHAR
STARTCHAR uni01F5
ENCODING 501
SWIDTH 600 0
DWIDTH 17 0
BBX 16 28 0 -6
BITMAP
00000060
000001F4
000007E0
00001F80
00003D00
00002400
00000000
00000000
0006F91D
007FFFAD
01FD06FC
03E000B8
07C00078
0F4000B4
1F0000F4
1E0000F0
1E0001E0
1F0002E0
1F400BD0
0FD57FD0
07FFE7C0
00AA4780
00000780
00000B40
10001F00
7901BD00
2FFFF400
06FE8000
ENDCHAR
STARTCHAR uni01F8
ENCODING 504
SWIDTH 600 0
DWIDTH 17 0
BBX 17 24 0 0
BITMAP
0000900000
0001F40000
00007D0000
00001F0000
0000060000
0000000000
00B8000B40
00FC000F00
00FD001F00
01EE001E00
02DB002D00
02CB403D00
03C7803C00
03C3C07800
0782D07800
0B41E0B400
0B40F0B400
0F00B4F000
1F0078E000
1E003DE000
2D002ED000
2D001FD000
3C000FC000
7C000B8000
ENDCHAR
STARTCHAR uni01F9
ENCODING 505
SWIDTH 600 0
DWIDTH 17 0
BBX 14 22 1 0
BITMAP
00018000
0007D000
0002F000
0000B800
00003D00
00001800
00000000
00000000
0741BE40
0B4BFFD0
0B7D07E0
0FE001E0
0F8001E0
1F0002E0
2E0002D0
2D0003D0
3D0003C0
3C000780
7C000B80
B8000B40
B4000F40
F4000F00
ENDCHAR
STARTCHAR Aringacute
ENCODING 506
SWIDTH 600 0
DWIDTH 17 0
BBX 16 27 -1 0
BITMAP
00000004
0000002E
000000B8
00000520
00001828
00002C78
00001FF4
00000BD0
00000000
00000FC0
00002FC0
00003EC0
0000B6D0
0001E1D0
0002C1E0
000781E0
000B00E0
001D00F0
003800F0
007FFFF0
00FFFFF4
02D000B4
03C000B8
0B400078
1F000078
2D00007C
7C00007C
ENDCHAR
STARTCHAR aringacute
ENCODING 507
SWIDTH 600 0
DWIDTH 17 0
BBX 15 25 1 0
BITMAP
00000040
000007C0
00001E00
0000BE00
0002FF40
00038380
00074280
00078740
0003FF00
0001B800
00000000
001BE474
01FFFEB4
07F41BF0
0F8002E0
2F0001E0
3D0002D0
7C0003D0
780003C0
B80007C0
B8000B80
7C002F40
3F41FF40
1FFFDF00
06F90F00
ENDCHAR
STARTCHAR AEacute
ENCODING 508
SWIDTH 600 0
DWIDTH 17 0
BBX 20 24 -2 0
BITMAP
0000000009
000000007E
00000006E4
0000000640
0000000000
0000000000
000003FFFF
000007FFFF
00000FB400
00002DF000
000078F000
0000F1E000
0002D1D000
0007C2FFD0
000B43FFD0
001E038000
003C078000
00BFFF4000
01FFFF4000
03D00B0000
0B800E0000
1F401E0000
2E001FFFC0
78002FFFC0
ENDCHAR
STARTCHAR aeacute
ENCODING 509
SWIDTH 600 0
DWIDTH 17 0
BBX 18 22 -1 0
BITMAP
0000002400
000000BC00
000002F400
00000BD000
00002F0000
0000180000
0000000000
0000000000
006F807F40
07FFE3FFC0
0781FB42E0
00007D00E0
00007800E0
0006F956E0
01BFFFFFD0
0BF9FAAA80
2E40E00000
7800E00000
B401F00000
B81BF80A00
7FFD7FFE00
1FE01BE400
ENDCHAR
STARTCHAR Oslashacute
ENCODING 510
SWIDTH 600 0
DWIDTH 17 0
BBX 18 25 0 -1
BITMAP
0000006000
000002F400
00001F9000
0000190000
0000000000
0000000040
0002BE43D0
001FFFEB80
00BE41FE00
01F400BD00
03D002FE00
0B8007DE00
0F401F1F00
1F007C1E00
2E01F41E00
2D03D02E00
2D0F403D00
2D3D007C00
2DB800B800
2FE001F000
1F8007D000
2FD06F8000
7AFFFD0000
F06FA00000
5000000000
ENDCHAR
STARTCHAR oslashacute
ENCODING 511
SWIDTH 600 0
DWIDTH 17 0
BBX 16 23 0 -1
BITMAP
00000090
000002F0
00000BD0
00002F40
0000BC00
00006000
00000000
00000004
0006FE1E
007FFFFD
01F906F4
07D007F4
0F802FB8
1F00B878
2E02E078
2D0B80B8
2D2E00F4
2EB801F0
1FD007D0
1FD06F80
7FFFFD00
B4AFA000
10000000
ENDCHAR
STARTCHAR uni0218
ENCODING 536
SWIDTH 600 0
DWIDTH 17 0
BBX 14 25 1 -7
BITMAP
001BF900
00BFFF80
01F807E0
03E00090
03D00000
03D00000
02F40000
00BE0000
002FE000
0006F800
00007E00
00001F40
00000B40
10000B40
B8001F40
7E40BE00
1FFFF800
01BF9000
00000000
00780000
00BE0000
001E0000
006E0000
07FC0000
07900000
ENDCHAR
STARTCHAR uni0219
ENCODING 537
SWIDTH 600 0
DWIDTH 17 0
BBX 13 21 1 -7
BITMAP
006FE400
02FFFF40
03D01BC0
07800140
07C00000
02F40000
00BF9000
001BF800
00006F00
00000F40
28000F40
7F406F00
1BFFFD00
01BFA000
00000000
00780000
00BE0000
001E0000
006E0000
07FC0000
07900000
ENDCHAR
STARTCHAR uni021A
ENCODING 538
SWIDTH 600 0
DWIDTH 17 0
BBX 15 25 3 -7
BITMAP
FFFFFFF4
FFFFFFF4
001F0000
001E0000
002D0000
003D0000
003C0000
007C0000
00780000
00B40000
00F40000
00F00000
01F00000
02E00000
02D00000
03D00000
03C00000
07C00000
00000000
0E400000
1FC00000
03C00000
07C00000
FF400000
E8000000
ENDCHAR
STARTCHAR uni021B
ENCODING 539
SWIDTH 600 0
DWIDTH 17 0
BBX 13 25 2 -7
BITMAP
002D0000
002C0000
003C0000
00780000
BFFFFFC0
FFFFFFC0
00F00000
01E00000
02E00000
02D00000
03D00000
03C00000
07800000
07800000
07800000
07E01800
02FFFD00
00BFA000
00000000
00390000
007F0000
000F0000
001F0000
03FD0000
03A40000
ENDCHAR
STARTCHAR uni0237
ENCODING 567
SWIDTH 600 0
DWIDTH 17 0
BBX 14 20 -1 -6
BITMAP
003FFFD0
007FFFC0
000003C0
00000780
00000B80
00000B40
00000F00
00001F00
00001E00
00002E00
00002D00
00003C00
00007C00
00007800
0000B800
0000F400
0002F000
240BD000
7FFF8000
1BF90000
ENDCHAR
STARTCHAR uni0243
ENCODING 579
SWIDTH 600 0
DWIDTH 17 0
BBX 16 18 0 0
BITMAP
007FFE90
007FFFF8
00B801BD
00F4003D
00F0007C
01E005F4
02FFFF80
02FFFE40
03C007E0
07C000F4
078000B8
BFFF80B8
FFFF80B8
0F4000F4
0F0002F0
1E001BD0
2FFFFF40
2FFFE400
ENDCHAR
STARTCHAR uni0250
ENCODING 592
SWIDTH 600 0
DWIDTH 17 0
BBX 14 14 1 0
BITMAP
0B41BE40
0B5FFFD0
0FB906E0
0FD001E0
1F0002E0
1E0007D0
2D15BF40
3FFFF900
3FE94000
7C000000
7C000500
3E017E00
1FFFF800
06FE4000
ENDCHAR
STARTCHAR uni0251
ENCODING 593
SWIDTH 600 0
DWIDTH 17 0
BBX 15 14 1 0
BITMAP
001BE474
01FFFEB4
07F41BF0
0F8002E0
2F0001E0
3D0002D0
7C0003D0
780003C0
B80007C0
B8000B80
7C002F40
3F41BF40
1FFFDF00
06F90F00
ENDCHAR
STARTCHAR uni0252
ENCODING 594
SWIDTH 600 0
DWIDTH 17 0
BBX 14 14 1 0
BITMAP
0746FE00
0B6FFF80
0BF90BD0
0FD002E0
0F0001F0
1E0001F0
2E0001F0
2D0001E0
3C0002D0
3C0007C0
7D001F80
BF41BE00
B7FFF800
F0BF9000
ENDCHAR
STARTCHAR uni0253
ENCODING 595
SWIDTH 600 0
DWIDTH 17 0
BBX 14 20 1 0
BITMAP
000BF800
007FFC00
00F90400
01E00000
02D00000
03C00000
0786FE00
07AFFF80
0BF90BD0
0FC002E0
0F0001F0
1E0001F0
1E0001F0
2D0001E0
3C0002D0
3C0007C0
7D001F80
7F40BE00
B7FFF800
F0BF9000
ENDCHAR
STARTCHAR uni0254
ENCODING 596
SWIDTH 600 0
DWIDTH 17 0
BBX 14 14 1 0
BITMAP
006FE400
07FFFE00
0F906F40
05000BC0
000003D0
000003D0
000003D0
000003C0
000007C0
00000F40
50002F00
F906FC00
7FFFE000
0BFE4000
ENDCHAR
STARTCHAR uni0255
ENCODING 597
SWIDTH 600 0
DWIDTH 17 0
BBX 14 16 1 -2
BITMAP
001AF900
00BFFFC0
02F906F0
0BC00050
1F000000
2D000000
3C000000
3C01BE00
3C1FFF40
3D7E0780
2FF40380
0BE01F40
0FFFFE00
2D6FE400
78000000
60000000
ENDCHAR
STARTCHAR uni0256
ENCODING 598
SWIDTH 600 0
DWIDTH 17 0
BBX 16 26 1 -6
BITMAP
0000001E
0000002E
0000003D
0000003C
0000007C
00000078
001BE4B8
01FFFEB4
07F41BF0
0F8002F0
2F0001E0
3D0002E0
7C0003D0
780003C0
B80007C0
B8000B80
7C001F80
3F41BF40
1FFFDF00
06F91F00
00001E00
00002E00
00002D00
00002E00
00002FD0
00000BD0
ENDCHAR
STARTCHAR uni0257
ENCODING 599
SWIDTH 600 0
DWIDTH 17 0
BBX 19 20 1 0
BITMAP
00000002F4
0000000FF0
0000002E00
0000003D00
0000007C00
0000007800
001BE4B800
01FFFEB400
07F41BF000
0F8002F000
2F0001E000
3D0002E000
7C0003D000
780003C000
B80007C000
B8000B8000
7C002F4000
3F41FF4000
1FFFDF0000
06F90F0000
ENDCHAR
STARTCHAR uni0258
ENCODING 600
SWIDTH 600 0
DWIDTH 17 0
BBX 13 14 2 0
BITMAP
006FE000
07FFFD00
1F907F00
3D000F40
78000B80
B4000780
FFFFFF80
FFFFFF80
00000B40
00001F00
40007D00
F406F800
7FFFE000
1BFA0000
ENDCHAR
STARTCHAR uni0259
ENCODING 601
SWIDTH 600 0
DWIDTH 17 0
BBX 14 14 1 0
BITMAP
002BF900
02FFFF40
07901BD0
010003E0
000001E0
000001F0
7FFFFFE0
7FFFFFE0
780002D0
780007C0
7C001F40
3E41BE00
1FFFF800
02FE8000
ENDCHAR
STARTCHAR uni025A
ENCODING 602
SWIDTH 600 0
DWIDTH 17 0
BBX 18 14 0 0
BITMAP
01BF900000
0BFFF80000
0A41BD0000
00002E7C00
00002FFC00
0006FE1D00
007FAE0FD0
1BE42D0B80
FD003C0000
F000B80000
F001F40000
BD07D00000
3FFF400000
0BF9000000
ENDCHAR
STARTCHAR uni025B
ENCODING 603
SWIDTH 600 0
DWIDTH 17 0
BBX 14 14 1 0
BITMAP
002BF900
01FFFF80
07E407E0
0BC00080
0B800000
03D00000
01BFF000
0BFFE000
2E400000
78000000
7C000100
7E405F00
2FFFFE00
06BFA000
ENDCHAR
STARTCHAR uni025C
ENCODING 604
SWIDTH 600 0
DWIDTH 17 0
BBX 14 14 1 0
BITMAP
006BF900
02FFFF80
03901BC0
000003D0
000003C0
00001F40
003FF900
007FFD00
00001F40
00000B80
24000B80
7E406F40
2FFFFD00
02BF9000
ENDCHAR
STARTCHAR uni025E
ENCODING 606
SWIDTH 600 0
DWIDTH 17 0
BBX 14 14 1 0
BITMAP
001BF900
01FFFF80
07E40BD0
1F8002E0
3E0002D0
7C001B80
B807FD00
B80BFE00
B8001F80
B80007C0
7D0007C0
2F906F40
0BFFFE00
01BFA400
ENDCHAR
STARTCHAR uni025F
ENCODING 607
SWIDTH 600 0
DWIDTH 17 0
BBX 17 20 -1 -6
BITMAP
003FFFD000
007FFFC000
000007C000
0000078000
00000B8000
00000B4000
006FFFFF80
00BFFFFF40
00001E0000
00002E0000
00002D0000
00003D0000
00007C0000
0000780000
0000B80000
0000F40000
0002F00000
241BD00000
7FFF800000
1BF9000000
ENDCHAR
STARTCHAR uni0260
ENCODING 608
SWIDTH 600 0
DWIDTH 17 0
BBX 19 24 0 -6
BITMAP
00000001F8
00000007F8
0000000F40
0000001E00
0006F92D00
007FFFAD00
01FD06FC00
03E000B800
07C0007800
0F4000B400
0F0000F400
1F0000F000
1E0001E000
1F0002E000
1F4007D000
0FD06FD000
07FFF7C000
01BF83C000
0000078000
00000B4000
10001F0000
7901BD0000
2FFFF40000
06FE800000
ENDCHAR
STARTCHAR uni0261
ENCODING 609
SWIDTH 600 0
DWIDTH 17 0
BBX 16 20 0 -6
BITMAP
0006F91D
007FFFAD
01FD06FC
03E000B8
07C00078
0F4000B4
1F0000F4
1E0000F0
1E0001E0
1F0002E0
1F400BD0
0FD57FD0
07FFE7C0
00AA4780
00000780
00000B40
10001F00
7901BD00
2FFFF400
06FE8000
ENDCHAR
STARTCHAR uni0262
ENCODING 610
SWIDTH 600 0
DWIDTH 17 0
BBX 14 14 1 0
BITMAP
001BF900
00BFFFD0
03F906F0
0B800090
1F000000
2D000000
3C01FFD0
7C01FFC0
7C0003C0
3D000780
2E000780
1F901F40
07FFFE00
00BFE400
ENDCHAR
STARTCHAR uni0263
ENCODING 611
SWIDTH 600 0
DWIDTH 17 0
BBX 14 20 2 -6
BITMAP
780001F0
7C0002D0
3D000780
2D000F00
1E002D00
0F007800
0F00F400
0B42E000
0787C000
038B4000
03DE0000
02FC0000
02F80000
07BC0000
0F2C0000
1D2D0000
2C2D0000
3C7C0000
2FF40000
0BD00000
ENDCHAR
STARTCHAR uni0264
ENCODING 612
SWIDTH 600 0
DWIDTH 17 0
BBX 14 14 2 0
BITMAP
2F801BD0
3FF4BFD0
11BFE440
003F8000
00BF8000
02E3D000
0B81F000
1E00F400
2D00B400
3C00F400
7C01F000
3E07E000
2FFF8000
07F90000
ENDCHAR
STARTCHAR uni0265
ENCODING 613
SWIDTH 600 0
DWIDTH 17 0
BBX 15 20 1 -6
BITMAP
0B8000F4
0B4000F0
0F0001F0
1F0001E0
1E0002E0
2E0003D0
2D0003C0
3C0007C0
7C000780
78001F80
7C007F40
7D06DF40
3FFF5F00
0BE41E00
00002E00
00002D00
00003D00
00003C00
00007800
0000B800
ENDCHAR
STARTCHAR uni0266
ENCODING 614
SWIDTH 600 0
DWIDTH 17 0
BBX 14 20 1 0
BITMAP
000BF800
007FFC00
00F90400
01F00000
02D00000
03C00000
0781BE40
078BFFD0
0B7D07E0
0FE002E0
0F8001E0
1E0002E0
1E0002D0
2D0003D0
3D0003C0
3C000780
78000B80
78000B40
B4000F40
F4000F00
ENDCHAR
STARTCHAR uni0267
ENCODING 615
SWIDTH 600 0
DWIDTH 17 0
BBX 14 26 1 -6
BITMAP
000BF800
007FFC00
00F90400
01F00000
02D00000
03C00000
0781BE40
078BFFD0
0B7D07E0
0FE002E0
0F8001E0
1E0002E0
1E0002D0
2D0003D0
3D0003C0
3C0007C0
78000780
78000B40
B4000F40
F4000F00
00001F00
00001E00
00002D00
00007C00
000FF800
001BE000
ENDCHAR
STARTCHAR uni0268
ENCODING 616
SWIDTH 600 0
DWIDTH 17 0
BBX 12 20 2 0
BITMAP
0007D0
000FD0
000B80
000000
000000
000000
2FFF40
3FFF00
001E00
002E00
002D00
7FFFFE
BFFFFD
007800
00B400
00F400
00F400
00B818
007FFD
001BE4
ENDCHAR
STARTCHAR uni026A
ENCODING 618
SWIDTH 600 0
DWIDTH 17 0
BBX 14 14 1 0
BITMAP
07FFFFF0
07FFFFE0
0007C000
0007C000
000B8000
000B4000
000F4000
001F0000
001F0000
002E0000
002D0000
003D0000
BFFFFE00
BFFFFD00
ENDCHAR
STARTCHAR uni026B
ENCODING 619
SWIDTH 600 0
DWIDTH 17 0
BBX 12 20 2 0
BITMAP
0BFFC0
0FFF80
000B40
000F40
000F00
001E00
06AE09
1FFD1D
2D7D3C
383FF4
647FE0
00B400
00B400
00F000
01E000
01E000
02E000
01F414
00FFF8
002FA0
ENDCHAR
STARTCHAR uni026C
ENCODING 620
SWIDTH 600 0
DWIDTH 17 0
BBX 11 20 2 0
BITMAP
0BFFC0
0FFF80
000B40
000F40
000F00
001E00
2F6E00
7FFD00
B4BD00
B47C00
7FFFF8
1BFFF8
00B400
00F400
00F000
01E000
02E000
01F414
00FFF8
006FA0
ENDCHAR
STARTCHAR uni026D
ENCODING 621
SWIDTH 600 0
DWIDTH 17 0
BBX 8 26 4 -6
BITMAP
BFFC
FFF8
00B4
00B4
00F0
01F0
01E0
02D0
03D0
03C0
0780
0780
0B40
0F40
0F00
1E00
1E00
2D00
3D00
3C00
7800
7800
7800
7D05
3FFE
0BE8
ENDCHAR
STARTCHAR uni026E
ENCODING 622
SWIDTH 600 0
DWIDTH 17 0
BBX 17 26 0 -6
BITMAP
00B8000000
00B4000000
00F4000000
00F0000000
01E0000000
02E0000000
02FFFFFF40
03FFFFFF00
03C0007D00
078001F000
0B8007C000
0B401F0000
0F407C0000
0F01F00000
1F07FF4000
2E07FFE000
2D0106F000
3D0000F400
3C0000F400
7C0000F400
000000F000
000002E000
010007C000
07D02F4000
02FFFD0000
006FE00000
ENDCHAR
STARTCHAR uni026F
ENCODING 623
SWIDTH 600 0
DWIDTH 17 0
BBX 16 14 0 0
BITMAP
0B80B40F
0B40F01F
0F00F01E
1F01E02E
1E02D02D
2E02D03D
2D03C03C
3C07C078
7C0780B8
780B40B4
B81F41F4
B87F87F0
BFEBFDE0
2E42E4E0
ENDCHAR
STARTCHAR uni0270
ENCODING 624
SWIDTH 600 0
DWIDTH 17 0
BBX 16 20 0 -6
BITMAP
0B40B40F
0F40F01F
0F01F01E
1F01E02E
1E02D02D
2D03D03C
3D03C07C
3C078078
7C0780B8
780B40B4
B81F41F0
B87F47F0
BFEBFDE0
2E47E5E0
000002D0
000003D0
000003C0
00000780
00000780
00000B40
ENDCHAR
STARTCHAR uni0271
ENCODING 625
SWIDTH 600 0
DWIDTH 17 0
BBX 16 20 0 -6
BITMAP
074BD1BD
0B7FF7FE
0BE1FD2F
0F80F41E
0F01F01E
1E01E02D
2E02D03D
2D02D03C
3D03C07C
3C078078
780780B8
B80B40B4
B40F40F0
F40F01F0
000001E0
000002E0
000003D0
000007C0
0000BF40
0000BE00
ENDCHAR
STARTCHAR uni0272
ENCODING 626
SWIDTH 600 0
DWIDTH 17 0
BBX 18 20 -3 -6
BITMAP
000741BE40
000B4BFFD0
000B7D07E0
000FE001E0
000F8001E0
001F0002E0
001E0002D0
002D0003D0
003D0003C0
003C000780
007C000B80
0078000B40
00B8000F40
00B4000F00
00F0000000
01F0000000
01E0000000
03D0000000
7FC0000000
7E00000000
ENDCHAR
STARTCHAR uni0273
ENCODING 627
SWIDTH 600 0
DWIDTH 17 0
BBX 14 20 1 -6
BITMAP
0641BE40
0B4BFFD0
0B7D07E0
0FE001E0
0F8001E0
1F0002E0
2E0002D0
2D0003D0
3D0003C0
3C0007C0
7C000780
78000B40
B4000B40
F4000F00
00001F00
00001E00
00002E00
00002E00
00001FE0
00000BD0
ENDCHAR
STARTCHAR uni0274
ENCODING 628
SWIDTH 600 0
DWIDTH 17 0
BBX 14 14 1 0
BITMAP
03D002E0
07E002D0
07F403C0
0BB803C0
0B7C0780
0F2D0780
0F1F0B40
1E0B4B40
2E078F00
2D03DF00
3D02EE00
3C00FD00
7800BD00
78007C00
ENDCHAR
STARTCHAR uni0275
ENCODING 629
SWIDTH 600 0
DWIDTH 17 0
BBX 14 14 1 0
BITMAP
001BF800
01FFFF40
07E41FC0
1F4003D0
3D0002E0
7C0001E0
BFFFFFE0
BFFFFFE0
B40002D0
B80003C0
7C000F40
2F41BE00
0FFFF400
02BE8000
ENDCHAR
STARTCHAR uni0276
ENCODING 630
SWIDTH 600 0
DWIDTH 17 0
BBX 18 14 0 0
BITMAP
006FFFFFD0
02FFFFFFD0
0BE42D0000
1F403C0000
3D003C0000
7C00780000
B800BFFD00
B400BFFC00
F400F40000
F400F00000
B801E00000
7E02E00000
2FFFFFFD00
06FFFFFC00
ENDCHAR
STARTCHAR uni0278
ENCODING 632
SWIDTH 600 0
DWIDTH 17 0
BBX 16 26 0 -6
BITMAP
00001F00
00002E00
00002D00
00003D00
00007C00
00007800
001BFE40
00BFFFE0
07F4F6F8
0F81F07C
2E01E03D
3D02E02E
7C03D02E
7C03C02D
7C07C03C
7C0B80B8
3E0B41F4
1F9F5BD0
0BFFFF40
01BFE400
002E0000
002D0000
003D0000
003C0000
007C0000
00B80000
ENDCHAR
STARTCHAR uni0279
ENCODING 633
SWIDTH 600 0
DWIDTH 17 0
BBX 13 14 1 0
BITMAP
00000780
00000B40
00000B40
00000F00
00001F00
00001E00
00002E00
00002D00
00007C00
0001FC00
00077800
506D7800
BFF47400
BF80B000
ENDCHAR
STARTCHAR uni027A
ENCODING 634
SWIDTH 600 0
DWIDTH 17 0
BBX 14 20 1 0
BITMAP
000000F0
000001F0
000001E0
000002E0
000002D0
000003C0
000007C0
00000780
00000B40
00000F40
00000F00
00001F00
00002E00
00002D00
00007D00
0001FC00
00077800
506D7800
BFF47400
BF80B000
ENDCHAR
STARTCHAR uni027B
ENCODING 635
SWIDTH 600 0
DWIDTH 17 0
BBX 11 20 1 -6
BITMAP
000078
0000B8
0000B4
0000F0
0001F0
0001E0
0002E0
0002D0
0003D0
0007C0
000FC0
507B80
BFEB40
BE4B40
000F00
000F00
001E00
000F04
000FF8
0007E4
ENDCHAR
STARTCHAR uni027D
ENCODING 637
SWIDTH 600 0
DWIDTH 17 0
BBX 14 20 2 -6
BITMAP
02C06F90
03C2FFD0
03CB4040
07AC0000
07E00000
0BC00000
0B400000
0F000000
1F000000
1E000000
2E000000
2D000000
3C000000
3C000000
78000000
78000000
7C000000
3E064000
2FFF8000
0BF90000
ENDCHAR
STARTCHAR uni027E
ENCODING 638
SWIDTH 600 0
DWIDTH 17 0
BBX 14 14 2 0
BITMAP
000AFF90
007FFFD0
01F90140
03E00000
07C00000
0B800000
0B400000
0F000000
1F000000
1E000000
2E000000
2D000000
3D000000
7C000000
ENDCHAR
STARTCHAR uni0280
ENCODING 640
SWIDTH 600 0
DWIDTH 17 0
BBX 13 14 2 0
BITMAP
07FFE800
0BFFFE00
0B402F40
0F000F40
1F000F00
1E007E00
2FFFF800
2FFF9000
3C078000
3C03C000
7802E000
B801F000
B400F400
F400B800
ENDCHAR
STARTCHAR uni0281
ENCODING 641
SWIDTH 600 0
DWIDTH 17 0
BBX 12 14 2 0
BITMAP
1E000F
0F401F
07801E
03C02E
02E03D
02FFFD
1FFFFC
7E4078
B800B8
F400B4
F400F4
F900F0
BFFFF0
1BFFE0
ENDCHAR
STARTCHAR uni0282
ENCODING 642
SWIDTH 600 0
DWIDTH 17 0
BBX 14 20 0 -6
BITMAP
001BF900
00BFFFD0
00F406F0
01E00050
01F00000
00BD0000
002FE400
0006FE00
00001BC0
000003D0
0A0003D0
2FD01BC0
2FFFFF40
3C6FE800
3C000000
78000000
78000000
3C000000
3FC00000
1BC00000
ENDCHAR
STARTCHAR uni0283
ENCODING 643
SWIDTH 600 0
DWIDTH 17 0
BBX 19 26 -1 -6
BITMAP
0000006F90
000002FFF4
000007D060
00000B8000
00000F4000
00001F0000
00001E0000
00002E0000
00003D0000
00003D0000
00007C0000
0000780000
0000B80000
0000F40000
0000F40000
0001F00000
0001E00000
0002E00000
0003D00000
0003C00000
0007C00000
0007800000
000B400000
242F000000
7FFD000000
1BE4000000
ENDCHAR
STARTCHAR uni0284
ENCODING 644
SWIDTH 600 0
DWIDTH 17 0
BBX 19 26 -1 -6
BITMAP
0000006F90
000002FFF4
000007D060
00000B8000
00000F4000
00001F0000
00001E0000
00002E0000
00003D0000
00003C0000
00007C0000
0000780000
01FFFFFD00
02FFFFFD00
0000F40000
0001F00000
0001E00000
0002E00000
0002D00000
0003D00000
0007C00000
0007800000
000B400000
242F000000
7FFD000000
1BE4000000
ENDCHAR
STARTCHAR uni0287
ENCODING 647
SWIDTH 600 0
DWIDTH 17 0
BBX 13 18 1 -4
BITMAP
01BF9000
0FFFF000
0A41F800
0000B800
00007800
0000B800
0000B400
0000F000
0000F000
0001E000
0002E000
0002D000
BFFFFFC0
FFFFFF80
00078000
000B4000
000F0000
000E0000
ENDCHAR
STARTCHAR uni0288
ENCODING 648
SWIDTH 600 0
DWIDTH 17 0
BBX 13 24 2 -6
BITMAP
002D0000
002C0000
003C0000
00780000
BFFFFFC0
FFFFFFC0
00F00000
01F00000
01E00000
02D00000
03D00000
03C00000
07C00000
07800000
0B400000
0B400000
0F000000
1F000000
1E000000
1E000000
1F000000
1F806000
0BFFF400
02FE8000
ENDCHAR
STARTCHAR uni0289
ENCODING 649
SWIDTH 600 0
DWIDTH 17 0
BBX 16 14 0 0
BITMAP
00F400B4
00F000F4
01F000F0
01E001F0
02E001E0
7FFFFFFF
7FFFFFFE
07C003D0
078007C0
0B800B80
0B801F80
0BD1BF40
07FFDB40
01FD0F00
ENDCHAR
STARTCHAR uni028A
ENCODING 650
SWIDTH 600 0
DWIDTH 17 0
BBX 15 14 1 0
BITMAP
0FFC1FF8
1FF81FF8
01E00E00
03C00740
0B4003C0
1E0003C0
2D0003C0
3C0003C0
7C000780
7C000F40
3D002F00
2F41BD00
1FFFF400
02FE4000
ENDCHAR
STARTCHAR uni028B
ENCODING 651
SWIDTH 600 0
DWIDTH 17 0
BBX 14 14 1 0
BITMAP
0B807E40
0B407FD0
0F0007E0
1F0001E0
1E0001E0
2E0001E0
2D0002D0
3C0003D0
7C0007C0
7C000F40
7D002E00
3F41FC00
1FFFE000
06FE4000
ENDCHAR
STARTCHAR uni028C
ENCODING 652
SWIDTH 600 0
DWIDTH 17 0
BBX 14 14 0 0
BITMAP
0000F800
0002FC00
0007AD00
000F1D00
001E1E00
003C0F00
00B40F00
01F00B40
02D00780
07800780
0F0003C0
2E0003D0
7C0002D0
B40001E0
ENDCHAR
STARTCHAR uni028D
ENCODING 653
SWIDTH 600 0
DWIDTH 17 0
BBX 16 14 -1 0
BITMAP
002F407E
003F40BE
00BB41EE
00F742DE
01E7439E
02D7475E
03C74F1E
0B475E1E
0F076C1E
1E07781F
2D07B41F
3C03F01F
B403D01F
F001401F
ENDCHAR
STARTCHAR uni028E
ENCODING 654
SWIDTH 600 0
DWIDTH 17 0
BBX 18 20 0 0
BITMAP
0000002FD0
000001FFD0
000003E040
00000B8000
00001E0000
00003C0000
0000B80000
0001F80000
0003FC0000
000B6D0000
000F1D0000
002D1E0000
00780F0000
00F00B4000
02D00B4000
07C0078000
0F4003C000
2E0003D000
3C0002D000
B40001E000
ENDCHAR
STARTCHAR uni028F
ENCODING 655
SWIDTH 600 0
DWIDTH 17 0
BBX 13 14 3 0
BITMAP
F8000F40
7C002E00
3D007800
2E01F000
1F03D000
0F4B8000
0B9E0000
03FC0000
02F40000
02E00000
02E00000
03D00000
03C00000
07C00000
ENDCHAR
STARTCHAR uni0290
ENCODING 656
SWIDTH 600 0
DWIDTH 17 0
BBX 14 20 1 -6
BITMAP
0BFFFFF0
0BFFFFE0
00000B80
00002E00
0000B800
0002E000
000B8000
002E0000
00B80000
02E00000
0B800000
2E000000
BFFFFF40
FFFFFF00
00001F00
00001E00
00002E00
00001F00
00001FE0
000007E0
ENDCHAR
STARTCHAR uni0291
ENCODING 657
SWIDTH 600 0
DWIDTH 17 0
BBX 15 17 1 -3
BITMAP
0BFFFFE0
0BFFFFD0
00000B80
00002E00
0000B800
0002E000
000B8000
003E06E0
00F81FF8
03D03D38
0F40B038
3E01D1B4
BFFFFFE0
FFFFFE40
000B0000
000E0000
001C0000
ENDCHAR
STARTCHAR uni0292
ENCODING 658
SWIDTH 600 0
DWIDTH 17 0
BBX 16 20 -1 -6
BITMAP
003FFFFF
007FFFFE
000000B8
000002E0
00000B80
00002E00
0000B800
0002E000
000B8000
003FFE00
00141BC0
000002E0
000001F0
000001F0
000001E0
000003D0
24000BC0
7E407F40
1FFFFD00
01BF9000
ENDCHAR
STARTCHAR uni0294
ENCODING 660
SWIDTH 600 0
DWIDTH 17 0
BBX 12 20 4 0
BITMAP
06FE80
2FFFF0
F901F8
90007D
00003D
00003D
00007C
0000B8
0002E0
000B80
007E00
07E400
0B8000
0B4000
0F0000
1F0000
1E0000
2E0000
3D0000
3C0000
ENDCHAR
STARTCHAR uni0295
ENCODING 661
SWIDTH 600 0
DWIDTH 17 0
BBX 12 20 4 0
BITMAP
01BF90
0BFFF8
2F807E
7D000A
B80000
F40000
F40000
B40000
7C0000
3E0000
0F8000
03F000
01F000
01E000
02E000
03D000
03C000
07C000
078000
0B4000
ENDCHAR
STARTCHAR uni0298
ENCODING 664
SWIDTH 600 0
DWIDTH 17 0
BBX 15 20 1 0
BITMAP
0006FD00
002FFF80
00BD07E0
01F401F0
03D000F4
0B8000B4
0F4000B4
1E0000B4
2E0000B4
2D0780B4
3C0FD0F0
3C0B81F0
3C0002E0
7C0003D0
3C0007C0
3C000F40
2E002E00
1F41FC00
0BFFE000
01BE4000
ENDCHAR
STARTCHAR uni0299
ENCODING 665
SWIDTH 600 0
DWIDTH 17 0
BBX 13 14 2 0
BITMAP
0BFFF800
0BFFFF00
0F401F40
0F000F40
1E006E00
2FFFF400
2FFFF800
3D007D00
3C002E00
78002E00
78003D00
B401BC00
FFFFF400
FFFE8000
ENDCHAR
STARTCHAR uni029C
ENCODING 668
SWIDTH 600 0
DWIDTH 17 0
BBX 14 14 1 0
BITMAP
078000F0
0B8001F0
0B4001E0
0F4002D0
1F0002D0
1F0003C0
2FFFFFC0
2FFFFF80
3D000B40
3C000B40
7C000F00
B8001F00
B4001E00
F4002E00
ENDCHAR
STARTCHAR uni029D
ENCODING 669
SWIDTH 600 0
DWIDTH 17 0
BBX 14 27 0 -7
BITMAP
000007D0
00000FE0
00000B80
00000000
00000000
00000000
00FFFF40
01FFFF00
00001F00
00001E00
00002E00
00002D00
00003C00
00007C00
00007800
0000B400
0000F400
0000F000
0001F000
1BE6E000
7FFFD000
B41FC000
F00BD000
F42FF000
7FFDF400
1BE07800
00002400
ENDCHAR
STARTCHAR uni029E
ENCODING 670
SWIDTH 600 0
DWIDTH 17 0
BBX 15 20 0 -6
BITMAP
0B400078
07C000B8
02D000B4
01F000F4
00B401F0
007C0BE0
002E7FE0
001FF6D0
000FC3D0
003E03C0
01F80780
07D00B80
1F400B40
BD000F40
00000F00
00001F00
00001E00
00002D00
00003D00
00003C00
ENDCHAR
STARTCHAR uni029F
ENCODING 671
SWIDTH 600 0
DWIDTH 17 0
BBX 11 14 3 0
BITMAP
078000
0B4000
0F4000
0F0000
1F0000
1E0000
2E0000
2D0000
3C0000
7C0000
780000
B80000
BFFFF8
FFFFF8
ENDCHAR
STARTCHAR uni02A1
ENCODING 673
SWIDTH 600 0
DWIDTH 17 0
BBX 14 20 2 0
BITMAP
006FE800
02FFFF40
0F901FC0
090007D0
000003D0
000003C0
000007C0
00000F40
00002D00
0001F400
001F8000
7FFFFF00
BFFFFE00
00F40000
00F00000
01F00000
01E00000
02E00000
03D00000
03C00000
ENDCHAR
STARTCHAR uni02A2
ENCODING 674
SWIDTH 600 0
DWIDTH 17 0
BBX 14 20 2 0
BITMAP
001BF900
00BFFF80
02F407E0
07D000A0
0B800000
0F400000
0F400000
0B800000
07C00000
01F00000
007D0000
7FFFFF40
7FFFFF00
001E0000
002D0000
003D0000
003C0000
007C0000
00780000
00B40000
ENDCHAR
STARTCHAR uni02A4
ENCODING 676
SWIDTH 600 0
DWIDTH 17 0
BBX 20 26 -1 -6
BITMAP
0000078000
00000B4000
00000B4000
00000F0000
00001E0000
00001E0000
006E6FFFFD
02FFEFFFFC
07D1FC00B4
0F407C02D0
2E00780B40
3D00B41E00
7C00B47800
7800F1E000
7801F3FE00
7801E2FF80
7C03D10BC0
3D1FD003D0
2FFAC003D0
0BD3C003D0
00000003C0
0000000B80
0000400F40
0002D07E00
0001FFF800
00006F9000
ENDCHAR
STARTCHAR uni02A6
ENCODING 678
SWIDTH 600 0
DWIDTH 17 0
BBX 15 18 1 0
BITMAP
00E00000
01D00000
02D00000
03C00000
7FFFFFE0
7FFFFFF8
0B40F424
0F41E000
0F01F000
1E00BD00
2E002F40
2D0007D0
3C0002E0
3C0001E0
3D0001E0
3F401BD0
1FFFFF40
06FFE400
ENDCHAR
STARTCHAR uni02A7
ENCODING 679
SWIDTH 600 0
DWIDTH 17 0
BBX 17 26 2 -6
BITMAP
0000002F80
000000FF80
00E002E400
01E003D000
02D007C000
03C00B8000
7FFFFF8000
7FFFFF4000
0B400F0000
0F401F0000
0F002E0000
1E002E0000
2E003D0000
2D003C0000
3D007C0000
3C00B80000
7C00B80000
7D10F40000
3FF0F00000
1BE1F00000
0002E00000
0002E00000
0003D00000
000BC00000
01FF400000
01F9000000
ENDCHAR
STARTCHAR h.sups
ENCODING 688
SWIDTH 600 0
DWIDTH 17 0
BBX 10 14 5 10
BITMAP
034000
074000
0B0000
0B0000
0E2F80
0EFFD0
1F82D0
2D01D0
2C01D0
3802C0
3803C0
740380
740740
600640
ENDCHAR
STARTCHAR j.sups
ENCODING 690
SWIDTH 600 0
DWIDTH 17 0
BBX 11 17 3 7
BITMAP
0000B4
0000F4
000000
000000
01FFD0
01FFC0
0002C0
000380
000340
000740
000B00
000B00
000E00
001D00
207C00
7FF800
1F9000
ENDCHAR
STARTCHAR r.sups
ENCODING 691
SWIDTH 600 0
DWIDTH 17 0
BBX 9 10 6 10
BITMAP
0A1FC0
0ABF80
0FD000
1F4000
1D0000
2D0000
2C0000
380000
380000
640000
ENDCHAR
STARTCHAR w.sups
ENCODING 695
SWIDTH 600 0
DWIDTH 17 0
BBX 13 9 4 11
BITMAP
A02D0340
B03D0B00
B0AD0E00
B0DA2C00
72CA3800
774A7400
7B0AE000
7E0BD000
3C078000
ENDCHAR
STARTCHAR y.sups
ENCODING 696
SWIDTH 600 0
DWIDTH 17 0
BBX 11 13 4 7
BITMAP
0B0038
0B0074
0740E0
0382C0
028380
02CB00
01DD00
00F800
00F400
01E000
07C000
FF4000
B90000
ENDCHAR
STARTCHAR uni02B9
ENCODING 697
SWIDTH 600 0
DWIDTH 17 0
BBX 4 7 8 12
BITMAP
0F
1E
2D
3C
38
70
A0
ENDCHAR
STARTCHAR uni02BB
ENCODING 699
SWIDTH 600 0
DWIDTH 17 0
BBX 7 9 7 11
BITMAP
0064
06D0
1F00
3C00
7800
BF40
BF80
BF40
2E00
ENDCHAR
STARTCHAR uni02BC
ENCODING 700
SWIDTH 600 0
DWIDTH 17 0
BBX 7 9 6 10
BITMAP
02E0
0BF4
0FF4
0BF4
00F0
01E0
0780
2E00
A400
ENDCHAR
STARTCHAR uni02BE
ENCODING 702
SWIDTH 600 0
DWIDTH 17 0
BBX 6 9 7 14
BITMAP
1E00
2FC0
06E0
00E0
00F0
00E0
02D0
6F40
A400
ENDCHAR
STARTCHAR uni02BF
ENCODING 703
SWIDTH 600 0
DWIDTH 17 0
BBX 6 9 8 14
BITMAP
01A0
1F90
7800
B000
E000
F000
B800
3F80
0B40
ENDCHAR
STARTCHAR uni02C1
ENCODING 705
SWIDTH 600 0
DWIDTH 17 0
BBX 8 12 7 13
BITMAP
0BE4
2FFD
781B
E001
E000
E000
B000
3D00
1F00
0A00
0E00
0900
ENDCHAR
STARTCHAR circumflex
ENCODING 710
SWIDTH 600 0
DWIDTH 17 0
BBX 8 5 6 16
BITMAP
03F0
0FB8
3D2D
B40F
9006
ENDCHAR
STARTCHAR caron
ENCODING 711
SWIDTH 600 0
DWIDTH 17 0
BBX 9 5 6 16
BITMAP
600180
780B80
2D2E00
0FF800
07E000
ENDCHAR
STARTCHAR uni02C8
ENCODING 712
SWIDTH 600 0
DWIDTH 17 0
BBX 4 9 8 11
BITMAP
2F
3E
3D
3C
78
78
74
B0
A0
ENDCHAR
STARTCHAR uni02C9
ENCODING 713
SWIDTH 600 0
DWIDTH 17 0
BBX 8 2 6 17
BITMAP
7FFE
7FFE
ENDCHAR
STARTCHAR uni02CA
ENCODING 714
SWIDTH 600 0
DWIDTH 17 0
BBX 6 6 8 16
BITMAP
0090
02F0
0BD0
2F40
BC00
6000
ENDCHAR
STARTCHAR uni02CB
ENCODING 715
SWIDTH 600 0
DWIDTH 17 0
BBX 5 6 7 16
BITMAP
2400
BC00
3E00
0F40
07C0
0280
ENDCHAR
STARTCHAR uni02CC
ENCODING 716
SWIDTH 600 0
DWIDTH 17 0
BBX 4 9 4 -7
BITMAP
0A
0E
1D
2D
3D
3C
7C
BC
F8
ENDCHAR
STARTCHAR uni02D0
ENCODING 720
SWIDTH 600 0
DWIDTH 17 0
BBX 8 14 4 0
BITMAP
03FD
02F8
01E0
0080
0000
0000
0000
0000
0000
0000
0200
0B40
1F80
7FC0
ENDCHAR
STARTCHAR uni02D1
ENCODING 721
SWIDTH 600 0
DWIDTH 17 0
BBX 5 4 7 10
BITMAP
FF40
BE00
7800
2000
ENDCHAR
STARTCHAR breve
ENCODING 728
SWIDTH 600 0
DWIDTH 17 0
BBX 9 5 6 16
BITMAP
B002C0
B00780
781F00
3FFD00
1BE400
ENDCHAR
STARTCHAR dotaccent
ENCODING 729
SWIDTH 600 0
DWIDTH 17 0
BBX 4 3 8 17
BITMAP
2E
7F
7D
ENDCHAR
STARTCHAR ring
ENCODING 730
SWIDTH 600 0
DWIDTH 17 0
BBX 7 5 7 16
BITMAP
1BD0
7474
B074
B4B0
2F80
ENDCHAR
STARTCHAR ogonek
ENCODING 731
SWIDTH 600 0
DWIDTH 17 0
BBX 6 6 3 -6
BITMAP
0740
1D00
3400
B000
7440
2F90
ENDCHAR
STARTCHAR tilde
ENCODING 732
SWIDTH 600 0
DWIDTH 17 0
BBX 11 5 5 16
BITMAP
014010
1FD074
3DB4B0
743FE0
600F80
ENDCHAR
STARTCHAR hungarumlaut
ENCODING 733
SWIDTH 600 0
DWIDTH 17 0
BBX 9 5 7 16
BITMAP
024280
0B8780
1E0F00
382C00
602400
ENDCHAR
STARTCHAR uni02DE
ENCODING 734
SWIDTH 600 0
DWIDTH 17 0
BBX 8 6 5 6
BITMAP
0040
06C0
3FD0
65D0
00FD
0079
ENDCHAR
STARTCHAR uni02E0
ENCODING 736
SWIDTH 600 0
DWIDTH 17 0
BBX 9 13 6 7
BITMAP
E002C0
B00740
740A00
341C00
283400
2CA000
1DD000
0F8000
1A4000
328000
728000
BF8000
3E0000
ENDCHAR
STARTCHAR l.sups
ENCODING 737
SWIDTH 600 0
DWIDTH 17 0
BBX 5 14 8 11
BITMAP
BF40
BF00
0A00
0E00
0D00
1C00
2C00
2800
3800
7400
7000
B440
7FC0
2F80
ENDCHAR
STARTCHAR s.sups
ENCODING 738
SWIDTH 600 0
DWIDTH 17 0
BBX 9 10 5 10
BITMAP
02F900
0FFF40
1E0640
0E0000
079000
006800
100A00
781F00
2FFE00
0BE400
ENDCHAR
STARTCHAR x.sups
ENCODING 739
SWIDTH 600 0
DWIDTH 17 0
BBX 10 9 5 11
BITMAP
0E02D0
0B4B40
039D00
02F800
02F000
07B400
1E3800
382D00
B00E00
ENDCHAR
STARTCHAR uni02E4
ENCODING 740
SWIDTH 600 0
DWIDTH 17 0
BBX 8 14 7 11
BITMAP
0BE4
2FFD
781B
E001
E000
E000
B000
3D00
1F00
0A00
0E00
1D00
1D00
2C00
ENDCHAR
STARTCHAR uni0300
ENCODING 768
SWIDTH 600 0
DWIDTH 17 0
BBX 5 6 7 16
BITMAP
2400
BC00
3E00
0F40
07C0
0280
ENDCHAR
STARTCHAR uni0301
ENCODING 769
SWIDTH 600 0
DWIDTH 17 0
BBX 6 6 8 16
BITMAP
0090
02F0
0BD0
2F40
BC00
6000
ENDCHAR
STARTCHAR uni0302
ENCODING 770
SWIDTH 600 0
DWIDTH 17 0
BBX 8 5 6 16
BITMAP
03F0
0FB8
3D2D
B40F
9006
ENDCHAR
STARTCHAR uni0303
ENCODING 771
SWIDTH 600 0
DWIDTH 17 0
BBX 11 5 5 16
BITMAP
014010
1FD074
3DB4B0
743FE0
600F80
ENDCHAR
STARTCHAR uni0304
ENCODING 772
SWIDTH 600 0
DWIDTH 17 0
BBX 8 2 6 17
BITMAP
7FFE
7FFE
ENDCHAR
STARTCHAR uni0305
ENCODING 773
SWIDTH 600 0
DWIDTH 17 0
BBX 8 2 6 17
BITMAP
7FFE
7FFE
ENDCHAR
STARTCHAR uni0306
ENCODING 774
SWIDTH 600 0
DWIDTH 17 0
BBX 9 5 6 16
BITMAP
B002C0
B00780
781F00
3FFD00
1BE400
ENDCHAR
STARTCHAR uni0307
ENCODING 775
SWIDTH 600 0
DWIDTH 17 0
BBX 4 3 8 17
BITMAP
2E
7F
7D
ENDCHAR
STARTCHAR uni0308
ENCODING 776
SWIDTH 600 0
DWIDTH 17 0
BBX 9 3 6 16
BITMAP
780F00
BC1F40
781E00
ENDCHAR
STARTCHAR uni0309
ENCODING 777
SWIDTH 600 0
DWIDTH 17 0
BBX 5 6 8 16
BITMAP
3900
7F40
0B80
0740
1A00
3400
ENDCHAR
STARTCHAR uni030A
ENCODING 778
SWIDTH 600 0
DWIDTH 17 0
BBX 7 5 7 16
BITMAP
1BD0
7474
B074
B4B0
2F80
ENDCHAR
STARTCHAR uni030B
ENCODING 779
SWIDTH 600 0
DWIDTH 17 0
BBX 9 5 7 16
BITMAP
024280
0B8780
1E0F00
382C00
602400
ENDCHAR
STARTCHAR uni030C
ENCODING 780
SWIDTH 600 0
DWIDTH 17 0
BBX 9 5 6 16
BITMAP
600180
780B80
2D2E00
0FF800
07E000
ENDCHAR
STARTCHAR uni030F
ENCODING 783
SWIDTH 600 0
DWIDTH 17 0
BBX 8 5 5 16
BITMAP
A070
B0B4
7438
382C
181D
ENDCHAR
STARTCHAR uni0310
ENCODING 784
SWIDTH 600 0
DWIDTH 17 0
BBX 9 7 6 16
BITMAP
005000
01F400
02F400
A091C0
B00380
781E00
1BE400
ENDCHAR
STARTCHAR uni0311
ENCODING 785
SWIDTH 600 0
DWIDTH 17 0
BBX 9 5 5 16
BITMAP
01BE00
0BFF80
1E47C0
3802C0
7401C0
ENDCHAR
STARTCHAR uni0312
ENCODING 786
SWIDTH 600 0
DWIDTH 17 0
BBX 4 6 8 15
BITMAP
06
29
70
BC
BD
78
ENDCHAR
STARTCHAR uni0313
ENCODING 787
SWIDTH 600 0
DWIDTH 17 0
BBX 4 6 8 15
BITMAP
1D
3F
2F
0A
2C
60
ENDCHAR
STARTCHAR uni0318
ENCODING 792
SWIDTH 600 0
DWIDTH 17 0
BBX 6 6 3 -7
BITMAP
00A0
00D0
7FD0
7FC0
01C0
0280
ENDCHAR
STARTCHAR uni0319
ENCODING 793
SWIDTH 600 0
DWIDTH 17 0
BBX 5 6 3 -7
BITMAP
3400
7000
7FC0
BFC0
A000
D000
ENDCHAR
STARTCHAR uni031A
ENCODING 794
SWIDTH 600 0
DWIDTH 17 0
BBX 5 5 9 15
BITMAP
7FC0
7FC0
0280
0280
0240
ENDCHAR
STARTCHAR uni031B
ENCODING 795
SWIDTH 600 0
DWIDTH 17 0
BBX 5 5 9 12
BITMAP
0280
03C0
0380
1F40
A800
ENDCHAR
STARTCHAR uni031C
ENCODING 796
SWIDTH 600 0
DWIDTH 17 0
BBX 5 7 3 -8
BITMAP
0780
2F80
3900
7400
7800
3E00
1A00
ENDCHAR
STARTCHAR uni031D
ENCODING 797
SWIDTH 600 0
DWIDTH 17 0
BBX 6 4 3 -6
BITMAP
0700
0A00
FFD0
FFD0
ENDCHAR
STARTCHAR uni031E
ENCODING 798
SWIDTH 600 0
DWIDTH 17 0
BBX 6 4 3 -7
BITMAP
BFE0
BFE0
0D00
1C00
ENDCHAR
STARTCHAR uni031F
ENCODING 799
SWIDTH 600 0
DWIDTH 17 0
BBX 6 6 3 -7
BITMAP
0700
0A00
BFE0
FFD0
0D00
1C00
ENDCHAR
STARTCHAR uni0320
ENCODING 800
SWIDTH 600 0
DWIDTH 17 0
BBX 6 2 3 -5
BITMAP
BFE0
FFD0
ENDCHAR
STARTCHAR uni0323
ENCODING 803
SWIDTH 600 0
DWIDTH 17 0
BBX 4 3 4 -6
BITMAP
7D
FD
B8
ENDCHAR
STARTCHAR uni0324
ENCODING 804
SWIDTH 600 0
DWIDTH 17 0
BBX 8 3 2 -6
BITMAP
B41E
F83E
B42D
ENDCHAR
STARTCHAR uni0325
ENCODING 805
SWIDTH 600 0
DWIDTH 17 0
BBX 6 5 3 -7
BITMAP
2F80
A0E0
D0A0
E1D0
7E40
ENDCHAR
STARTCHAR uni0326
ENCODING 806
SWIDTH 600 0
DWIDTH 17 0
BBX 5 6 3 -7
BITMAP
0E40
1FC0
03C0
07C0
FF40
E800
ENDCHAR
STARTCHAR uni0327
ENCODING 807
SWIDTH 600 0
DWIDTH 17 0
BBX 5 7 3 -7
BITMAP
0740
0A00
1F40
07C0
03C0
1B40
E900
ENDCHAR
STARTCHAR uni0328
ENCODING 808
SWIDTH 600 0
DWIDTH 17 0
BBX 6 6 3 -6
BITMAP
0740
1D00
3400
B000
7440
2F90
ENDCHAR
STARTCHAR uni0329
ENCODING 809
SWIDTH 600 0
DWIDTH 17 0
BBX 3 5 4 -7
BITMAP
2C
38
38
74
B4
ENDCHAR
STARTCHAR uni032A
ENCODING 810
SWIDTH 600 0
DWIDTH 17 0
BBX 8 5 2 -7
BITMAP
7FFD
7FFD
A00C
A01C
9018
ENDCHAR
STARTCHAR uni032C
ENCODING 812
SWIDTH 600 0
DWIDTH 17 0
BBX 9 5 2 -6
BITMAP
900240
B40F40
3C7D00
1FF400
0FD000
ENDCHAR
STARTCHAR uni032E
ENCODING 814
SWIDTH 600 0
DWIDTH 17 0
BBX 9 5 2 -6
BITMAP
D00380
E00B40
B42E00
7FFC00
1FE000
ENDCHAR
STARTCHAR uni032F
ENCODING 815
SWIDTH 600 0
DWIDTH 17 0
BBX 9 5 1 -7
BITMAP
02F900
0FFF40
2D0B80
740380
B00280
ENDCHAR
STARTCHAR uni0330
ENCODING 816
SWIDTH 600 0
DWIDTH 17 0
BBX 10 5 1 -6
BITMAP
050010
2FC0B0
79F1E0
B07FD0
A01F40
ENDCHAR
STARTCHAR uni0331
ENCODING 817
SWIDTH 600 0
DWIDTH 17 0
BBX 8 2 2 -5
BITMAP
BFFD
FFFD
ENDCHAR
STARTCHAR uni0334
ENCODING 820
SWIDTH 600 0
DWIDTH 17 0
BBX 12 5 2 5
BITMAP
068009
1FF41D
2D7D3C
381FF4
6407E0
ENDCHAR
STARTCHAR uni0339
ENCODING 825
SWIDTH 600 0
DWIDTH 17 0
BBX 4 7 4 -8
BITMAP
38
7D
1E
0A
1E
FC
E0
ENDCHAR
STARTCHAR uni033A
ENCODING 826
SWIDTH 600 0
DWIDTH 17 0
BBX 8 5 2 -7
BITMAP
2009
700D
600D
BFFC
BFFC
ENDCHAR
STARTCHAR uni033B
ENCODING 827
SWIDTH 600 0
DWIDTH 17 0
BBX 8 5 2 -7
BITMAP
7FFE
7FFD
A00C
BFFC
FFF8
ENDCHAR
STARTCHAR uni033C
ENCODING 828
SWIDTH 600 0
DWIDTH 17 0
BBX 10 4 1 -6
BITMAP
1F4B80
7FAFD0
A1E1D0
D0D1C0
ENDCHAR
STARTCHAR uni033D
ENCODING 829
SWIDTH 600 0
DWIDTH 17 0
BBX 5 5 8 15
BITMAP
6140
7B40
3D00
EB00
4100
ENDCHAR
STARTCHAR uni0342
ENCODING 834
SWIDTH 600 0
DWIDTH 17 0
BBX 11 5 5 16
BITMAP
014010
1FD074
3DB4B0
743FE0
600F80
ENDCHAR
STARTCHAR uni0345
ENCODING 837
SWIDTH 600 0
DWIDTH 17 0
BBX 3 4 5 -6
BITMAP
B0
B0
FC
7C
ENDCHAR
STARTCHAR uni035F
ENCODING 863
SWIDTH 600 0
DWIDTH 17 0
BBX 28 2 -8 -5
BITMAP
BFFFFFFFFFFFFE
BFFFFFFFFFFFFD
ENDCHAR
STARTCHAR uni0361
ENCODING 865
SWIDTH 600 0
DWIDTH 17 0
BBX 25 5 -2 17
BITMAP
0001ABFE940000
006FFFFFFF8000
0BFA50016BF800
BE400000006F40
90000000000640
ENDCHAR
STARTCHAR pi
ENCODING 960
SWIDTH 600 0
DWIDTH 17 0
BBX 16 14 1 0
BITMAP
2FFFFFFE
3FFFFFFD
02D00780
02D00B40
03C00B40
07800F00
07801E00
0B401D00
0F002D00
0F003C00
1E003C00
2D007C00
3C003F80
7C001F80
ENDCHAR
STARTCHAR a.sups
ENCODING 7491
SWIDTH 600 0
DWIDTH 17 0
BBX 10 9 5 11
BITMAP
06F8D0
1FFEC0
7D0780
B40380
E00740
E00700
F41F00
BFEA00
2F8000
ENDCHAR
STARTCHAR b.sups
ENCODING 7495
SWIDTH 600 0
DWIDTH 17 0
BBX 10 13 5 11
BITMAP
010000
0B0000
0B0000
0E0000
1E6E40
1EFFC0
2E42D0
3C01D0
3801D0
7403C0
B81B80
AFFE00
47E400
ENDCHAR
STARTCHAR d.sups
ENCODING 7496
SWIDTH 600 0
DWIDTH 17 0
BBX 10 13 5 11
BITMAP
000050
0000B0
0000E0
0000D0
06F5D0
1FFEC0
7D0780
B40380
E00740
E00B00
F42F00
BFEE00
2F8400
ENDCHAR
STARTCHAR e.sups
ENCODING 7497
SWIDTH 600 0
DWIDTH 17 0
BBX 9 9 5 11
BITMAP
02FD00
0FFF40
2E4780
7802C0
BFFFC0
BFFF80
740A00
3FFE00
0BE400
ENDCHAR
STARTCHAR g.sups
ENCODING 7501
SWIDTH 600 0
DWIDTH 17 0
BBX 11 13 4 7
BITMAP
01BE34
07FFB0
0F41F0
2D00E0
3C01D0
3801D0
3D07C0
2FFBC0
0BE380
000740
641F00
BFFE00
1BE400
ENDCHAR
STARTCHAR k.sups
ENCODING 7503
SWIDTH 600 0
DWIDTH 17 0
BBX 10 13 5 11
BITMAP
038000
038000
074000
074000
0B00B0
0E0780
0E1E00
1D7800
2EFC00
2F5D00
3C0F00
380780
7402C0
ENDCHAR
STARTCHAR m.sups
ENCODING 7504
SWIDTH 600 0
DWIDTH 17 0
BBX 14 10 2 10
BITMAP
0A2F4BD0
0EBFAFF0
0F83E0B0
1E02C0B0
1D0380B0
2C0340E0
2C0740E0
380B01D0
340A01C0
64090180
ENDCHAR
STARTCHAR o.sups
ENCODING 7506
SWIDTH 600 0
DWIDTH 17 0
BBX 9 9 5 11
BITMAP
02FD00
1FFF80
3E07C0
B402C0
B002C0
F00780
B41F40
7FFE00
1BE400
ENDCHAR
STARTCHAR p.sups
ENCODING 7510
SWIDTH 600 0
DWIDTH 17 0
BBX 11 12 4 8
BITMAP
035BD0
07BFF4
0B90B8
0B0078
0E0078
0E00B4
1E06E0
2FFFC0
2CBE00
380000
740000
740000
ENDCHAR
STARTCHAR t.sups
ENCODING 7511
SWIDTH 600 0
DWIDTH 17 0
BBX 9 12 6 11
BITMAP
01C000
028000
038000
BFFF40
BFFF40
0B0000
0B0000
0E0000
1D0000
1E0400
1FFD00
0BE400
ENDCHAR
STARTCHAR u.sups
ENCODING 7512
SWIDTH 600 0
DWIDTH 17 0
BBX 10 9 5 11
BITMAP
1C01D0
2C02C0
3802C0
340380
740780
B00B40
B46F00
BFFB00
2F8600
ENDCHAR
STARTCHAR v.sups
ENCODING 7515
SWIDTH 600 0
DWIDTH 17 0
BBX 9 9 6 11
BITMAP
B00740
B00F00
742D00
747800
38B400
39E000
2AC000
2F4000
1F0000
ENDCHAR
STARTCHAR c.sups
ENCODING 7580
SWIDTH 600 0
DWIDTH 17 0
BBX 9 9 5 11
BITMAP
01BE00
0BFF80
1F4140
3C0000
380000
780000
3D0A00
2FFE00
0BE400
ENDCHAR
STARTCHAR f.sups
ENCODING 7584
SWIDTH 600 0
DWIDTH 17 0
BBX 9 15 7 10
BITMAP
006F40
01FFC0
03D040
078000
0B4000
FFFE00
FFFE00
0E0000
0E0000
1D0000
2C0000
2C0000
380000
380000
640000
ENDCHAR
STARTCHAR z.sups
ENCODING 7611
SWIDTH 600 0
DWIDTH 17 0
BBX 10 9 5 11
BITMAP
1FFFD0
2FFF40
000900
002400
009000
024000
180000
7FFF00
FFFF00
ENDCHAR
STARTCHAR uni1E06
ENCODING 7686
SWIDTH 600 0
DWIDTH 17 0
BBX 15 23 1 -5
BITMAP
01FFFE40
01FFFFD0
02E007F0
03D000F4
03C000F4
07C001F0
078007D0
0BAABF40
0FFFF800
0F55AF40
1F0007C0
2E0002D0
2D0002E0
3D0002D0
3C0007C0
78006F40
BFFFFD00
BFFF9000
00000000
00000000
00000000
1FFFC000
1FFF8000
ENDCHAR
STARTCHAR uni1E07
ENCODING 7687
SWIDTH 600 0
DWIDTH 17 0
BBX 14 25 1 -5
BITMAP
00F00000
01E00000
02E00000
02D00000
03D00000
03C00000
0786FE00
0BAFFF80
0BF90BD0
0FC002E0
0F0001F0
1E0001F0
1E0001F0
2D0001E0
3C0002D0
3C0007C0
7D001F80
7F40BE00
B7FFF800
F0BF9000
00000000
00000000
00000000
0FFFC000
1FFFC000
ENDCHAR
STARTCHAR uni1E0C
ENCODING 7692
SWIDTH 600 0
DWIDTH 17 0
BBX 16 24 0 -6
BITMAP
00BFF900
00FFFFD0
01F017F4
01E000F8
02E0007D
03D0003D
03C0002E
07C0002E
0780002D
0B80003D
0F40003C
0F00007C
1F0000F4
1E0002F0
2D000BD0
3D01BF40
3FFFF900
7FFE9000
00000000
00000000
00000000
00B80000
01FD0000
00B80000
ENDCHAR
STARTCHAR uni1E0D
ENCODING 7693
SWIDTH 600 0
DWIDTH 17 0
BBX 16 26 1 -6
BITMAP
0000001E
0000002D
0000003D
0000003C
0000007C
00000078
001BE4B4
01FFFEB4
07F41BF0
0F8002F0
2F0001E0
3D0002D0
7C0003D0
780003C0
B80007C0
B8000B80
7C002F40
3F41BF40
1FFFDF00
06F90F00
00000000
00000000
00000000
00B80000
02FC0000
01F40000
ENDCHAR
STARTCHAR uni1E0E
ENCODING 7694
SWIDTH 600 0
DWIDTH 17 0
BBX 16 23 0 -5
BITMAP
00BFF900
00FFFFD0
01F017F4
01E000F8
02E0007D
03D0003D
03C0002E
07C0002E
0780002D
0B80003D
0F40003C
0F00007C
1F0000F4
1E0002F0
2D000BD0
3D01BF40
3FFFF900
7FFE9000
00000000
00000000
00000000
0FFFD000
0FFFC000
ENDCHAR
STARTCHAR uni1E0F
ENCODING 7695
SWIDTH 600 0
DWIDTH 17 0
BBX 16 25 1 -5
BITMAP
0000001E
0000002D
0000003D
0000003C
0000007C
00000078
001BE4B4
01FFFEB4
07F41BF0
0F8002F0
2F0001E0
3D0002D0
7C0003D0
780003C0
B80007C0
B8000B80
7C002F40
3F41BF40
1FFFDF00
06F90F00
00000000
00000000
00000000
1FFFC000
1FFF8000
ENDCHAR
STARTCHAR uni1E10
ENCODING 7696
SWIDTH 600 0
DWIDTH 17 0
BBX 16 25 0 -7
BITMAP
00BFF900
00FFFFD0
01F017F4
01E000F8
02E0007D
03D0003D
03C0002E
07C0002E
0780002D
0B80003D
0F40003C
0F00007C
1F0000F4
1E0002F0
2D000BD0
3D01BF40
3FFFF900
7FFE9000
002C0000
00740000
00B80000
002E0000
001D0000
007C0000
07900000
ENDCHAR
STARTCHAR uni1E11
ENCODING 7697
SWIDTH 600 0
DWIDTH 17 0
BBX 16 27 1 -7
BITMAP
0000001E
0000002D
0000003D
0000003C
0000007C
00000078
001BE4B4
01FFFEB4
07F41BF0
0F8002F0
2F0001E0
3D0002D0
7C0003D0
780003C0
B80007C0
B8000B80
7C002F40
3F41BF40
1FFFDF00
06F90F00
00740000
00E00000
02F40000
007C0000
00380000
01B40000
1E800000
ENDCHAR
STARTCHAR uni1E16
ENCODING 7702
SWIDTH 600 0
DWIDTH 17 0
BBX 16 27 1 0
BITMAP
00000024
000000F4
000003D0
00000600
00000000
0002FFF8
0002FFF4
00000000
00000000
00BFFFFE
00FFFFFD
00F00000
01E00000
02E00000
02D00000
03C00000
03FFFF80
07FFFF40
0B800000
0B400000
0F000000
1F000000
1E000000
2E000000
2D000000
3FFFFF80
7FFFFF40
ENDCHAR
STARTCHAR uni1E17
ENCODING 7703
SWIDTH 600 0
DWIDTH 17 0
BBX 14 24 1 0
BITMAP
00000240
00000780
00001E00
00002400
00000000
000FFFC0
001FFFC0
00000000
00000000
00000000
001BF900
00BFFF40
03F41BC0
0BC002D0
1F0001E0
2E0001E0
3FFFFFE0
7FFFFFD0
7C000000
3C000000
3D000200
1F906F40
0BFFFD00
01BF9000
ENDCHAR
STARTCHAR uni1E20
ENCODING 7712
SWIDTH 600 0
DWIDTH 17 0
BBX 15 22 1 0
BITMAP
0003FFF4
0003FFF0
00000000
00000000
0001BF40
002FFFE0
00BE41B8
02F40024
07D00000
0F400000
1F000000
2E000000
3D000000
7C00BFF0
7C00FFF0
7C0001E0
7C0002D0
3D0002D0
2F0003C0
0FD01B80
07FFFF40
006FE400
ENDCHAR
STARTCHAR uni1E21
ENCODING 7713
SWIDTH 600 0
DWIDTH 17 0
BBX 16 25 0 -6
BITMAP
0003FFF4
0003FFF0
00000000
00000000
00000000
0006F91D
007FFFAD
01FD06FC
03E000B8
07C00078
0F4000B4
1F0000F4
1E0000F0
1E0001E0
1F0002E0
1F400BD0
0FD57FD0
07FFE7C0
00AA4780
00000780
00000B40
10001F00
7901BD00
2FFFF400
06FE8000
ENDCHAR
STARTCHAR uni1E24
ENCODING 7716
SWIDTH 600 0
DWIDTH 17 0
BBX 17 24 0 -6
BITMAP
00F4000B40
00F0000F00
01E0001F00
02E0001E00
02D0002E00
03C0003D00
03C0003C00
07FFFFFC00
0BFFFFF800
0B4000B800
0F0000F400
1F0000F000
1E0001F000
2E0002E000
2D0002E000
3D0003D000
7C0003C000
780007C000
0000000000
0000000000
0000000000
007D000000
00FD000000
00B8000000
ENDCHAR
STARTCHAR uni1E25
ENCODING 7717
SWIDTH 600 0
DWIDTH 17 0
BBX 14 26 1 -6
BITMAP
00F00000
01F00000
02E00000
02D00000
03D00000
03C00000
0781BE40
0B8BFFD0
0BBD07E0
0FE001E0
0F8001E0
1E0002E0
1E0002D0
2D0003D0
3D0003C0
3C000780
78000B80
78000B40
B4000F40
F4000F00
00000000
00000000
00000000
00B80000
01FC0000
00F40000
ENDCHAR
STARTCHAR uni1E26
ENCODING 7718
SWIDTH 600 0
DWIDTH 17 0
BBX 17 23 0 0
BITMAP
0001D07800
0003E0B800
0002D07400
0000000000
0000000000
00F4000B40
00F0000F00
01E0001F00
02E0001E00
02D0002E00
03C0003D00
03C0003C00
07FFFFFC00
0BFFFFF800
0B4000B800
0F0000F400
1F0000F000
1E0001F000
2E0002E000
2D0002E000
3D0003D000
7C0003C000
780007C000
ENDCHAR
STARTCHAR uni1E27
ENCODING 7719
SWIDTH 600 0
DWIDTH 17 0
BBX 14 25 1 0
BITMAP
0B02D000
1F43D000
0E02C000
00000000
00000000
00F00000
01F00000
02E00000
02D00000
03D00000
03C00000
0781BE40
0B8BFFD0
0BBD07E0
0FE001E0
0F8001E0
1E0002E0
1E0002D0
2D0003D0
3D0003C0
3C000780
78000B80
78000B40
B4000F40
F4000F00
ENDCHAR
STARTCHAR uni1E28
ENCODING 7720
SWIDTH 600 0
DWIDTH 17 0
BBX 19 25 -2 -7
BITMAP
000F4000B4
000F0000F0
001E0001F0
002E0001E0
002D0002E0
003C0003D0
003C0003C0
007FFFFFC0
00BFFFFF80
00B4000B80
00F0000F40
01F0000F00
01E0001F00
02E0002E00
02D0002E00
03D0003D00
07C0003C00
0780007C00
0740000000
0A00000000
1F40000000
07C0000000
03C0000000
1B40000000
E900000000
ENDCHAR
STARTCHAR uni1E29
ENCODING 7721
SWIDTH 600 0
DWIDTH 17 0
BBX 17 27 -2 -7
BITMAP
0003C00000
0007C00000
000B800000
000B400000
000F400000
000F000000
001E06F900
002E2FFF40
002EF41F80
003F800780
003E000780
0078000B80
0078000B40
00B4000F40
00F4000F00
00F0001E00
01E0002E00
01E0002D00
02D0003D00
03D0003C00
0280000000
0700000000
0F80000000
06D0000000
01D0000000
0780000000
B900000000
ENDCHAR
STARTCHAR uni1E2A
ENCODING 7722
SWIDTH 600 0
DWIDTH 17 0
BBX 17 24 0 -6
BITMAP
00F4000B40
00F0000F00
01E0001F00
02E0001E00
02D0002E00
03C0003D00
03C0003C00
07FFFFFC00
0BFFFFF800
0B4000B800
0F0000F400
1F0000F000
1E0001F000
2E0002E000
2D0002E000
3D0003D000
7C0003C000
780007C000
0000000000
0D00380000
0E00B40000
0B42E00000
07FFC00000
01FE000000
ENDCHAR
STARTCHAR uni1E2B
ENCODING 7723
SWIDTH 600 0
DWIDTH 17 0
BBX 14 26 1 -6
BITMAP
00F00000
01F00000
02E00000
02D00000
03D00000
03C00000
0781BE40
0B8BFFD0
0BBD07E0
0FE001E0
0F8001E0
1E0002E0
1E0002D0
2D0003D0
3D0003C0
3C000780
78000B80
78000B40
B4000F40
F4000F00
00000000
1C007000
1D00E000
1F47D000
0BFF4000
02F90000
ENDCHAR
STARTCHAR uni1E32
ENCODING 7730
SWIDTH 600 0
DWIDTH 17 0
BBX 16 24 1 -6
BITMAP
01F0002E
01E000B8
02E002E0
03D00B80
03C02E00
07C0B800
0783D000
0B4FC000
0F7FD000
0FF6E000
1FD1F000
2F40B800
2D007C00
3D003D00
3C001F00
7C000F40
B8000BC0
B40003D0
00000000
00000000
00000000
002E0000
007F0000
007D0000
ENDCHAR
STARTCHAR uni1E33
ENCODING 7731
SWIDTH 600 0
DWIDTH 17 0
BBX 15 26 1 -6
BITMAP
00B40000
00F40000
00F00000
01E00000
02E00000
02D00000
03D000B8
03C003E0
07801F80
0B807E00
0B41F400
0F4BD000
0F2FD000
1FF9F000
2FE0B400
2F407C00
3D002D00
3C001F00
78000B40
B80007C0
00000000
00000000
00000000
007D0000
00BE0000
007D0000
ENDCHAR
STARTCHAR uni1E34
ENCODING 7732
SWIDTH 600 0
DWIDTH 17 0
BBX 16 23 1 -5
BITMAP
01F0002E
01E000B8
02E002E0
03D00B80
03C02E00
07C0B800
0783D000
0B4FC000
0F7FD000
0FF6E000
1FD1F000
2F40B800
2D007C00
3D003D00
3C001F00
7C000F40
B8000BC0
B40003D0
00000000
00000000
00000000
07FFF000
07FFE000
ENDCHAR
STARTCHAR uni1E35
ENCODING 7733
SWIDTH 600 0
DWIDTH 17 0
BBX 15 25 1 -5
BITMAP
00B40000
00F40000
00F00000
01E00000
02E00000
02D00000
03D000B8
03C003E0
07801F80
0B807E00
0B41F400
0F4BD000
0F2FD000
1FF9F000
2FE0B400
2F407C00
3D002D00
3C001F00
78000B40
B80007C0
00000000
00000000
00000000
07FFE000
0BFFE000
ENDCHAR
STARTCHAR uni1E36
ENCODING 7734
SWIDTH 600 0
DWIDTH 17 0
BBX 12 24 3 -6
BITMAP
02E000
03D000
03C000
07C000
078000
0B4000
0F4000
0F0000
1F0000
2E0000
2D0000
3D0000
3C0000
780000
B80000
B40000
FFFFFD
FFFFFC
000000
000000
000000
01F400
03F400
02E000
ENDCHAR
STARTCHAR uni1E37
ENCODING 7735
SWIDTH 600 0
DWIDTH 17 0
BBX 9 26 4 -6
BITMAP
BFFC00
FFF800
00B400
00F400
00F000
01E000
01E000
02D000
03C000
03C000
078000
0B4000
0B4000
0F0000
1E0000
1E0000
2E0000
1F4140
0FFF80
02FA00
000000
000000
000000
02E000
07F000
07D000
ENDCHAR
STARTCHAR uni1E38
ENCODING 7736
SWIDTH 600 0
DWIDTH 17 0
BBX 12 28 3 -6
BITMAP
1FFFC0
1FFF80
000000
000000
02E000
03D000
03C000
07C000
078000
0B4000
0F4000
0F0000
1F0000
2E0000
2D0000
3D0000
3C0000
780000
B80000
B40000
FFFFFD
FFFFFC
000000
000000
000000
01F400
03F400
02E000
ENDCHAR
STARTCHAR uni1E39
ENCODING 7737
SWIDTH 600 0
DWIDTH 17 0
BBX 10 30 4 -6
BITMAP
07FFF0
07FFE0
000000
000000
BFFC00
FFF800
00B400
00F400
00F000
01E000
01E000
02D000
03C000
03C000
078000
0B4000
0B4000
0F0000
1E0000
1E0000
2E0000
1F4140
0FFF80
02FA00
000000
000000
000000
02E000
07F000
07D000
ENDCHAR
STARTCHAR uni1E3A
ENCODING 7738
SWIDTH 600 0
DWIDTH 17 0
BBX 12 23 3 -5
BITMAP
02E000
03D000
03C000
07C000
078000
0B4000
0F4000
0F0000
1F0000
2E0000
2D0000
3D0000
3C0000
780000
B80000
B40000
FFFFFD
FFFFFC
000000
000000
000000
2FFF40
3FFF40
ENDCHAR
STARTCHAR uni1E3B
ENCODING 7739
SWIDTH 600 0
DWIDTH 17 0
BBX 9 25 4 -5
BITMAP
BFFC00
FFF800
00B400
00F400
00F000
01E000
01E000
02D000
03C000
03C000
078000
0B4000
0B4000
0F0000
1E0000
1E0000
2E0000
1F4140
0FFF80
02FA00
000000
000000
000000
7FFF00
7FFE00
ENDCHAR
STARTCHAR uni1E3E
ENCODING 7742
SWIDTH 600 0
DWIDTH 17 0
BBX 17 24 0 0
BITMAP
0000006000
000002F400
00001F9000
0000190000
0000000000
0000000000
00F8001F40
01FC003F40
01FC00BF00
02ED00EE00
02DD02DE00
03DD07AD00
079E0B2D00
078E1E3C00
0B4E3C7800
0F0B747800
0F0BB0B400
1E0BD0F000
1E07C0F000
2D0001E000
3C0001E000
3C0002D000
780003C000
780003C000
ENDCHAR
STARTCHAR uni1E3F
ENCODING 7743
SWIDTH 600 0
DWIDTH 17 0
BBX 16 22 0 0
BITMAP
00000060
000001F4
000007E0
00001F80
00007D00
00002400
00000000
00000000
074BD1BD
0B7FF7FE
0BE1FD2F
0F80F41E
0F01F01E
1E01E02D
2E02D03D
2D02D03C
3D03C078
3C0780B8
780780B4
B80B40F4
B40F40F0
F40F01E0
ENDCHAR
STARTCHAR uni1E40
ENCODING 7744
SWIDTH 600 0
DWIDTH 17 0
BBX 17 23 0 0
BITMAP
00000B0000
00001F4000
00001E0000
0000000000
0000000000
00F8001F40
01FC003F40
01FC00BF00
02ED00EE00
02DD02DE00
03DD07AD00
079E0B2D00
078E1E3C00
0B4E3C7800
0F0B747800
0F0BB0B400
1E0BD0F000
1E07C0F000
2D0001E000
3C0001E000
3C0002D000
780003C000
780003C000
ENDCHAR
STARTCHAR uni1E41
ENCODING 7745
SWIDTH 600 0
DWIDTH 17 0
BBX 16 20 0 0
BITMAP
00002F00
00003F40
00002E00
00000000
00000000
00000000
074BD1BD
0B7FF7FE
0BE1FD2F
0F80F41E
0F01F01E
1E01E02D
2E02D03D
2D02D03C
3D03C078
3C0780B8
780780B4
B80B40F4
B40F40F0
F40F01E0
ENDCHAR
STARTCHAR uni1E42
ENCODING 7746
SWIDTH 600 0
DWIDTH 17 0
BBX 17 24 0 -6
BITMAP
00F8001F40
01FC003F40
01FC00BF00
02ED00EE00
02DD02DE00
03DD07AD00
079E0B2D00
078E1E3C00
0B4E3C7800
0F0B747800
0F0BB0B400
1E0BD0F000
1E07C0F000
2D0001E000
3C0001E000
3C0002D000
780003C000
780003C000
0000000000
0000000000
0000000000
007D000000
00FD000000
00B8000000
ENDCHAR
STARTCHAR uni1E43
ENCODING 7747
SWIDTH 600 0
DWIDTH 17 0
BBX 16 20 0 -6
BITMAP
074BD1BD
0B7FF7FE
0BE1FD2F
0F80F41E
0F01F01E
1E01E02D
2E02D03D
2D02D03C
3D03C078
3C0780B8
780780B4
B80B40F4
B40F40F0
F40F01E0
00000000
00000000
00000000
006D0000
00BE0000
007D0000
ENDCHAR
STARTCHAR uni1E44
ENCODING 7748
SWIDTH 600 0
DWIDTH 17 0
BBX 17 23 0 0
BITMAP
00000B0000
00001F4000
00001E0000
0000000000
0000000000
00B8000B40
00FC000F00
00FD001F00
01EE001E00
02DB002D00
02CB403D00
03C7803C00
03C3C07800
0782D07800
0B41E0B400
0B40F0B400
0F00B4F000
1F0078E000
1E003DE000
2D002ED000
2D001FD000
3C000FC000
7C000B8000
ENDCHAR
STARTCHAR uni1E45
ENCODING 7749
SWIDTH 600 0
DWIDTH 17 0
BBX 14 20 1 0
BITMAP
00007C00
0000FD00
0000B800
00000000
00000000
00000000
0741BE40
0B4BFFD0
0B7D07E0
0FE001E0
0F8001E0
1F0002E0
2E0002D0
2D0003D0
3D0003C0
3C000780
7C000B80
B8000B40
B4000F40
F4000F00
ENDCHAR
STARTCHAR uni1E46
ENCODING 7750
SWIDTH 600 0
DWIDTH 17 0
BBX 17 24 0 -6
BITMAP
00B8000B40
00FC000F00
00FD001F00
01EE001E00
02DB002D00
02CB403D00
03C7803C00
03C3C07800
0782D07800
0B41E0B400
0B40F0B400
0F00B4F000
1F0078E000
1E003DE000
2D002ED000
2D001FD000
3C000FC000
7C000B8000
0000000000
0000000000
0000000000
002E000000
00BF000000
007D000000
ENDCHAR
STARTCHAR uni1E47
ENCODING 7751
SWIDTH 600 0
DWIDTH 17 0
BBX 14 20 1 -6
BITMAP
0741BE40
0B4BFFD0
0B7D07E0
0FE001E0
0F8001E0
1F0002E0
2E0002D0
2D0003D0
3D0003C0
3C000780
7C000B80
B8000B40
B4000F40
F4000F00
00000000
00000000
00000000
00B80000
01FC0000
00F40000
ENDCHAR
STARTCHAR uni1E48
ENCODING 7752
SWIDTH 600 0
DWIDTH 17 0
BBX 17 23 0 -5
BITMAP
00B8000B40
00FC000F00
00FD001F00
01EE001E00
02DB002D00
02CB403D00
03C7803C00
03C3C07800
0782D07800
0B41E0B400
0B40F0B400
0F00B4F000
1F0078E000
1E003DE000
2D002ED000
2D001FD000
3C000FC000
7C000B8000
0000000000
0000000000
0000000000
07FFF00000
07FFE00000
ENDCHAR
STARTCHAR uni1E49
ENCODING 7753
SWIDTH 600 0
DWIDTH 17 0
BBX 14 19 1 -5
BITMAP
0741BE40
0B4BFFD0
0B7D07E0
0FE001E0
0F8001E0
1F0002E0
2E0002D0
2D0003D0
3D0003C0
3C000780
7C000B80
B8000B40
B4000F40
F4000F00
00000000
00000000
00000000
0FFFC000
1FFFC000
ENDCHAR
STARTCHAR uni1E52
ENCODING 7762
SWIDTH 600 0
DWIDTH 17 0
BBX 15 27 1 0
BITMAP
00000090
000002D0
00000F40
00001800
00000000
000BFFE0
000BFFD0
00000000
00000000
000AF900
007FFF80
02F907E0
07D001F4
0F4000B8
2E0000B8
3D00007C
7C000078
B8000078
B40000B8
B40000F4
F40001F0
B80002E0
B80007C0
7D001F40
2F41BE00
0BFFF400
01BE8000
ENDCHAR
STARTCHAR uni1E53
ENCODING 7763
SWIDTH 600 0
DWIDTH 17 0
BBX 14 24 1 0
BITMAP
00000240
00000B40
00002D00
00002400
00000000
001FFF80
001FFF80
00000000
00000000
00000000
001BF800
01FFFF40
07E41FC0
1F4003D0
3E0002E0
7C0001E0
B80001E0
B80002E0
B80003D0
B80007C0
7D001F40
2F41BE00
0FFFF400
02BE8000
ENDCHAR
STARTCHAR uni1E58
ENCODING 7768
SWIDTH 600 0
DWIDTH 17 0
BBX 15 23 1 0
BITMAP
00003C00
0000BD00
00007800
00000000
00000000
01FFFA40
02FFFFD0
03D006F0
03C000F4
07C000F4
078000F4
0B4002E0
0F401BD0
0FFFFF40
1FFFE400
1E03D000
2D02E000
3D01F000
3C00F400
78007C00
B8003D00
B4002E00
F4001F00
ENDCHAR
STARTCHAR uni1E59
ENCODING 7769
SWIDTH 600 0
DWIDTH 17 0
BBX 14 20 2 0
BITMAP
0000B800
0001FC00
0000F400
00000000
00000000
00000000
02C06F90
03C2FFD0
03CB4040
07A80000
07E00000
0BC00000
0B400000
0F000000
1F000000
1E000000
2D000000
2D000000
3C000000
7C000000
ENDCHAR
STARTCHAR uni1E5A
ENCODING 7770
SWIDTH 600 0
DWIDTH 17 0
BBX 15 24 1 -6
BITMAP
01FFFA40
02FFFFD0
03D006F0
03C000F4
07C000F4
078000F4
0B4002E0
0F401BD0
0FFFFF40
1FFFE400
1E03D000
2D02E000
3D01F000
3C00F400
78007C00
B8003D00
B4002E00
F4001F00
00000000
00000000
00000000
00B80000
01FD0000
00B80000
ENDCHAR
STARTCHAR uni1E5B
ENCODING 7771
SWIDTH 600 0
DWIDTH 17 0
BBX 15 20 1 -6
BITMAP
00B01BE4
00F0BFF4
00F2D010
01EA0000
01F80000
02F00000
02D00000
03C00000
07C00000
07800000
0B400000
0B400000
0F000000
1F000000
00000000
00000000
00000000
6D000000
BE000000
7D000000
ENDCHAR
STARTCHAR uni1E5C
ENCODING 7772
SWIDTH 600 0
DWIDTH 17 0
BBX 15 28 1 -6
BITMAP
000BFFE0
000BFFD0
00000000
00000000
01FFFA40
02FFFFD0
03D006F0
03C000F4
07C000F4
078000F4
0B4002E0
0F401BD0
0FFFFF40
1FFFE400
1E03D000
2D02E000
3D01F000
3C00F400
78007C00
B8003D00
B4002E00
F4001F00
00000000
00000000
00000000
00B80000
01FD0000
00B80000
ENDCHAR
STARTCHAR uni1E5D
ENCODING 7773
SWIDTH 600 0
DWIDTH 17 0
BBX 15 25 1 -6
BITMAP
0007FFF0
0007FFE0
00000000
00000000
00000000
00B01BE4
00F0BFF4
00F2D010
01EA0000
01F80000
02F00000
02D00000
03C00000
07C00000
07800000
0B400000
0B400000
0F000000
1F000000
00000000
00000000
00000000
6D000000
BE000000
7D000000
ENDCHAR
STARTCHAR uni1E5E
ENCODING 7774
SWIDTH 600 0
DWIDTH 17 0
BBX 15 23 1 -5
BITMAP
01FFFA40
02FFFFD0
03D006F0
03C000F4
07C000F4
078000F4
0B4002E0
0F401BD0
0FFFFF40
1FFFE400
1E03D000
2D02E000
3D01F000
3C00F400
78007C00
B8003D00
B4002E00
F4001F00
00000000
00000000
00000000
0FFFD000
0FFFC000
ENDCHAR
STARTCHAR uni1E5F
ENCODING 7775
SWIDTH 600 0
DWIDTH 17 0
BBX 17 19 -1 -5
BITMAP
000B01BE40
000F0BFF40
000F2D0100
001EA00000
001F800000
002F000000
002D000000
003C000000
007C000000
0078000000
00B4000000
00B4000000
00F0000000
01F0000000
0000000000
0000000000
0000000000
7FFE000000
BFFE000000
ENDCHAR
STARTCHAR uni1E60
ENCODING 7776
SWIDTH 600 0
DWIDTH 17 0
BBX 14 23 1 0
BITMAP
00007800
0000FC00
0000B800
00000000
00000000
001BF900
00BFFF80
01F807E0
03E00090
03D00000
03D00000
02F40000
00BE0000
002FE000
0006F800
00007E00
00001F40
00000B40
10000B40
B8001F40
7E40BE00
1FFFF800
01BF9000
ENDCHAR
STARTCHAR uni1E61
ENCODING 7777
SWIDTH 600 0
DWIDTH 17 0
BBX 13 20 1 0
BITMAP
0000B800
0001FC00
0001F400
00000000
00000000
00000000
006FE400
02FFFF40
03D01BC0
07800140
07C00000
02F40000
00BF9000
001BF800
00006F00
00000F40
28000F40
7F406F00
1BFFFD00
01BFA000
ENDCHAR
STARTCHAR uni1E62
ENCODING 7778
SWIDTH 600 0
DWIDTH 17 0
BBX 14 24 1 -6
BITMAP
001BF900
00BFFF80
01F807E0
03E00090
03D00000
03D00000
02F40000
00BE0000
002FE000
0006F800
00007E00
00001F40
00000B40
10000B40
B8001F40
7E40BE00
1FFFF800
01BF9000
00000000
00000000
00000000
00B80000
01FD0000
00B80000
ENDCHAR
STARTCHAR uni1E63
ENCODING 7779
SWIDTH 600 0
DWIDTH 17 0
BBX 13 20 1 -6
BITMAP
006FE400
02FFFF40
03D01BC0
07800140
07C00000
02F40000
00BF9000
001BF800
00006F00
00000F40
28000F40
7F406F00
1BFFFD00
01BFA000
00000000
00000000
00000000
00B80000
01FD0000
00B80000
ENDCHAR
STARTCHAR uni1E6C
ENCODING 7788
SWIDTH 600 0
DWIDTH 17 0
BBX 15 24 3 -6
BITMAP
FFFFFFF4
FFFFFFF4
001F0000
001E0000
002D0000
003D0000
003C0000
007C0000
00780000
00B40000
00F40000
00F00000
01F00000
02E00000
02D00000
03D00000
03C00000
07C00000
00000000
00000000
00000000
1F400000
3F800000
2E000000
ENDCHAR
STARTCHAR uni1E6D
ENCODING 7789
SWIDTH 600 0
DWIDTH 17 0
BBX 13 24 2 -6
BITMAP
002D0000
002C0000
003C0000
00780000
BFFFFFC0
FFFFFFC0
00F00000
01E00000
02E00000
02D00000
03D00000
03C00000
07800000
07800000
07800000
07E01800
02FFFD00
00BFA000
00000000
00000000
00000000
007D0000
00FE0000
00B80000
ENDCHAR
STARTCHAR uni1E6E
ENCODING 7790
SWIDTH 600 0
DWIDTH 17 0
BBX 16 23 2 -5
BITMAP
3FFFFFFD
3FFFFFFD
0007C000
00078000
000B4000
000F4000
000F0000
001F0000
001E0000
002D0000
003D0000
003C0000
007C0000
00B80000
00B40000
00F40000
00F00000
01F00000
00000000
00000000
00000000
BFFD0000
BFFD0000
ENDCHAR
STARTCHAR uni1E6F
ENCODING 7791
SWIDTH 600 0
DWIDTH 17 0
BBX 13 23 2 -5
BITMAP
002D0000
002C0000
003C0000
00780000
BFFFFFC0
FFFFFFC0
00F00000
01E00000
02E00000
02D00000
03D00000
03C00000
07800000
07800000
07800000
07E01800
02FFFD00
00BFA000
00000000
00000000
00000000
0BFFE000
0BFFD000
ENDCHAR
STARTCHAR uni1E7E
ENCODING 7806
SWIDTH 600 0
DWIDTH 17 0
BBX 15 24 3 -6
BITMAP
B80000F4
780001F0
7C0003D0
7C000B80
3C000F40
3C002E00
3D003C00
2D00B800
2D00F000
2D02E000
2E03C000
1E0B4000
1E1F0000
1E2D0000
0F780000
0FB40000
0FE00000
0BC00000
00000000
00000000
00000000
1F400000
3F400000
2E000000
ENDCHAR
STARTCHAR uni1E7F
ENCODING 7807
SWIDTH 600 0
DWIDTH 17 0
BBX 14 20 2 -6
BITMAP
780001F0
7C0002D0
3C000780
2D000F40
2E001E00
1E003C00
0F00B400
0F01F000
0B42D000
07878000
078F0000
03DE0000
02FC0000
02F40000
00000000
00000000
00000000
07D00000
0BE00000
07D00000
ENDCHAR
STARTCHAR Wgrave
ENCODING 7808
SWIDTH 600 0
DWIDTH 17 0
BBX 17 24 1 0
BITMAP
0002400000
0007D00000
0001F00000
00007C0000
0000180000
0000000000
1E00000780
1E00000B40
2E00000F40
2D00000F00
2D00001E00
2D03D02D00
2D07D03C00
3C0AD07800
3C1DD0B400
3C2CE0F000
3C38E1E000
38B0E2D000
38E0A3C000
79D0B38000
7BC0B74000
7B40BB0000
7F00BE0000
7E007D0000
ENDCHAR
STARTCHAR wgrave
ENCODING 7809
SWIDTH 600 0
DWIDTH 17 0
BBX 17 22 1 0
BITMAP
0002400000
000B800000
0007D00000
0001F00000
0000B80000
0000240000
0000000000
0000000000
B401400F40
B407D01E00
B40BD02D00
B40ED03C00
B41DD07800
B43DD0B400
B478E1E000
B4B0E2D000
B4E0E3C000
76D0E78000
77C0EB0000
7B40EE0000
7F00FD0000
7E00FC0000
ENDCHAR
STARTCHAR Wacute
ENCODING 7810
SWIDTH 600 0
DWIDTH 17 0
BBX 17 24 1 0
BITMAP
0000018000
00000BD000
00007E0000
0000640000
0000000000
0000000000
1E00000780
1E00000B40
2E00000F40
2D00000F00
2D00001E00
2D03D02D00
2D07D03C00
3C0AD07800
3C1DD0B400
3C2CE0F000
3C38E1E000
38B0E2D000
38E0A3C000
79D0B38000
7BC0B74000
7B40BB0000
7F00BE0000
7E007D0000
ENDCHAR
STARTCHAR wacute
ENCODING 7811
SWIDTH 600 0
DWIDTH 17 0
BBX 17 22 1 0
BITMAP
0000020000
00000B8000
00002F4000
0000BC0000
0002E00000
0001800000
0000000000
0000000000
B401400F40
B407D01E00
B40BD02D00
B40ED03C00
B41DD07800
B43DD0B400
B478E1E000
B4B0E2D000
B4E0E3C000
76D0E78000
77C0EB0000
7B40EE0000
7F00FD0000
7E00FC0000
ENDCHAR
STARTCHAR Wdieresis
ENCODING 7812
SWIDTH 600 0
DWIDTH 17 0
BBX 17 23 1 0
BITMAP
000741D000
000F42E000
000B02D000
0000000000
0000000000
1E00000780
1E00000B40
2E00000F40
2D00000F00
2D00001E00
2D03D02D00
2D07D03C00
3C0AD07800
3C1DD0B400
3C2CE0F000
3C38E1E000
38B0E2D000
38E0A3C000
79D0B38000
7BC0B74000
7B40BB0000
7F00BE0000
7E007D0000
ENDCHAR
STARTCHAR wdieresis
ENCODING 7813
SWIDTH 600 0
DWIDTH 17 0
BBX 17 19 1 0
BITMAP
001E078000
003E0BC000
002D074000
0000000000
0000000000
B401400F40
B407D01E00
B40BD02D00
B40ED03C00
B41DD07800
B43DD0B400
B478E1E000
B4B0E2D000
B4E0E3C000
76D0E78000
77C0EB0000
7B40EE0000
7F00FD0000
7E00FC0000
ENDCHAR
STARTCHAR uni1E8E
ENCODING 7822
SWIDTH 600 0
DWIDTH 17 0
BBX 15 23 3 0
BITMAP
00078000
000BC000
000B8000
00000000
00000000
B40000F4
780002D0
3C000B80
3D001F00
2E003D00
1F00B800
0F41F000
0B83D000
07CB8000
03DF0000
02FD0000
01F40000
01F00000
01E00000
02D00000
03D00000
03C00000
07C00000
ENDCHAR
STARTCHAR uni1E8F
ENCODING 7823
SWIDTH 600 0
DWIDTH 17 0
BBX 17 26 -1 -6
BITMAP
00001B4000
00002F8000
00001F4000
0000000000
0000000000
0000000000
01E00007C0
01F0000B40
00F0001E00
00B4003D00
007800B800
007800F000
003C02D000
002D078000
002D0F4000
001E1E0000
000E3C0000
000B740000
000BE00000
0007D00000
0007800000
001F000000
003D000000
41F8000000
FFE0000000
BE40000000
ENDCHAR
STARTCHAR uni1E90
ENCODING 7824
SWIDTH 600 0
DWIDTH 17 0
BBX 17 24 0 0
BITMAP
00002F4000
0000FBD000
0007D0F000
000A002400
0000000000
0000000000
01FFFFFF40
01FFFFFF00
0000007D00
000001F400
000003E000
00000B8000
00002E0000
0000BC0000
0001F40000
0007D00000
001F400000
003E000000
00B8000000
02E0000000
0BC0000000
1F40000000
7FFFFFF000
7FFFFFE000
ENDCHAR
STARTCHAR uni1E91
ENCODING 7825
SWIDTH 600 0
DWIDTH 17 0
BBX 14 21 1 0
BITMAP
0001FC00
0003EE00
000F4B40
003D0380
00200180
00000000
00000000
0BFFFFF0
0BFFFFE0
00000B80
00002E00
0000B800
0002E000
000B8000
002E0000
00B80000
02E00000
0B800000
2E000000
BFFFFF40
FFFFFF00
ENDCHAR
STARTCHAR uni1E92
ENCODING 7826
SWIDTH 600 0
DWIDTH 17 0
BBX 17 24 0 -6
BITMAP
01FFFFFF40
01FFFFFF00
0000007D00
000001F400
000003E000
00000B8000
00002E0000
0000BC0000
0001F40000
0007D00000
001F400000
003E000000
00B8000000
02E0000000
0BC0000000
1F40000000
7FFFFFF000
7FFFFFE000
0000000000
0000000000
0000000000
001F000000
003F400000
002E000000
ENDCHAR
STARTCHAR uni1E93
ENCODING 7827
SWIDTH 600 0
DWIDTH 17 0
BBX 14 20 1 -6
BITMAP
0BFFFFF0
0BFFFFE0
00000B80
00002E00
0000B800
0002E000
000B8000
002E0000
00B80000
02E00000
0B800000
2E000000
BFFFFF40
FFFFFF00
00000000
00000000
00000000
00B80000
01FD0000
00B80000
ENDCHAR
STARTCHAR uni1E94
ENCODING 7828
SWIDTH 600 0
DWIDTH 17 0
BBX 17 23 0 -5
BITMAP
01FFFFFF40
01FFFFFF00
0000007D00
000001F400
000003E000
00000B8000
00002E0000
0000BC0000
0001F40000
0007D00000
001F400000
003E000000
00B8000000
02E0000000
0BC0000000
1F40000000
7FFFFFF000
7FFFFFE000
0000000000
0000000000
0000000000
02FFF40000
03FFF40000
ENDCHAR
STARTCHAR uni1E95
ENCODING 7829
SWIDTH 600 0
DWIDTH 17 0
BBX 14 19 1 -5
BITMAP
0BFFFFF0
0BFFFFE0
00000B80
00002E00
0000B800
0002E000
000B8000
002E0000
00B80000
02E00000
0B800000
2E000000
BFFFFF40
FFFFFF00
00000000
00000000
00000000
0FFFD000
0FFFC000
ENDCHAR
STARTCHAR uni1E96
ENCODING 7830
SWIDTH 600 0
DWIDTH 17 0
BBX 14 25 1 -5
BITMAP
00F00000
01F00000
02E00000
02D00000
03D00000
03C00000
0781BE40
0B8BFFD0
0BBD07E0
0FE001E0
0F8001E0
1E0002E0
1E0002D0
2D0003D0
3D0003C0
3C000780
78000B80
78000B40
B4000F40
F4000F00
00000000
00000000
00000000
0FFFC000
1FFFC000
ENDCHAR
STARTCHAR uni1E97
ENCODING 7831
SWIDTH 600 0
DWIDTH 17 0
BBX 13 23 2 0
BITMAP
01E07800
02F0BC00
02D07800
00000000
00000000
002D0000
002C0000
003C0000
00780000
BFFFFFC0
FFFFFFC0
00F00000
01E00000
02E00000
02D00000
03D00000
03C00000
07800000
07800000
07800000
07E01800
02FFFD00
00BFA000
ENDCHAR
STARTCHAR uni1E9E
ENCODING 7838
SWIDTH 600 0
DWIDTH 17 0
BBX 16 18 0 0
BITMAP
0001BF90
001FFFF4
007F40BC
00F8002D
01F000B4
02D007D0
03D01F40
07C03D00
07807F80
0B801BF0
0F4000B8
0F00007C
1F00003D
2E00003C
2D0400BC
3D2D06F4
3C1FFFE0
7802FE40
ENDCHAR
STARTCHAR uni1EA0
ENCODING 7840
SWIDTH 600 0
DWIDTH 17 0
BBX 15 24 -1 -6
BITMAP
00000FC0
00002FC0
00003AC0
0000B6D0
0001E1D0
0002D1E0
000781E0
000B41E0
001E00F0
003D00F0
007800F0
00FFFFF4
02FFFFF4
03D000B8
0B8000B8
1F400078
2E00007C
7C00007C
00000000
00000000
00000000
000B8000
001FC000
001F4000
ENDCHAR
STARTCHAR uni1EA1
ENCODING 7841
SWIDTH 600 0
DWIDTH 17 0
BBX 15 20 1 -6
BITMAP
001BE474
01FFFEB4
07F41BF0
0F8002E0
2F0001E0
3D0002D0
7C0003D0
780003C0
B80007C0
B8000B80
7C002F40
3F41BF40
1FFFDF00
06F90F00
00000000
00000000
00000000
00B80000
02FC0000
01F40000
ENDCHAR
STARTCHAR uni1EA2
ENCODING 7842
SWIDTH 600 0
DWIDTH 17 0
BBX 15 24 -1 0
BITMAP
00000F90
000001E0
000002D0
00000A40
00000000
00000000
00000FC0
00002FC0
00003AC0
0000B6D0
0001E1D0
0002D1E0
000781E0
000B41E0
001E00F0
003D00F0
007800F0
00FFFFF4
02FFFFF4
03D000B8
0B8000B8
1F400078
2E00007C
7C00007C
ENDCHAR
STARTCHAR uni1EA3
ENCODING 7843
SWIDTH 600 0
DWIDTH 17 0
BBX 15 22 1 0
BITMAP
0000B800
0000BF00
00001F00
00000F00
00002D00
0000A400
00000000
00000000
001BE474
01FFFEB4
07F41BF0
0F8002E0
2F0001E0
3D0002D0
7C0003D0
780003C0
B80007C0
B8000B80
7C002F40
3F41BF40
1FFFDF00
06F90F00
ENDCHAR
STARTCHAR uni1EA4
ENCODING 7844
SWIDTH 600 0
DWIDTH 17 0
BBX 18 25 -1 0
BITMAP
0000000060
00000002E0
000007E640
00002DB800
0000A01800
0000000000
0000000000
00000FC000
00002FC000
00003AC000
0000B6D000
0001E1D000
0002D1E000
000781E000
000B41E000
001E00F000
003D00F000
007800F000
00FFFFF400
02FFFFF400
03D000B800
0B8000B800
1F40007800
2E00007C00
7C00007C00
ENDCHAR
STARTCHAR uni1EA5
ENCODING 7845
SWIDTH 600 0
DWIDTH 17 0
BBX 17 22 1 0
BITMAP
0000000600
0000000F40
0000BD3C00
0002EF6000
000B878000
0009018000
0000000000
0000000000
001BE47400
01FFFEB400
07F41BF000
0F8002E000
2F0001E000
3D0002D000
7C0003D000
780003C000
B80007C000
B8000B8000
7C002F4000
3F41BF4000
1FFFDF0000
06F90F0000
ENDCHAR
STARTCHAR uni1EA6
ENCODING 7846
SWIDTH 600 0
DWIDTH 17 0
BBX 15 25 -1 0
BITMAP
00060000
00038000
000097E0
00002DB8
0000A018
00000000
00000000
00000FC0
00002FC0
00003AC0
0000B6D0
0001E1D0
0002D1E0
000781E0
000B41E0
001E00F0
003D00F0
007800F0
00FFFFF4
02FFFFF4
03D000B8
0B8000B8
1F400078
2E00007C
7C00007C
ENDCHAR
STARTCHAR uni1EA7
ENCODING 7847
SWIDTH 600 0
DWIDTH 17 0
BBX 15 22 1 0
BITMAP
01800000
01E00000
00B4BD00
0026EF00
000B8780
00090180
00000000
00000000
001BE474
01FFFEB4
07F41BF0
0F8002E0
2F0001E0
3D0002D0
7C0003D0
780003C0
B80007C0
B8000B80
7C002F40
3F41BF40
1FFFDF00
06F90F00
ENDCHAR
STARTCHAR uni1EA8
ENCODING 7848
SWIDTH 600 0
DWIDTH 17 0
BBX 18 25 -1 0
BITMAP
0000000790
00000000B0
000007E1E0
00002DBB80
0000A01800
0000000000
0000000000
00000FC000
00002FC000
00003AC000
0000B6D000
0001E1D000
0002D1E000
000781E000
000B41E000
001E00F000
003D00F000
007800F000
00FFFFF400
02FFFFF400
03D000B800
0B8000B800
1F40007800
2E00007C00
7C00007C00
ENDCHAR
STARTCHAR uni1EA9
ENCODING 7849
SWIDTH 600 0
DWIDTH 17 0
BBX 16 22 1 0
BITMAP
00000079
0000001E
0000BD1E
0002EF74
000B8780
00090180
00000000
00000000
001BE474
01FFFEB4
07F41BF0
0F8002E0
2F0001E0
3D0002D0
7C0003D0
780003C0
B80007C0
B8000B80
7C002F40
3F41BF40
1FFFDF00
06F90F00
ENDCHAR
STARTCHAR uni1EAA
ENCODING 7850
SWIDTH 600 0
DWIDTH 17 0
BBX 17 26 -1 0
BITMAP
00002F9240
000061BE00
0000000000
00000BE000
00002EB800
0000A01800
0000000000
0000000000
00000FC000
00002FC000
00003AC000
0000B6D000
0001E1D000
0002D1E000
000781E000
000B41E000
001E00F000
003D00F000
007800F000
00FFFFF400
02FFFFF400
03D000B800
0B8000B800
1F40007800
2E00007C00
7C00007C00
ENDCHAR
STARTCHAR uni1EAB
ENCODING 7851
SWIDTH 600 0
DWIDTH 17 0
BBX 15 22 1 0
BITMAP
0001A460
00065BD0
00000000
0000BD00
0007DB80
00090180
00000000
00000000
001BE474
01FFFEB4
07F41BF0
0F8002E0
2F0001E0
3D0002D0
7C0003D0
780003C0
B80007C0
B8000B80
7C002F40
3F41BF40
1FFFDF00
06F90F00
ENDCHAR
STARTCHAR uni1EAC
ENCODING 7852
SWIDTH 600 0
DWIDTH 17 0
BBX 16 30 -1 -6
BITMAP
00000BE0
00002EB8
0000B42D
0001900A
00000000
00000000
00000FC0
00002FC0
00003AC0
0000B6D0
0001E1D0
0002D1E0
000781E0
000B41E0
001E00F0
003D00F0
007800F0
00FFFFF4
02FFFFF4
03D000B8
0B8000B8
1F400078
2E00007C
7C00007C
00000000
00000000
00000000
000B8000
001FC000
001F4000
ENDCHAR
STARTCHAR uni1EAD
ENCODING 7853
SWIDTH 600 0
DWIDTH 17 0
BBX 15 27 1 -6
BITMAP
0000BE00
0002FF40
000B8780
001E02D0
00280090
00000000
00000000
001BE474
01FFFEB4
07F41BF0
0F8002E0
2F0001E0
3D0002D0
7C0003D0
780003C0
B80007C0
B8000B80
7C002F40
3F41BF40
1FFFDF00
06F90F00
00000000
00000000
00000000
00B80000
02FC0000
01F40000
ENDCHAR
STARTCHAR uni1EAE
ENCODING 7854
SWIDTH 600 0
DWIDTH 17 0
BBX 16 27 -1 0
BITMAP
00000018
0000007D
000001E0
00000180
0000A007
0000B41D
00002FE4
00000000
00000000
00000FC0
00002FC0
00003AC0
0000B6D0
0001E1D0
0002D1E0
000781E0
000B41E0
001E00F0
003D00F0
007800F0
00FFFFF4
02FFFFF4
03D000B8
0B8000B8
1F400078
2E00007C
7C00007C
ENDCHAR
STARTCHAR uni1EAF
ENCODING 7855
SWIDTH 600 0
DWIDTH 17 0
BBX 15 23 1 0
BITMAP
00000180
000007C0
00001E00
001D2834
000D00A0
000B42C0
0002FE00
00000000
00000000
001BE474
01FFFEB4
07F41BF0
0F8002E0
2F0001E0
3D0002D0
7C0003D0
780003C0
B80007C0
B8000B80
7C002F40
3F41BF40
1FFFDF00
06F90F00
ENDCHAR
STARTCHAR uni1EB0
ENCODING 7856
SWIDTH 600 0
DWIDTH 17 0
BBX 16 27 -1 0
BITMAP
00000A00
00000B40
000003C0
00000090
0000A007
0000B41D
00002FE4
00000000
00000000
00000FC0
00002FC0
00003AC0
0000B6D0
0001E1D0
0002D1E0
000781E0
000B41E0
001E00F0
003D00F0
007800F0
00FFFFF4
02FFFFF4
03D000B8
0B8000B8
1F400078
2E00007C
7C00007C
ENDCHAR
STARTCHAR uni1EB1
ENCODING 7857
SWIDTH 600 0
DWIDTH 17 0
BBX 15 23 1 0
BITMAP
0000A000
0000F000
00003800
001D1834
000D00A0
000B42C0
0002FE00
00000000
00000000
001BE474
01FFFEB4
07F41BF0
0F8002E0
2F0001E0
3D0002D0
7C0003D0
780003C0
B80007C0
B8000B80
7C002F40
3F41BF40
1FFFDF00
06F90F00
ENDCHAR
STARTCHAR uni1EB2
ENCODING 7858
SWIDTH 600 0
DWIDTH 17 0
BBX 16 26 -1 0
BITMAP
000002E0
00000074
000000B4
0000A297
0000B41D
00002FE4
00000000
00000000
00000FC0
00002FC0
00003AC0
0000B6D0
0001E1D0
0002D1E0
000781E0
000B41E0
001E00F0
003D00F0
007800F0
00FFFFF4
02FFFFF4
03D000B8
0B8000B8
1F400078
2E00007C
7C00007C
ENDCHAR
STARTCHAR uni1EB3
ENCODING 7859
SWIDTH 600 0
DWIDTH 17 0
BBX 15 23 1 0
BITMAP
00003E00
00000B40
00000B00
001D2934
000D00A0
000B42C0
0002FE00
00000000
00000000
001BE474
01FFFEB4
07F41BF0
0F8002E0
2F0001E0
3D0002D0
7C0003D0
780003C0
B80007C0
B8000B80
7C002F40
3F41BF40
1FFFDF00
06F90F00
ENDCHAR
STARTCHAR uni1EB4
ENCODING 7860
SWIDTH 600 0
DWIDTH 17 0
BBX 17 26 -1 0
BITMAP
00002F9280
000061BE00
0000000000
0000A00B00
0000B41D00
00001FE400
0000000000
0000000000
00000FC000
00002FC000
00003AC000
0000B6D000
0001E1D000
0002D1E000
000781E000
000B41E000
001E00F000
003D00F000
007800F000
00FFFFF400
02FFFFF400
03D000B800
0B8000B800
1F40007800
2E00007C00
7C00007C00
ENDCHAR
STARTCHAR uni1EB5
ENCODING 7861
SWIDTH 600 0
DWIDTH 17 0
BBX 15 22 1 0
BITMAP
0002A460
000A5BD0
00000000
000D00A0
000B42C0
0002FE00
00000000
00000000
001BE474
01FFFEB4
07F41BF0
0F8002E0
2F0001E0
3D0002D0
7C0003D0
780003C0
B80007C0
B8000B80
7C002F40
3F41BF40
1FFFDF00
06F90F00
ENDCHAR
STARTCHAR uni1EB6
ENCODING 7862
SWIDTH 600 0
DWIDTH 17 0
BBX 16 29 -1 -6
BITMAP
0000A007
0000B41D
00002FE4
00000000
00000000
00000FC0
00002FC0
00003AC0
0000B6D0
0001E1D0
0002D1E0
000781E0
000B41E0
001E00F0
003D00F0
007800F0
00FFFFF4
02FFFFF4
03D000B8
0B8000B8
1F400078
2E00007C
7C00007C
00000000
00000000
00000000
000B8000
001FC000
001F4000
ENDCHAR
STARTCHAR uni1EB7
ENCODING 7863
SWIDTH 600 0
DWIDTH 17 0
BBX 15 27 1 -6
BITMAP
001D0074
001E00B0
000F42D0
000BFF80
0002FD00
00000000
00000000
001BE474
01FFFEB4
07F41BF0
0F8002E0
2F0001E0
3D0002D0
7C0003D0
780003C0
B80007C0
B8000B80
7C002F40
3F41BF40
1FFFDF00
06F90F00
00000000
00000000
00000000
00B80000
02FC0000
01F40000
ENDCHAR
STARTCHAR uni1EB8
ENCODING 7864
SWIDTH 600 0
DWIDTH 17 0
BBX 16 24 1 -6
BITMAP
00BFFFFE
00FFFFFD
00F00000
01E00000
02E00000
02D00000
03C00000
03FFFF80
07FFFF40
0B800000
0B400000
0F000000
1F000000
1E000000
2E000000
2D000000
3FFFFF80
7FFFFF40
00000000
00000000
00000000
007D0000
00BE0000
007D0000
ENDCHAR
STARTCHAR uni1EB9
ENCODING 7865
SWIDTH 600 0
DWIDTH 17 0
BBX 14 20 1 -6
BITMAP
001BF900
00BFFF40
03F41BC0
0BC002D0
1F0001E0
2E0001E0
3FFFFFE0
7FFFFFD0
7C000000
3C000000
3D000200
1F906F40
0BFFFD00
01BF9000
00000000
00000000
00000000
00B80000
00FD0000
00B80000
ENDCHAR
STARTCHAR uni1EBA
ENCODING 7866
SWIDTH 600 0
DWIDTH 17 0
BBX 16 24 1 0
BITMAP
00003E40
00000780
00000B40
00002900
00000000
00000000
00BFFFFE
00FFFFFD
00F00000
01E00000
02E00000
02D00000
03C00000
03FFFF80
07FFFF40
0B800000
0B400000
0F000000
1F000000
1E000000
2E000000
2D000000
3FFFFF80
7FFFFF40
ENDCHAR
STARTCHAR uni1EBB
ENCODING 7867
SWIDTH 600 0
DWIDTH 17 0
BBX 14 22 1 0
BITMAP
0000A800
0000FE00
00002F00
00000E00
00002C00
0000A000
00000000
00000000
001BF900
00BFFF40
03F41BC0
0BC002D0
1F0001E0
2E0001E0
3FFFFFE0
7FFFFFD0
7C000000
3C000000
3D000200
1F906F40
0BFFFD00
01BF9000
ENDCHAR
STARTCHAR uni1EBC
ENCODING 7868
SWIDTH 600 0
DWIDTH 17 0
BBX 16 25 1 0
BITMAP
00005000
0002FC0B
0007EF1E
000F0BFC
000902F4
00000000
00000000
00BFFFFE
00FFFFFD
00F00000
01E00000
02E00000
02D00000
03C00000
03FFFF80
07FFFF40
0B800000
0B400000
0F000000
1F000000
1E000000
2E000000
2D000000
3FFFFF80
7FFFFF40
ENDCHAR
STARTCHAR uni1EBD
ENCODING 7869
SWIDTH 600 0
DWIDTH 17 0
BBX 15 21 1 0
BITMAP
00014010
000FE038
002DB8B4
00382FE0
00640B80
00000000
00000000
001BF900
00BFFF40
03F41BC0
0BC002D0
1F0001E0
2E0001E0
3FFFFFE0
7FFFFFD0
7C000000
3C000000
3D000200
1F906F40
0BFFFD00
01BF9000
ENDCHAR
STARTCHAR uni1EBE
ENCODING 7870
SWIDTH 600 0
DWIDTH 17 0
BBX 17 25 1 0
BITMAP
0000000180
0000000B80
00002F9900
0000B6E000
0002806000
0000000000
0000000000
00BFFFFE00
00FFFFFD00
00F0000000
01E0000000
02E0000000
02D0000000
03C0000000
03FFFF8000
07FFFF4000
0B80000000
0B40000000
0F00000000
1F00000000
1E00000000
2E00000000
2D00000000
3FFFFF8000
7FFFFF4000
ENDCHAR
STARTCHAR uni1EBF
ENCODING 7871
SWIDTH 600 0
DWIDTH 17 0
BBX 16 22 1 0
BITMAP
00000006
0000001E
0000BC78
0003EE60
001F4780
00080180
00000000
00000000
001BF900
00BFFF40
03F41BC0
0BC002D0
1F0001E0
2E0001E0
3FFFFFE0
7FFFFFD0
7C000000
3C000000
3D000200
1F906F40
0BFFFD00
01BF9000
ENDCHAR
STARTCHAR uni1EC0
ENCODING 7872
SWIDTH 600 0
DWIDTH 17 0
BBX 16 25 1 0
BITMAP
00180000
000E0000
00026F80
0000B6E0
00028060
00000000
00000000
00BFFFFE
00FFFFFD
00F00000
01E00000
02E00000
02D00000
03C00000
03FFFF80
07FFFF40
0B800000
0B400000
0F000000
1F000000
1E000000
2E000000
2D000000
3FFFFF80
7FFFFF40
ENDCHAR
STARTCHAR uni1EC1
ENCODING 7873
SWIDTH 600 0
DWIDTH 17 0
BBX 14 22 1 0
BITMAP
01800000
02D00000
00B0BC00
0027EE00
001F4780
00080180
00000000
00000000
001BF900
00BFFF40
03F41BC0
0BC002D0
1F0001E0
2E0001E0
3FFFFFE0
7FFFFFD0
7C000000
3C000000
3D000200
1F906F40
0BFFFD00
01BF9000
ENDCHAR
STARTCHAR uni1EC2
ENCODING 7874
SWIDTH 600 0
DWIDTH 17 0
BBX 17 25 1 0
BITMAP
0000001E40
00000002C0
00002F8780
0000B6EE00
0002806000
0000000000
0000000000
00BFFFFE00
00FFFFFD00
00F0000000
01E0000000
02E0000000
02D0000000
03C0000000
03FFFF8000
07FFFF4000
0B80000000
0B40000000
0F00000000
1F00000000
1E00000000
2E00000000
2D00000000
3FFFFF8000
7FFFFF4000
ENDCHAR
STARTCHAR uni1EC3
ENCODING 7875
SWIDTH 600 0
DWIDTH 17 0
BBX 16 22 1 0
BITMAP
000000B8
0000001E
0000BC1D
0002EE64
000F4780
00080180
00000000
00000000
001BF900
00BFFF40
03F41BC0
0BC002D0
1F0001E0
2E0001E0
3FFFFFE0
7FFFFFD0
7C000000
3C000000
3D000200
1F906F40
0BFFFD00
01BF9000
ENDCHAR
STARTCHAR uni1EC4
ENCODING 7876
SWIDTH 600 0
DWIDTH 17 0
BBX 16 26 1 0
BITMAP
0000BE49
000186F8
00000000
00002F80
0000B6E0
00028060
00000000
00000000
00BFFFFE
00FFFFFD
00F00000
01E00000
02E00000
02D00000
03C00000
03FFFF80
07FFFF40
0B800000
0B400000
0F000000
1F000000
1E000000
2E000000
2D000000
3FFFFF80
7FFFFF40
ENDCHAR
STARTCHAR uni1EC5
ENCODING 7877
SWIDTH 600 0
DWIDTH 17 0
BBX 14 22 1 0
BITMAP
0002A460
000A6FD0
00000000
0000BD00
00079B40
00090280
00000000
00000000
001BF900
00BFFF40
03F41BC0
0BC002D0
1F0001E0
2E0001E0
3FFFFFE0
7FFFFFD0
7C000000
3C000000
3D000200
1F906F40
0BFFFD00
01BF9000
ENDCHAR
STARTCHAR uni1EC6
ENCODING 7878
SWIDTH 600 0
DWIDTH 17 0
BBX 16 30 1 -6
BITMAP
00002F80
0000BAE0
0002D0B4
00060024
00000000
00000000
00BFFFFE
00FFFFFD
00F00000
01E00000
02E00000
02D00000
03C00000
03FFFF80
07FFFF40
0B800000
0B400000
0F000000
1F000000
1E000000
2E000000
2D000000
3FFFFF80
7FFFFF40
00000000
00000000
00000000
007D0000
00BE0000
007D0000
ENDCHAR
STARTCHAR uni1EC7
ENCODING 7879
SWIDTH 600 0
DWIDTH 17 0
BBX 14 27 1 -6
BITMAP
0000BD00
0002EF00
000B8B80
002D02D0
00240080
00000000
00000000
001BF900
00BFFF40
03F41BC0
0BC002D0
1F0001E0
2E0001E0
3FFFFFE0
7FFFFFD0
7C000000
3C000000
3D000200
1F906F40
0BFFFD00
01BF9000
00000000
00000000
00000000
00B80000
00FD0000
00B80000
ENDCHAR
STARTCHAR uni1EC8
ENCODING 7880
SWIDTH 600 0
DWIDTH 17 0
BBX 15 24 1 0
BITMAP
0000F900
00001E00
00002D00
0000A400
00000000
00000000
01FFFFFC
02FFFFF8
0001F000
0001E000
0002E000
0003D000
0003C000
0007C000
000B8000
000B4000
000F4000
000F0000
001E0000
002E0000
002D0000
003D0000
BFFFFE00
FFFFFD00
ENDCHAR
STARTCHAR uni1EC9
ENCODING 7881
SWIDTH 600 0
DWIDTH 17 0
BBX 11 22 3 0
BITMAP
001E00
002FC0
0007C0
0002C0
000740
002900
000000
000000
BFFD00
FFFC00
007800
007800
00B400
00F000
00F000
01E000
02D000
02D000
03D000
03E060
01FFF4
006F90
ENDCHAR
STARTCHAR uni1ECA
ENCODING 7882
SWIDTH 600 0
DWIDTH 17 0
BBX 15 24 1 -6
BITMAP
01FFFFFC
02FFFFF8
0001F000
0001E000
0002E000
0003D000
0003C000
0007C000
000B8000
000B4000
000F4000
000F0000
001E0000
002E0000
002D0000
003D0000
BFFFFE00
FFFFFD00
00000000
00000000
00000000
01F40000
03F40000
02E00000
ENDCHAR
STARTCHAR uni1ECB
ENCODING 7883
SWIDTH 600 0
DWIDTH 17 0
BBX 11 26 3 -6
BITMAP
001F40
003F40
002E00
000000
000000
000000
BFFD00
FFFC00
007800
007800
00B400
00F000
00F000
01E000
02D000
02D000
03D000
03E060
01FFF4
006F90
000000
000000
000000
00B800
00FD00
00B800
ENDCHAR
STARTCHAR uni1ECC
ENCODING 7884
SWIDTH 600 0
DWIDTH 17 0
BBX 15 24 1 -6
BITMAP
000AF900
007FFF80
02F907E0
07D001F4
0F4000B8
2E0000B8
3D00007C
7C000078
B8000078
B40000B8
B40000F4
F40001F0
B80002E0
B80007C0
7D001F40
2F41BE00
0BFFF400
01BE8000
00000000
00000000
00000000
01F40000
03F40000
02E00000
ENDCHAR
STARTCHAR uni1ECD
ENCODING 7885
SWIDTH 600 0
DWIDTH 17 0
BBX 14 20 1 -6
BITMAP
001BF800
01FFFF40
07E41FC0
1F4003D0
3E0002E0
7C0001E0
B80001E0
B80002E0
B80003D0
B80007C0
7D001F40
2F41BE00
0FFFF400
02BE8000
00000000
00000000
00000000
01F40000
03F40000
02E00000
ENDCHAR
STARTCHAR uni1ECE
ENCODING 7886
SWIDTH 600 0
DWIDTH 17 0
BBX 15 24 1 0
BITMAP
0000F900
00001E00
00002D00
0000A400
00000000
00000000
000AF900
007FFF80
02F907E0
07D001F4
0F4000B8
2E0000B8
3D00007C
7C000078
B8000078
B40000B8
B40000F4
F40001F0
B80002E0
B80007C0
7D001F40
2F41BE00
0BFFF400
01BE8000
ENDCHAR
STARTCHAR uni1ECF
ENCODING 7887
SWIDTH 600 0
DWIDTH 17 0
BBX 14 22 1 0
BITMAP
0000E400
0001FD00
00002E00
00001D00
00006800
0000D000
00000000
00000000
001BF800
01FFFF40
07E41FC0
1F4003D0
3E0002E0
7C0001E0
B80001E0
B80002E0
B80003D0
B80007C0
7D001F40
2F41BE00
0FFFF400
02BE8000
ENDCHAR
STARTCHAR uni1ED0
ENCODING 7888
SWIDTH 600 0
DWIDTH 17 0
BBX 16 25 1 0
BITMAP
00000006
0000002E
00007E64
0002DB80
000A0180
00000000
00000000
000AF900
007FFF80
02F907E0
07D001F4
0F4000B8
2E0000B8
3D00007C
7C000078
B8000078
B40000B8
B40000F4
F40001F0
B80002E0
B80007C0
7D001F40
2F41BE00
0BFFF400
01BE8000
ENDCHAR
STARTCHAR uni1ED1
ENCODING 7889
SWIDTH 600 0
DWIDTH 17 0
BBX 16 22 1 0
BITMAP
0000000A
0000002E
0000F878
0007EE90
001F4B40
00180240
00000000
00000000
001BF800
01FFFF40
07E41FC0
1F4003D0
3E0002E0
7C0001E0
B80001E0
B80002E0
B80003D0
B80007C0
7D001F40
2F41BE00
0FFFF400
02BE8000
ENDCHAR
STARTCHAR uni1ED2
ENCODING 7890
SWIDTH 600 0
DWIDTH 17 0
BBX 15 25 1 0
BITMAP
00600000
00380000
00097E00
0002DB80
000A0180
00000000
00000000
000AF900
007FFF80
02F907E0
07D001F4
0F4000B8
2E0000B8
3D00007C
7C000078
B8000078
B40000B8
B40000F4
F40001F0
B80002E0
B80007C0
7D001F40
2F41BE00
0BFFF400
01BE8000
ENDCHAR
STARTCHAR uni1ED3
ENCODING 7891
SWIDTH 600 0
DWIDTH 17 0
BBX 14 22 1 0
BITMAP
02800000
02D00000
00E0F800
0067EE00
001F4B40
00180240
00000000
00000000
001BF800
01FFFF40
07E41FC0
1F4003D0
3E0002E0
7C0001E0
B80001E0
B80002E0
B80003D0
B80007C0
7D001F40
2F41BE00
0FFFF400
02BE8000
ENDCHAR
STARTCHAR uni1ED4
ENCODING 7892
SWIDTH 600 0
DWIDTH 17 0
BBX 16 25 1 0
BITMAP
00000079
0000000B
00007E1E
0002DBB8
000A0180
00000000
00000000
000AF900
007FFF80
02F907E0
07D001F4
0F4000B8
2E0000B8
3D00007C
7C000078
B8000078
B40000B8
B40000F4
F40001F0
B80002E0
B80007C0
7D001F40
2F41BE00
0BFFF400
01BE8000
ENDCHAR
STARTCHAR uni1ED5
ENCODING 7893
SWIDTH 600 0
DWIDTH 17 0
BBX 16 22 1 0
BITMAP
000000B8
0000002D
0000F82C
0007EEA4
001F4B40
00180240
00000000
00000000
001BF800
01FFFF40
07E41FC0
1F4003D0
3E0002E0
7C0001E0
B80001E0
B80002E0
B80003D0
B80007C0
7D001F40
2F41BE00
0FFFF400
02BE8000
ENDCHAR
STARTCHAR uni1ED6
ENCODING 7894
SWIDTH 600 0
DWIDTH 17 0
BBX 15 26 1 0
BITMAP
0002F924
00061BE0
00000000
0000BE00
0002EB80
000A0180
00000000
00000000
000AF900
007FFF80
02F907E0
07D001F4
0F4000B8
2E0000B8
3D00007C
7C000078
B8000078
B40000B8
B40000F4
F40001F0
B80002E0
B80007C0
7D001F40
2F41BE00
0BFFF400
01BE8000
ENDCHAR
STARTCHAR uni1ED7
ENCODING 7895
SWIDTH 600 0
DWIDTH 17 0
BBX 14 22 1 0
BITMAP
0002A450
000E6F80
00000000
0001FC00
000B9F40
00190280
00000000
00000000
001BF800
01FFFF40
07E41FC0
1F4003D0
3E0002E0
7C0001E0
B80001E0
B80002E0
B80003D0
B80007C0
7D001F40
2F41BE00
0FFFF400
02BE8000
ENDCHAR
STARTCHAR uni1ED8
ENCODING 7896
SWIDTH 600 0
DWIDTH 17 0
BBX 15 30 1 -6
BITMAP
0000BE00
0002EB80
000B42D0
001900A0
00000000
00000000
000AF900
007FFF80
02F907E0
07D001F4
0F4000B8
2E0000B8
3D00007C
7C000078
B8000078
B40000B8
B40000F4
F40001F0
B80002E0
B80007C0
7D001F40
2F41BE00
0BFFF400
01BE8000
00000000
00000000
00000000
01F40000
03F40000
02E00000
ENDCHAR
STARTCHAR uni1ED9
ENCODING 7897
SWIDTH 600 0
DWIDTH 17 0
BBX 14 27 1 -6
BITMAP
0000FC00
0003EE00
000F4B40
002D03C0
00240180
00000000
00000000
001BF800
01FFFF40
07E41FC0
1F4003D0
3E0002E0
7C0001E0
B80001E0
B80002E0
B80003D0
B80007C0
7D001F40
2F41BE00
0FFFF400
02BE8000
00000000
00000000
00000000
01F40000
03F40000
02E00000
ENDCHAR
STARTCHAR uni1EDA
ENCODING 7898
SWIDTH 600 0
DWIDTH 17 0
BBX 17 24 1 0
BITMAP
0000018000
00000BD000
00007E4280
0000640380
0000000380
0000000B40
000AF96E00
007FFFE400
02F907E000
07D001F400
0F4000B800
2E0000B800
3D00007C00
7C00007C00
B800007800
B40000B800
B40000F400
F40001F000
B80002E000
B80007D000
7D001F8000
2F41BE0000
0BFFF80000
01BF800000
ENDCHAR
STARTCHAR uni1EDB
ENCODING 7899
SWIDTH 600 0
DWIDTH 17 0
BBX 16 22 1 0
BITMAP
00000240
00000BC0
00002F40
0000BD00
0002F009
0001801E
0000001E
0000002D
001BFAF4
01FFFF90
07E41F80
1F4003D0
3E0002E0
7C0001E0
B80001E0
B80002E0
B80003D0
B80007C0
7D001F40
2F41BE00
0FFFF400
02BE8000
ENDCHAR
STARTCHAR uni1EDC
ENCODING 7900
SWIDTH 600 0
DWIDTH 17 0
BBX 17 24 1 0
BITMAP
0002400000
0007D00000
0001F40280
00007C0380
0000180380
0000000B40
000AF96E00
007FFFE400
02F907E000
07D001F400
0F4000B800
2E0000B800
3D00007C00
7C00007C00
B800007800
B40000B800
B40000F400
F40001F000
B80002E000
B80007D000
7D001F8000
2F41BE0000
0BFFF80000
01BF800000
ENDCHAR
STARTCHAR uni1EDD
ENCODING 7901
SWIDTH 600 0
DWIDTH 17 0
BBX 16 22 1 0
BITMAP
00024000
000BC000
0003E000
0000F400
00007C09
0000281E
0000001E
0000002D
001BFAF4
01FFFF90
07E41F80
1F4003D0
3E0002E0
7C0001E0
B80001E0
B80002E0
B80003D0
B80007C0
7D001F40
2F41BE00
0FFFF400
02BE8000
ENDCHAR
STARTCHAR uni1EDE
ENCODING 7902
SWIDTH 600 0
DWIDTH 17 0
BBX 17 24 1 0
BITMAP
0000F90000
00001E0000
00002D0280
0000A40380
0000000380
0000000B40
000AF96E00
007FFFE400
02F907E000
07D001F400
0F4000B800
2E0000B800
3D00007C00
7C00007C00
B800007800
B40000B800
B40000F400
F40001F000
B80002E000
B80007D000
7D001F8000
2F41BE0000
0BFFF80000
01BF800000
ENDCHAR
STARTCHAR uni1EDF
ENCODING 7903
SWIDTH 600 0
DWIDTH 17 0
BBX 16 22 1 0
BITMAP
0000E400
0001FD00
00002E00
00001D00
00006809
0000D01E
0000001E
0000002D
001BFAF4
01FFFF90
07E41F80
1F4003D0
3E0002E0
7C0001E0
B80001E0
B80002E0
B80003D0
B80007C0
7D001F40
2F41BE00
0FFFF400
02BE8000
ENDCHAR
STARTCHAR uni1EE0
ENCODING 7904
SWIDTH 600 0
DWIDTH 17 0
BBX 17 25 1 0
BITMAP
0005000000
002FC0B000
007EF5E000
00B0BFD280
00902F4380
0000000380
0000000B40
000AF96E00
007FFFE400
02F907E000
07D001F400
0F4000B800
2E0000B800
3D00007C00
7C00007C00
B800007800
B40000B800
B40000F400
F40001F000
B80002E000
B80007D000
7D001F8000
2F41BE0000
0BFFF80000
01BF800000
ENDCHAR
STARTCHAR uni1EE1
ENCODING 7905
SWIDTH 600 0
DWIDTH 17 0
BBX 16 21 1 0
BITMAP
00050040
007F41D0
00B6D2C0
01D0FF89
01802E1E
0000001E
0000002D
001BFAF4
01FFFF90
07E41F80
1F4003D0
3E0002E0
7C0001E0
B80001E0
B80002E0
B80003D0
B80007C0
7D001F40
2F41BE00
0FFFF400
02BE8000
ENDCHAR
STARTCHAR uni1EE2
ENCODING 7906
SWIDTH 600 0
DWIDTH 17 0
BBX 17 28 1 -6
BITMAP
0000000280
0000000380
0000000380
0000000B40
000AF96E00
007FFFE400
02F907E000
07D001F400
0F4000B800
2E0000B800
3D00007C00
7C00007C00
B800007800
B40000B800
B40000F400
F40001F000
B80002E000
B80007D000
7D001F8000
2F41BE0000
0BFFF80000
01BF800000
0000000000
0000000000
0000000000
01F4000000
03F4000000
02E0000000
ENDCHAR
STARTCHAR uni1EE3
ENCODING 7907
SWIDTH 600 0
DWIDTH 17 0
BBX 16 24 1 -6
BITMAP
00000009
0000001E
0000001E
0000002D
001BFAF4
01FFFF90
07E41F80
1F4003D0
3E0002E0
7C0001E0
B80001E0
B80002E0
B80003D0
B80007C0
7D001F40
2F41BE00
0FFFF400
02BE8000
00000000
00000000
00000000
01F40000
03F40000
02E00000
ENDCHAR
STARTCHAR uni1EE4
ENCODING 7908
SWIDTH 600 0
DWIDTH 17 0
BBX 16 24 1 -6
BITMAP
03D0002D
03C0003C
07C0007C
0B800078
0B4000B8
0F4000B4
1F0000F0
1E0001F0
2E0001E0
2D0002E0
3D0003D0
3C0003C0
7C000780
3C000F40
3E001F00
2F80BD00
0BFFF400
01BF9000
00000000
00000000
00000000
01F40000
03F40000
02E00000
ENDCHAR
STARTCHAR uni1EE5
ENCODING 7909
SWIDTH 600 0
DWIDTH 17 0
BBX 15 20 1 -6
BITMAP
0B8000F4
0B4000F0
0F0001F0
1F0001E0
1E0002E0
2E0003D0
2D0003C0
3C0007C0
7C000780
78001F80
7C007F40
7D06DB00
3FFF4F00
0BE40E00
00000000
00000000
00000000
00B80000
02FC0000
01F40000
ENDCHAR
STARTCHAR uni1EE6
ENCODING 7910
SWIDTH 600 0
DWIDTH 17 0
BBX 16 24 1 0
BITMAP
0000F900
00001E00
00002D00
0000A400
00000000
00000000
03D0002D
03C0003C
07C0007C
0B800078
0B4000B8
0F4000B4
1F0000F0
1E0001F0
2E0001E0
2D0002E0
3D0003D0
3C0003C0
7C000780
3C000F40
3E001F00
2F80BD00
0BFFF400
01BF9000
ENDCHAR
STARTCHAR uni1EE7
ENCODING 7911
SWIDTH 600 0
DWIDTH 17 0
BBX 15 22 1 0
BITMAP
0000E400
0001FD00
00002E00
00001D00
00006800
0000D000
00000000
00000000
0B8000F4
0B4000F0
0F0001F0
1F0001E0
1E0002E0
2E0003D0
2D0003C0
3C0007C0
7C000780
78001F80
7C007F40
7D06DB00
3FFF4F00
0BE40E00
ENDCHAR
STARTCHAR uni1EE8
ENCODING 7912
SWIDTH 600 0
DWIDTH 17 0
BBX 19 24 1 0
BITMAP
0000018000
00000BD028
00007E403C
000064003C
0000000078
00000001F0
03D0002F80
03C0003C00
07C0007C00
0B80007800
0B4000B800
0F4000B400
1F0000F400
1E0001F000
2E0001E000
2D0002E000
3D0003D000
3C0003D000
7C0007C000
3C000F8000
3E001F4000
2F80BE0000
0BFFF80000
01BF900000
ENDCHAR
STARTCHAR uni1EE9
ENCODING 7913
SWIDTH 600 0
DWIDTH 17 0
BBX 18 22 1 0
BITMAP
0000024000
00000BC000
00002F4000
0000BD0190
0002E001D0
00018002D0
00000002C0
0000000B40
0B8000FD00
0B4000F000
0F0001F000
1F0001E000
1E0002D000
2E0003D000
2D0003C000
3C0007C000
7C00078000
78001F8000
7C007F4000
7D06DB0000
3FFF4F0000
0BE40E0000
ENDCHAR
STARTCHAR uni1EEA
ENCODING 7914
SWIDTH 600 0
DWIDTH 17 0
BBX 19 24 1 0
BITMAP
0002400000
0007D00028
0001F4003C
00007C003C
0000180078
00000001F0
03D0002F80
03C0003C00
07C0007C00
0B80007800
0B4000B800
0F4000B400
1F0000F400
1E0001F000
2E0001E000
2D0002E000
3D0003D000
3C0003D000
7C0007C000
3C000F8000
3E001F4000
2F80BE0000
0BFFF80000
01BF900000
ENDCHAR
STARTCHAR uni1EEB
ENCODING 7915
SWIDTH 600 0
DWIDTH 17 0
BBX 18 22 1 0
BITMAP
0002400000
000BC00000
0003E00000
0001F40190
00007C01D0
00002802D0
00000002C0
0000000B40
0B8000FD00
0B4000F000
0F0001F000
1F0001E000
1E0002D000
2E0003D000
2D0003C000
3C0007C000
7C00078000
78001F8000
7C007F4000
7D06DB0000
3FFF4F0000
0BE40E0000
ENDCHAR
STARTCHAR uni1EEC
ENCODING 7916
SWIDTH 600 0
DWIDTH 17 0
BBX 19 24 1 0
BITMAP
0000F90000
00001E0028
00002D003C
0000A4003C
0000000078
00000001F0
03D0002F80
03C0003C00
07C0007C00
0B80007800
0B4000B800
0F4000B400
1F0000F400
1E0001F000
2E0001E000
2D0002E000
3D0003D000
3C0003D000
7C0007C000
3C000F8000
3E001F4000
2F80BE0000
0BFFF80000
01BF900000
ENDCHAR
STARTCHAR uni1EED
ENCODING 7917
SWIDTH 600 0
DWIDTH 17 0
BBX 18 22 1 0
BITMAP
0000E40000
0001FD0000
00002E0000
00001D0190
00006801D0
0000D002D0
00000002C0
0000000B40
0B8000FD00
0B4000F000
0F0001F000
1F0001E000
1E0002D000
2E0003D000
2D0003C000
3C0007C000
7C00078000
78001F8000
7C007F4000
7D06DB0000
3FFF4F0000
0BE40E0000
ENDCHAR
STARTCHAR uni1EEE
ENCODING 7918
SWIDTH 600 0
DWIDTH 17 0
BBX 19 25 1 0
BITMAP
0001400000
000BF02C00
001FBC7828
002C2FF43C
00240BD03C
0000000078
00000001F0
03D0002F80
03C0003C00
07C0007C00
0B80007800
0B4000B800
0F4000B400
1F0000F400
1E0001F000
2E0001E000
2D0002E000
3D0003D000
3C0003D000
7C0007C000
3C000F8000
3E001F4000
2F80BE0000
0BFFF80000
01BF900000
ENDCHAR
STARTCHAR uni1EEF
ENCODING 7919
SWIDTH 600 0
DWIDTH 17 0
BBX 18 21 1 0
BITMAP
0005001000
001FD0B000
0039F4E190
00B07FD1D0
00A01F42D0
00000002C0
0000000B40
0B8000FD00
0B4000F000
0F0001F000
1F0001E000
1E0002D000
2E0003D000
2D0003C000
3C0007C000
7C00078000
78001F8000
7C007F4000
7D06DB0000
3FFF4F0000
0BE40E0000
ENDCHAR
STARTCHAR uni1EF0
ENCODING 7920
SWIDTH 600 0
DWIDTH 17 0
BBX 19 29 1 -6
BITMAP
0000000028
000000003C
000000003C
0000000078
00000001F0
03D0002F80
03C0003C00
07C0007C00
0B80007800
0B4000B800
0F4000B400
1F0000F400
1E0001F000
2E0001E000
2D0002E000
3D0003D000
3C0003D000
7C0007C000
3C000F8000
3E001F4000
2F80BE0000
0BFFF80000
01BF900000
0000000000
0000000000
0000000000
01F4000000
03F4000000
02E0000000
ENDCHAR
STARTCHAR uni1EF1
ENCODING 7921
SWIDTH 600 0
DWIDTH 17 0
BBX 18 25 1 -6
BITMAP
0000000190
00000001D0
00000002D0
00000002C0
0000000B40
0B8000FD00
0B4000F000
0F0001F000
1F0001E000
1E0002D000
2E0003D000
2D0003C000
3C0007C000
7C00078000
78001F8000
7C007F4000
7D06DB0000
3FFF4F0000
0BE40E0000
0000000000
0000000000
0000000000
00B8000000
02FC000000
01F4000000
ENDCHAR
STARTCHAR Ygrave
ENCODING 7922
SWIDTH 600 0
DWIDTH 17 0
BBX 15 24 3 0
BITMAP
00200000
00BC0000
002E0000
000B8000
00024000
00000000
B40000F4
780002D0
3C000B80
3D001F00
2E003D00
1F00B800
0F41F000
0B83D000
07CB8000
03DF0000
02FD0000
01F40000
01F00000
01E00000
02D00000
03D00000
03C00000
07C00000
ENDCHAR
STARTCHAR ygrave
ENCODING 7923
SWIDTH 600 0
DWIDTH 17 0
BBX 17 28 -1 -6
BITMAP
0000240000
0000B80000
00007D0000
00001F0000
00000B8000
0000024000
0000000000
0000000000
01E00007C0
01F0000B40
00F0001E00
00B4003D00
007800B800
007800F000
003C02D000
002D078000
002D0F4000
001E1E0000
000E3C0000
000B740000
000BE00000
0007D00000
0007800000
001F000000
003D000000
41F8000000
FFE0000000
BE40000000
ENDCHAR
STARTCHAR uni1EF4
ENCODING 7924
SWIDTH 600 0
DWIDTH 17 0
BBX 15 24 3 -6
BITMAP
B40000F4
780002D0
3C000B80
3D001F00
2E003D00
1F00B800
0F41F000
0B83D000
07CB8000
03DF0000
02FD0000
01F40000
01F00000
01E00000
02D00000
03D00000
03C00000
07C00000
00000000
00000000
00000000
1F400000
3F400000
2E000000
ENDCHAR
STARTCHAR uni1EF5
ENCODING 7925
SWIDTH 600 0
DWIDTH 17 0
BBX 17 20 -1 -6
BITMAP
01E00007C0
01F0000B40
00F0001E00
00B4003D00
007800B800
007800F000
003C02D000
002D078000
002D0F4000
001E1E0000
000E3C0000
000B740000
000BE00000
0007D00000
0007800000
001F000000
003D000000
41F807C000
FFE00FD000
BE400B8000
ENDCHAR
STARTCHAR uni1EF6
ENCODING 7926
SWIDTH 600 0
DWIDTH 17 0
BBX 15 24 3 0
BITMAP
001F8000
0002D000
0006C000
000E0000
00000000
00000000
B40000F4
780002D0
3C000B80
3D001F00
2E003D00
1F00B800
0F41F000
0B83D000
07CB8000
03DF0000
02FD0000
01F40000
01F00000
01E00000
02D00000
03D00000
03C00000
07C00000
ENDCHAR
STARTCHAR uni1EF7
ENCODING 7927
SWIDTH 600 0
DWIDTH 17 0
BBX 17 28 -1 -6
BITMAP
00001E4000
00001FD000
000006D000
000002D000
0000078000
0000190000
0000000000
0000000000
01E00007C0
01F0000B40
00F0001E00
00B4003D00
007800B800
007800F000
003C02D000
002D078000
002D0F4000
001E1E0000
000E3C0000
000B740000
000BE00000
0007D00000
0007800000
001F000000
003D000000
41F8000000
FFE0000000
BE40000000
ENDCHAR
STARTCHAR uni1EF8
ENCODING 7928
SWIDTH 600 0
DWIDTH 17 0
BBX 15 25 3 0
BITMAP
00140000
00FE0380
02EF8B40
0383FE00
0600B800
00000000
00000000
B40000F4
780002D0
3C000B80
3D001F00
2E003D00
1F00B800
0F41F000
0B83D000
07CB8000
03DF0000
02FD0000
01F40000
01F00000
01E00000
02D00000
03D00000
03C00000
07C00000
ENDCHAR
STARTCHAR uni1EF9
ENCODING 7929
SWIDTH 600 0
DWIDTH 17 0
BBX 17 27 -1 -6
BITMAP
0000500100
0001FD0700
00039F4E00
000B07FD00
000A01F400
0000000000
0000000000
01E00007C0
01F0000B40
00F0001E00
00B4003D00
007800B800
007800F000
003C02D000
002D078000
002D0F4000
001E1E0000
000E3C0000
000B740000
000BE00000
0007D00000
0007800000
001F000000
003D000000
41F8000000
FFE0000000
BE40000000
ENDCHAR
STARTCHAR uni2007
ENCODING 8199
SWIDTH 600 0
DWIDTH 17 0
BBX 1 1 0 0
BITMAP
00
ENDCHAR
STARTCHAR uni2010
ENCODING 8208
SWIDTH 600 0
DWIDTH 17 0
BBX 13 2 2 8
BITMAP
BFFFFF40
BFFFFF40
ENDCHAR
STARTCHAR figuredash
ENCODING 8210
SWIDTH 600 0
DWIDTH 17 0
BBX 14 2 1 6
BITMAP
3FFFFFD0
7FFFFFC0
ENDCHAR
STARTCHAR endash
ENCODING 8211
SWIDTH 600 0
DWIDTH 17 0
BBX 14 2 1 6
BITMAP
3FFFFFD0
7FFFFFC0
ENDCHAR
STARTCHAR emdash
ENCODING 8212
SWIDTH 600 0
DWIDTH 17 0
BBX 18 2 -1 6
BITMAP
7FFFFFFFE0
7FFFFFFFD0
ENDCHAR
STARTCHAR uni2015
ENCODING 8213
SWIDTH 600 0
DWIDTH 17 0
BBX 18 2 -1 6
BITMAP
7FFFFFFFE0
7FFFFFFFD0
ENDCHAR
STARTCHAR uni2016
ENCODING 8214
SWIDTH 600 0
DWIDTH 17 0
BBX 9 28 4 -7
BITMAP
B40B40
B40B40
B40B40
B40B40
B40B40
B40B40
B40B40
B40B40
B40B40
B40B40
B40B40
B40B40
B40B40
B40B40
B40B40
B40B40
B40B40
B40B40
B40B40
B40B40
B40B40
B40B40
B40B40
B40B40
B40B40
B40B40
B40B40
B40B40
ENDCHAR
STARTCHAR underscoredbl
ENCODING 8215
SWIDTH 600 0
DWIDTH 17 0
BBX 15 5 -2 -7
BITMAP
2FFFFFFC
2FFFFFF8
00000000
7FFFFFF4
7FFFFFF0
ENDCHAR
STARTCHAR quoteleft
ENCODING 8216
SWIDTH 600 0
DWIDTH 17 0
BBX 7 9 7 11
BITMAP
0064
06D0
1F00
3C00
7800
BF40
BF80
BF40
2E00
ENDCHAR
STARTCHAR quoteright
ENCODING 8217
SWIDTH 600 0
DWIDTH 17 0
BBX 7 9 6 10
BITMAP
02E0
0BF4
0FF4
0BF4
00F0
01E0
0780
2E00
A400
ENDCHAR
STARTCHAR quotesinglbase
ENCODING 8218
SWIDTH 600 0
DWIDTH 17 0
BBX 7 9 4 -6
BITMAP
02E0
0BF4
0FF8
07F4
00F0
01E0
07C0
2E00
A400
ENDCHAR
STARTCHAR quotereversed
ENCODING 8219
SWIDTH 600 0
DWIDTH 17 0
BBX 6 9 6 10
BITMAP
0B80
2FD0
7FD0
7F40
7400
7800
2D00
0B40
0180
ENDCHAR
STARTCHAR quotedblleft
ENCODING 8220
SWIDTH 600 0
DWIDTH 17 0
BBX 13 9 4 11
BITMAP
00640680
07D02E00
1E00F400
3C02D000
B407C000
FF07F400
FF4BF800
FF47F800
7D02E000
ENDCHAR
STARTCHAR quotedblright
ENCODING 8221
SWIDTH 600 0
DWIDTH 17 0
BBX 13 9 3 10
BITMAP
07D02E00
0FF0BF80
0FF4BF80
0BF47F80
00F00B40
02D01E00
07803C00
6E01E000
A0064000
ENDCHAR
STARTCHAR quotedblbase
ENCODING 8222
SWIDTH 600 0
DWIDTH 17 0
BBX 13 9 3 -6
BITMAP
07D02E00
0FF0BF80
0FF4BF80
0BF47F80
00F00B40
02D01E00
07803C00
6E01E000
A0064000
ENDCHAR
STARTCHAR dagger
ENCODING 8224
SWIDTH 600 0
DWIDTH 17 0
BBX 10 22 5 -2
BITMAP
007400
00B000
00B000
00E000
FFFFD0
FFFFC0
01C000
02C000
038000
038000
074000
0B0000
0B0000
0E0000
0E0000
1D0000
2D0000
2C0000
380000
780000
740000
B40000
ENDCHAR
STARTCHAR daggerdbl
ENCODING 8225
SWIDTH 600 0
DWIDTH 17 0
BBX 13 22 2 -2
BITMAP
0001D000
0002D000
0002C000
00038000
03FFFF40
03FFFF40
00074000
000B0000
000F0000
000E0000
001D0000
002D0000
002C0000
003C0000
00380000
00740000
7FFFF000
7FFFF000
00B00000
00E00000
01D00000
02D00000
ENDCHAR
STARTCHAR bullet
ENCODING 8226
SWIDTH 600 0
DWIDTH 17 0
BBX 9 8 4 3
BITMAP
06F800
2FFE00
7FFF00
FFFF40
FFFF00
FFFE00
7FFC00
1FE000
ENDCHAR
STARTCHAR ellipsis
ENCODING 8230
SWIDTH 600 0
DWIDTH 17 0
BBX 16 4 -1 0
BITMAP
1F02E07D
3F4BF0FD
7F4BE1FD
2E0790B8
ENDCHAR
STARTCHAR uni202F
ENCODING 8239
SWIDTH 600 0
DWIDTH 17 0
BBX 1 1 0 0
BITMAP
00
ENDCHAR
STARTCHAR perthousand
ENCODING 8240
SWIDTH 600 0
DWIDTH 17 0
BBX 17 18 0 0
BITMAP
007E000000
02FF800000
0392C00000
0701C00000
0B02C00240
0B47806F80
07FF1BE400
01FAB90000
006E400000
0390000000
0000000000
0BE01BD000
3FF87FF000
7428E47400
A029D03400
A075D1B000
BFE0FFD000
2F807E4000
ENDCHAR
STARTCHAR uni2032
ENCODING 8242
SWIDTH 600 0
DWIDTH 17 0
BBX 4 7 8 12
BITMAP
0F
1E
2D
3C
38
70
A0
ENDCHAR
STARTCHAR uni2033
ENCODING 8243
SWIDTH 600 0
DWIDTH 17 0
BBX 10 7 5 12
BITMAP
0782E0
0B42D0
0F03C0
1E0740
2C0B00
380E00
741C00
ENDCHAR
STARTCHAR uni2035
ENCODING 8245
SWIDTH 600 0
DWIDTH 17 0
BBX 4 7 8 12
BITMAP
F4
B4
78
2C
1D
0E
0B
ENDCHAR
STARTCHAR guilsinglleft
ENCODING 8249
SWIDTH 600 0
DWIDTH 17 0
BBX 7 11 5 2
BITMAP
0024
00F0
07C0
1F40
7D00
B400
B800
3D00
1E00
0B40
0240
ENDCHAR
STARTCHAR guilsinglright
ENCODING 8250
SWIDTH 600 0
DWIDTH 17 0
BBX 7 11 4 2
BITMAP
0600
0B40
03C0
02E0
00F4
00B4
02F4
07D0
1E00
7800
6000
ENDCHAR
STARTCHAR exclamdbl
ENCODING 8252
SWIDTH 600 0
DWIDTH 17 0
BBX 14 18 1 0
BITMAP
007C01F0
00B801E0
00B402E0
00F402D0
00F003C0
01E00780
01D00740
02C00B40
02C00B00
03800E00
07400D00
00000000
00000000
00000000
1F007D00
7F40FE00
7F41FD00
2E00B800
ENDCHAR
STARTCHAR uni203D
ENCODING 8253
SWIDTH 600 0
DWIDTH 17 0
BBX 11 18 4 0
BITMAP
01BE40
1FFFF0
7D02F4
2000B8
00E0B4
01E0E0
01D280
02DD00
02F400
03D000
038000
000000
000000
000000
1F4000
3F8000
3F8000
2E0000
ENDCHAR
STARTCHAR uni203E
ENCODING 8254
SWIDTH 600 0
DWIDTH 17 0
BBX 14 2 3 16
BITMAP
7FFFFFE0
7FFFFFD0
ENDCHAR
STARTCHAR uni203F
ENCODING 8255
SWIDTH 600 0
DWIDTH 17 0
BBX 24 5 -6 -7
BITMAP
A0000000000B
7E40000001B9
0BF94005AF90
00BFFFFFF900
0006BFFA4000
ENDCHAR
STARTCHAR fraction
ENCODING 8260
SWIDTH 600 0
DWIDTH 17 0
BBX 18 17 -1 1
BITMAP
0000000060
00000001E0
0000000780
0000001D00
0000007400
000001D000
0000000000
0000000000
0000000000
0000000000
0004000000
0028000000
00E0000000
0780000000
1E00000000
7800000000
6000000000
ENDCHAR
STARTCHAR uni2047
ENCODING 8263
SWIDTH 600 0
DWIDTH 17 0
BBX 18 18 0 0
BITMAP
01BE01BE00
0BFFCBFF80
0A07DA07D0
0002D003D0
0003C003C0
000B400B40
002D002D00
00B400B400
02D002D000
0780078000
0B400B0000
0000000000
0000000000
0000000000
1F402E0000
3F807F4000
7F407F4000
2E002E0000
ENDCHAR
STARTCHAR uni2048
ENCODING 8264
SWIDTH 600 0
DWIDTH 17 0
BBX 16 18 0 0
BITMAP
01BE003D
0BFFC03C
0A07D07C
0002D078
0003C0B4
000B40B0
002D00F0
00B401E0
02D001D0
078002C0
0B400280
00000000
00000000
00000000
1F400B40
3F802FC0
7F403F80
2E001E40
ENDCHAR
STARTCHAR uni2049
ENCODING 8265
SWIDTH 600 0
DWIDTH 17 0
BBX 17 18 1 0
BITMAP
00B806F800
00F42FFE00
00F0281F40
01E0000F40
01E0000F00
02D0002D00
03C000B400
038002D000
07400B4000
07401E0000
0B002C0000
0000000000
0000000000
0000000000
2E00B80000
BF01FD0000
BF01FD0000
7D00B80000
ENDCHAR
STARTCHAR zero.sups
ENCODING 8304
SWIDTH 600 0
DWIDTH 17 0
BBX 9 13 5 10
BITMAP
01F800
0BFF00
1E4B40
2C0380
780380
740380
B00380
B00740
B00B40
B00E00
782D00
3FF800
0BD000
ENDCHAR
STARTCHAR i.sups
ENCODING 8305
SWIDTH 600 0
DWIDTH 17 0
BBX 7 13 6 11
BITMAP
01E0
02E0
0000
0000
FFC0
FF80
0340
0740
0700
0A00
0F04
0FFC
06F4
ENDCHAR
STARTCHAR four.sups
ENCODING 8308
SWIDTH 600 0
DWIDTH 17 0
BBX 9 11 5 11
BITMAP
002800
00B400
01D000
074E00
1E0D00
381C00
BFFF80
BFFF40
002800
003400
007400
ENDCHAR
STARTCHAR five.sups
ENCODING 8309
SWIDTH 600 0
DWIDTH 17 0
BBX 9 12 5 10
BITMAP
03FFC0
03FF80
070000
0A0000
0FF800
0FFE00
091F00
000B00
500B00
B42E00
3FFC00
0BE000
ENDCHAR
STARTCHAR six.sups
ENCODING 8310
SWIDTH 600 0
DWIDTH 17 0
BBX 9 13 5 10
BITMAP
00BE40
03FFC0
0B8140
1D0000
2C0000
39F800
3FFE00
7D0F00
740700
380B00
3D1E00
1FFC00
07E400
ENDCHAR
STARTCHAR seven.sups
ENCODING 8311
SWIDTH 600 0
DWIDTH 17 0
BBX 8 11 7 11
BITMAP
FFFD
FFFD
0074
00E0
0280
0700
0E00
2C00
3800
7400
B000
ENDCHAR
STARTCHAR eight.sups
ENCODING 8312
SWIDTH 600 0
DWIDTH 17 0
BBX 9 13 5 10
BITMAP
01B900
07FF40
0B4780
0E0380
0E0340
079A00
07F800
2D6C00
740E00
B00A00
782E00
3FFC00
1BE000
ENDCHAR
STARTCHAR nine.sups
ENCODING 8313
SWIDTH 600 0
DWIDTH 17 0
BBX 9 13 5 10
BITMAP
02F800
0BFE00
1E0B00
2C0740
280380
2D1B80
1FFF40
07E740
000B00
001E00
207C00
BFF400
2F9000
ENDCHAR
STARTCHAR parenleft.sups
ENCODING 8317
SWIDTH 600 0
DWIDTH 17 0
BBX 5 15 8 9
BITMAP
0180
0740
0A00
1D00
3800
7400
B000
E000
E000
E000
E000
E000
A000
7000
2000
ENDCHAR
STARTCHAR parenright.sups
ENCODING 8318
SWIDTH 600 0
DWIDTH 17 0
BBX 6 15 6 9
BITMAP
0240
0280
01C0
01D0
01D0
01D0
01D0
01D0
02C0
0380
0740
0E00
1D00
7400
6000
ENDCHAR
STARTCHAR n.sups
ENCODING 8319
SWIDTH 600 0
DWIDTH 17 0
BBX 10 10 5 10
BITMAP
0D6F40
1FFFC0
1F42D0
2D01D0
2C02C0
3802C0
780380
740380
B00740
A00600
ENDCHAR
STARTCHAR zero.subs
ENCODING 8320
SWIDTH 600 0
DWIDTH 17 0
BBX 9 13 3 -6
BITMAP
02F800
0BFE00
2E0F00
380740
740340
B00340
E00740
E00740
E00B00
F01E00
B47C00
3FF400
1F9000
ENDCHAR
STARTCHAR one.subs
ENCODING 8321
SWIDTH 600 0
DWIDTH 17 0
BBX 10 11 2 -5
BITMAP
006E00
03FE00
001D00
001D00
002C00
003800
003800
007400
00B000
3FFFD0
7FFFC0
ENDCHAR
STARTCHAR two.subs
ENCODING 8322
SWIDTH 600 0
DWIDTH 17 0
BBX 9 12 3 -5
BITMAP
02F800
0BFE00
1D1F00
000B40
000B00
000D00
003800
00E000
078000
2D0000
FFFD00
FFFC00
ENDCHAR
STARTCHAR three.subs
ENCODING 8323
SWIDTH 600 0
DWIDTH 17 0
BBX 8 13 3 -6
BITMAP
02F8
0FFE
090B
000B
001E
03F8
03F4
007C
001D
401E
F46D
7FF8
1BD0
ENDCHAR
STARTCHAR four.subs
ENCODING 8324
SWIDTH 600 0
DWIDTH 17 0
BBX 9 11 3 -5
BITMAP
002400
00B000
02C000
075D00
1D1C00
742C00
FFFF40
FFFF40
003400
007400
007000
ENDCHAR
STARTCHAR five.subs
ENCODING 8325
SWIDTH 600 0
DWIDTH 17 0
BBX 9 12 3 -6
BITMAP
03FF80
07FF80
0B0000
0E0000
0FF400
1FFD00
181E00
000E00
400E00
F46D00
7FF800
1BD000
ENDCHAR
STARTCHAR six.subs
ENCODING 8326
SWIDTH 600 0
DWIDTH 17 0
BBX 9 13 3 -6
BITMAP
00BE00
07FF80
0F4200
2D0000
380000
76F800
7FFD00
791E00
740B00
740E00
3D2D00
2FFC00
0BE000
ENDCHAR
STARTCHAR seven.subs
ENCODING 8327
SWIDTH 600 0
DWIDTH 17 0
BBX 9 11 4 -5
BITMAP
3FFF40
7FFF00
001D00
007400
00E000
02C000
074000
0A0000
1D0000
2C0000
380000
ENDCHAR
STARTCHAR eight.subs
ENCODING 8328
SWIDTH 600 0
DWIDTH 17 0
BBX 9 13 3 -6
BITMAP
01F800
0BFF00
0F4B40
1D0740
0D0700
0B5D00
0BF800
297800
700D00
B00E00
B42D00
7FF800
1BE000
ENDCHAR
STARTCHAR nine.subs
ENCODING 8329
SWIDTH 600 0
DWIDTH 17 0
BBX 9 13 3 -6
BITMAP
02F400
0FFD00
2D1F00
380740
380740
3D1F40
2FFF40
0BEB00
000E00
001D00
507C00
BFF000
2F8000
ENDCHAR
STARTCHAR parenleft.subs
ENCODING 8333
SWIDTH 600 0
DWIDTH 17 0
BBX 6 15 5 -7
BITMAP
00A0
01D0
0380
0B00
1D00
2C00
3800
3400
7400
7400
7400
7400
3800
2800
1800
ENDCHAR
STARTCHAR parenright.subs
ENCODING 8334
SWIDTH 600 0
DWIDTH 17 0
BBX 5 15 4 -7
BITMAP
0240
0380
02C0
02C0
01C0
01C0
02C0
02C0
0380
0740
0B00
0E00
2C00
7400
9000
ENDCHAR
STARTCHAR uni0259.sups
ENCODING 8340
SWIDTH 600 0
DWIDTH 17 0
BBX 9 10 5 10
BITMAP
06F800
1FFF40
190780
0002C0
7FFFC0
BFFF80
B00740
741F00
3FFD00
1BE000
ENDCHAR
STARTCHAR colonmonetary
ENCODING 8353
SWIDTH 600 0
DWIDTH 17 0
BBX 14 24 2 -3
BITMAP
00001480
00003180
00006240
0006FF40
006FFFD0
01FECBF0
07E18960
0B824C00
1F031800
2E062400
3D093000
7C0C6000
78149000
B821C000
B8224000
78530000
7C860000
3E890A00
2F8D7E00
0BFFF400
07BE8000
06240000
09300000
08500000
ENDCHAR
STARTCHAR franc
ENCODING 8355
SWIDTH 600 0
DWIDTH 17 0
BBX 16 18 1 0
BITMAP
007FFFFD
007FFFFD
00B80000
00F40000
00F00000
01F00000
02E00000
02FFFF80
03FFFF40
03C00000
07C00000
0B800000
FFFFC000
FFFF8000
0F000000
1F000000
1E000000
2E000000
ENDCHAR
STARTCHAR lira
ENCODING 8356
SWIDTH 600 0
DWIDTH 17 0
BBX 15 18 1 0
BITMAP
0002BE40
001FFFE0
003E41F4
00780020
00B40000
00B40000
00B40000
1FFFFF00
00B40000
00780000
2FFFFD00
00B40000
00B40000
01E00000
03C00000
1F000000
BFFFFF40
FFFFFF00
ENDCHAR
STARTCHAR uni20A6
ENCODING 8358
SWIDTH 600 0
DWIDTH 17 0
BBX 15 18 1 0
BITMAP
00B800B0
00FC00E0
00EC00E0
01DD01D0
01CD01D0
028E02C0
038A0380
7FFFFFF8
07470740
07434740
BFFFFFF4
0E028A00
0E028E00
1D01CD00
1D01DD00
2C00EC00
3800F800
3800B800
ENDCHAR
STARTCHAR peseta
ENCODING 8359
SWIDTH 600 0
DWIDTH 17 0
BBX 15 18 2 0
BITMAP
02FFE900
02FFFF40
03C01B80
07C003C0
7FFFFFF8
BFFFFFF8
0B400B80
0F001F40
0F01BE00
1FFFF400
2FFE8000
2D000000
3C000000
3C000000
78000000
78000000
B4000000
F0000000
ENDCHAR
STARTCHAR uni20A9
ENCODING 8361
SWIDTH 600 0
DWIDTH 17 0
BBX 16 18 1 0
BITMAP
03C0001E
0780B42D
0781F03C
0782B078
074370B4
0B4A70E0
0B4DA1D0
7FFFFFFC
BFFFFFF8
0B28A380
0F34A340
0E709700
0EA0DA00
0E90DE00
0EC0ED00
1E80EC00
1F41F800
1F01F400
ENDCHAR
STARTCHAR dong
ENCODING 8363
SWIDTH 600 0
DWIDTH 17 0
BBX 16 20 1 0
BITMAP
000000E0
000001E0
0002FFFE
0003FFFD
000002C0
000003C0
002FE380
01FFFF80
07E41F40
0B800B00
0F000F00
1E001E00
1E002D00
0F81BD00
0BFFFC00
02FE6C00
00000000
00000000
7FFFFD00
7FFFFC00
ENDCHAR
STARTCHAR Euro
ENCODING 8364
SWIDTH 600 0
DWIDTH 17 0
BBX 16 18 1 0
BITMAP
00006F90
0007FFF8
002F907E
007D0009
01F40000
02E00000
03D00000
7FFFFF80
0B800000
0B400000
FFFFF800
0F400000
0F400000
0B800000
07C001C0
03F41BD0
01FFFE40
002FE400
ENDCHAR
STARTCHAR uni20AE
ENCODING 8366
SWIDTH 600 0
DWIDTH 17 0
BBX 14 18 3 0
BITMAP
3FFFFFD0
3FFFFFD0
001F0000
001E0000
002E0000
003D1C00
003EE400
00BE4000
0BF81000
79B9B400
00FF4000
07F40000
7EF00000
91E00000
02E00000
03D00000
03C00000
07C00000
ENDCHAR
STARTCHAR uni20B1
ENCODING 8369
SWIDTH 600 0
DWIDTH 17 0
BBX 15 18 2 0
BITMAP
02FFE400
02FFFE00
03C06F40
03C00B80
7FFFFFF8
0B800780
1B555790
AFAAAFA0
0F002E00
1E56FD00
2FFFE000
2FA90000
3D000000
3C000000
78000000
B4000000
B4000000
F0000000
ENDCHAR
STARTCHAR uni20B2
ENCODING 8370
SWIDTH 600 0
DWIDTH 17 0
BBX 14 24 2 -3
BITMAP
00003800
00003400
00007400
000AFD00
00BFFF80
02F907E0
0BD00080
1F400000
2E000000
7C000000
B8000000
B8000000
F402FF80
F403FF40
F4000B00
F4000F00
B8001E00
7C001E00
3F407D00
1FFFF800
06FF9000
00740000
00700000
00B00000
ENDCHAR
STARTCHAR uni20B4
ENCODING 8372
SWIDTH 600 0
DWIDTH 17 0
BBX 14 18 2 0
BITMAP
001BE400
00BFFE00
02E42F40
00400B40
00000B40
00001F00
00007D00
7FFFFFD0
006F8000
01F90000
FFFFFF80
2E000000
3C000000
7C000000
7C001400
3E41BC00
1FFFE000
02FE4000
ENDCHAR
STARTCHAR uni20B5
ENCODING 8373
SWIDTH 600 0
DWIDTH 17 0
BBX 14 24 2 -3
BITMAP
00001800
00002800
00003800
0006FE40
002FFFD0
01FD71F0
03E0A050
0B80A000
1F00D000
2E01C000
3D01C000
7C028000
78038000
78034000
B8070000
780B0000
7C0A0000
3E0D0900
2F9D7E00
0BFFF800
01BF9000
00280000
00340000
00240000
ENDCHAR
STARTCHAR uni20B8
ENCODING 8376
SWIDTH 600 0
DWIDTH 17 0
BBX 14 18 3 0
BITMAP
3FFFFFD0
3FFFFFD0
00000000
00000000
7FFFFF80
BFFFFF80
002D0000
003C0000
007C0000
00780000
00B80000
00F40000
00F00000
01F00000
02E00000
02D00000
03D00000
07C00000
ENDCHAR
STARTCHAR uni20B9
ENCODING 8377
SWIDTH 600 0
DWIDTH 17 0
BBX 15 18 2 0
BITMAP
07FFFFF4
0BFFFFF4
0001B400
00003D00
0BFFFFD0
1FFFFFD0
00003D00
0000BC00
0016F400
3FFFD000
7FF90000
02E00000
00F40000
007C0000
002E0000
000F4000
000B8000
0003D000
ENDCHAR
STARTCHAR uni20BA
ENCODING 8378
SWIDTH 600 0
DWIDTH 17 0
BBX 14 18 1 0
BITMAP
002E0000
002D0000
003C0640
007C6E00
007FE000
01FD0000
2FF42E00
24F6E400
01FE0000
1BE00050
B6E001E0
02D001E0
03C002D0
07C007C0
07801F40
0B85BE00
0FFFE400
0FE90000
ENDCHAR
STARTCHAR uni20BD
ENCODING 8381
SWIDTH 600 0
DWIDTH 17 0
BBX 17 18 0 0
BITMAP
0003FFE400
0007FFFF00
000B801F80
000B4007C0
000F400780
001F000780
001E000F40
002D01BE00
2FFFFFF800
2FFFFE9000
003C000000
0078000000
6FFFFFF000
7FFFFFE000
00B4000000
00F0000000
01F0000000
01E0000000
ENDCHAR
STARTCHAR uni2105
ENCODING 8453
SWIDTH 600 0
DWIDTH 17 0
BBX 18 18 -1 0
BITMAP
01B9000000
07FF0000B0
1F460002D0
2C00000B40
3800002D00
380000A000
3D14018000
1FFC000000
07E0000000
000002F800
00001FFE00
002C3D0B40
00B0740740
02C0B00740
0F00B00B00
7C00B42E00
70007FF800
00001BE000
ENDCHAR
STARTCHAR uni2113
ENCODING 8467
SWIDTH 600 0
DWIDTH 17 0
BBX 12 20 3 0
BITMAP
0002F8
001FFD
003E1E
007C0E
00B40E
00F01D
01F03C
01E074
02E1E0
03D380
03DF00
07F800
07E000
0B4000
BF4000
9F0000
0F4000
0F81D0
07FFD0
02FE00
ENDCHAR
STARTCHAR uni2116
ENCODING 8470
SWIDTH 600 0
DWIDTH 17 0
BBX 20 18 -2 0
BITMAP
007C01E000
00BC03E1F8
00FD0787FD
00ED0B4F0E
01DD0B5D0A
01DE0F2C0E
02CE0E2C1D
03CE1E2D3C
038A2D1FF4
078B2D0BD0
074B2C0000
0B47380000
0F07783FE0
0E07747FE0
1E07B00000
2D03F00000
7C03E00000
B403E00000
ENDCHAR
STARTCHAR uni2117
ENCODING 8471
SWIDTH 600 0
DWIDTH 17 0
BBX 17 18 0 0
BITMAP
0001BF8000
002FFFF400
00BD40BD00
02E0001E00
0740000B00
0E07FE0340
1C0BFFC340
280B02C340
340E07C340
301FFF4700
701FF90A00
702C000D00
3438002C00
3838007400
2D0002E000
0F905F8000
07FFFE0000
00BF900000
ENDCHAR
STARTCHAR uni2120
ENCODING 8480
SWIDTH 600 0
DWIDTH 17 0
BBX 17 10 1 10
BITMAP
07E0280680
1FF87C0F80
1D287C1F40
1D00AD3B40
0B80A96700
02E0DADB00
0071D78A00
6071C74D00
7FF2C00D00
1F92801C00
ENDCHAR
STARTCHAR trademark
ENCODING 8482
SWIDTH 600 0
DWIDTH 17 0
BBX 16 9 2 10
BITMAP
BFFCB40F
FFFCF42F
0700E87A
0B01DCEA
0E02DECD
0D028F5C
1D038A1C
1C034028
28070038
ENDCHAR
STARTCHAR uni2126
ENCODING 8486
SWIDTH 600 0
DWIDTH 17 0
BBX 17 18 -1 0
BITMAP
00006FE000
0007FFFD00
002F907F00
00BD000F80
01F4000BC0
02E00007C0
03C00007C0
07800007C0
0B800007C0
0B40000B80
0B40000B40
0B40001F00
0B40002D00
0780007800
02C001E000
01E0078000
BFF01FFD00
BFF02FFD00
ENDCHAR
STARTCHAR estimated
ENCODING 8494
SWIDTH 600 0
DWIDTH 17 0
BBX 16 18 0 0
BITMAP
001BF900
00A40680
028000A0
0B4000B4
1F4000BC
2F4000BD
3F4000BE
3F4000BF
7FFFFFFF
7F400000
3F400000
3F400000
2F400000
1F400000
0B400020
02800090
00A40B40
001BF800
ENDCHAR
STARTCHAR uni2150
ENCODING 8528
SWIDTH 600 0
DWIDTH 17 0
BBX 18 18 -1 0
BITMAP
01B8000060
07F80001E0
0074000780
00B0001D00
00B0007400
00E001D000
00E0000000
01D0000000
01D0000000
00000FFF80
00040FFF80
0028000A00
00E0002800
078000B000
1E0001D000
780002C000
6000038000
0000074000
ENDCHAR
STARTCHAR uni2151
ENCODING 8529
SWIDTH 600 0
DWIDTH 17 0
BBX 18 18 -1 0
BITMAP
01B8000060
07F80001E0
0074000780
00B0001D00
00B0007400
00E001D000
00E0000000
01D0000000
01D0000000
000006F800
00041FFE00
00282D0B00
00E03C1B00
07802FFF00
1E000BDA00
7800202D00
60007FF800
00001F9000
ENDCHAR
STARTCHAR uni2152
ENCODING 8530
SWIDTH 600 0
DWIDTH 17 0
BBX 16 18 1 0
BITMAP
007C0000
03F80000
06780000
00740000
00B00009
00B001BE
00A06F90
0006E400
01B90000
0E402F40
0000FFC0
7F82D1D0
7F8380D0
074740D0
074701C0
0B078780
0E03FF40
0E01B900
ENDCHAR
STARTCHAR onethird
ENCODING 8531
SWIDTH 600 0
DWIDTH 17 0
BBX 18 18 -1 0
BITMAP
01B8000060
07F80001E0
0074000780
00B0001D00
00B0007400
00E001D000
00E0000000
01D0000000
01D0000000
000001B900
000407FF00
0028091E00
00E001F800
078002F800
1E00001D00
7800341D00
60002FFC00
00000BE400
ENDCHAR
STARTCHAR twothirds
ENCODING 8532
SWIDTH 600 0
DWIDTH 17 0
BBX 18 18 -1 0
BITMAP
01F8000060
0BFE0001E0
1D1E000780
000D001D00
0028007400
01E001D000
0B40000000
7FFE000000
7FFE000000
000001B900
000407FF00
0028091E00
00E001F800
078002F800
1E00001D00
7800341D00
60002FFC00
00000BE400
ENDCHAR
ENDFONT
